<svg xmlns="http://www.w3.org/2000/svg" xmlns:xlink="http://www.w3.org/1999/xlink" version="1.1"><metadata>Created by FontForge 20170731 at Wed Feb 26 09:24:02 2020 By Aleksey,,, Copyright 2019 The Work Sans Project Authors (https://github.com/weiweihuanghuang/Work-Sans)</metadata><defs><font id="WorkSans-Italic" horiz-adv-x="604"><font-face x-height="500" ascent="800" bbox="-261 -292 1316 1100" cap-height="660" descent="-200" font-family="Work Sans" font-stretch="normal" font-style="italic" font-weight="400" panose-1="0 0 0 0 0 0 0 0 0 0" slope="-13" underline-position="-175" underline-thickness="50" unicode-range="U+000D-FB02" units-per-em="1000"/><glyph d="M70 0l137 593q12 50 35 81t57.5 46t80.5 15q28 0 52 -6.5t37 -17.5l-27 -65q-9 7 -26 12t-36 5q-42 0 -65 -20t-34 -71l-16 -72l-5 -26l-110 -474h-80zM68 431l16 69h336l-16 -69h-336zM603 596q-24 0 -39 14.5t-15 37.5q0 31 18.5 49.5t44.5 18.5q24 0 39 -14.5 t15 -37.5q0 -31 -18.5 -49.5t-44.5 -18.5zM612 500l-116 -500h-80l116 500h80z" glyph-name="fi" horiz-adv-x="643" unicode="fi"/><glyph d="M70 0l137 593q12 50 35 81t57.5 46t80.5 15q28 0 52 -6.5t37 -17.5l-27 -65q-9 7 -26 12t-36 5q-42 0 -65 -20t-34 -71l-16 -72l-5 -26l-110 -474h-80zM68 431l16 69h336l-16 -69h-336zM553 -7q-69 0 -96 41.5t-11 108.5l136 587h80l-137 -590q-10 -41 6 -59t55 -18 q15 0 26 1t21 3l-20 -64q-16 -6 -29 -8t-31 -2z" glyph-name="fl" horiz-adv-x="688" unicode="fl"/><glyph d="M70 0l137 593q12 50 35 81t57.5 46t80.5 15q28 0 52 -6.5t37 -17.5l-27 -65q-9 7 -26 12t-36 5q-42 0 -65 -20t-34 -71l-16 -72l-5 -26l-110 -474h-80zM68 431l16 69h336l-16 -69h-336zM385 0l137 593q12 50 35 81t57.5 46t80.5 15q28 0 52 -6.5t37 -17.5l-27 -65 q-9 7 -26 12t-36 5q-42 0 -65 -20t-34 -71l-16 -72l-5 -26l-110 -474h-80zM383 431l16 69h336l-16 -69h-336z" glyph-name="f_f" horiz-adv-x="700" unicode="ff"/><glyph d="M70 0l137 593q12 50 35 81t57.5 46t80.5 15q28 0 52 -6.5t37 -17.5l-27 -65q-9 7 -26 12t-36 5q-42 0 -65 -20t-34 -71l-16 -72l-5 -26l-110 -474h-80zM68 431l16 69h336l-16 -69h-336zM385 0l137 593q12 50 35 81t57.5 46t80.5 15q28 0 52 -6.5t37 -17.5l-27 -65 q-9 7 -26 12t-36 5q-42 0 -65 -20t-34 -71l-16 -72l-5 -26l-110 -474h-80zM383 431l16 69h336l-16 -69h-336zM918 596q-24 0 -39 14.5t-15 37.5q0 31 18.5 49.5t44.5 18.5q24 0 39 -14.5t15 -37.5q0 -31 -18.5 -49.5t-44.5 -18.5zM927 500l-116 -500h-80l116 500h80z" glyph-name="f_f_i" horiz-adv-x="958" unicode="ffi"/><glyph d="M70 0l137 593q12 50 35 81t57.5 46t80.5 15q28 0 52 -6.5t37 -17.5l-27 -65q-9 7 -26 12t-36 5q-42 0 -65 -20t-34 -71l-16 -72l-5 -26l-110 -474h-80zM68 431l16 69h336l-16 -69h-336zM385 0l137 593q12 50 35 81t57.5 46t80.5 15q28 0 52 -6.5t37 -17.5l-27 -65 q-9 7 -26 12t-36 5q-42 0 -65 -20t-34 -71l-16 -72l-5 -26l-110 -474h-80zM383 431l16 69h336l-16 -69h-336zM868 -7q-69 0 -96 41.5t-11 108.5l136 587h80l-137 -590q-10 -41 6 -59t55 -18q15 0 26 1t21 3l-20 -64q-16 -6 -29 -8t-31 -2z" glyph-name="f_f_l" horiz-adv-x="1003" unicode="ffl"/><glyph d="M130 80h240v500h-240v-500zM50 0v660h400v-660h-400z" glyph-name=".notdef" horiz-adv-x="500"/><glyph glyph-name=".null" horiz-adv-x="0"/><glyph glyph-name="nonmarkingreturn" horiz-adv-x="333"/><glyph glyph-name="NULL" horiz-adv-x="0"/><glyph glyph-name="NULL" horiz-adv-x="0"/><glyph glyph-name="CR" horiz-adv-x="336"/><glyph glyph-name="space" horiz-adv-x="336"/><glyph d="M92 208l24 166l66 286h86l-66 -286l-52 -166h-58zM84 -10q-25 0 -41.5 15.5t-16.5 40.5q0 34 20 54t48 20q25 0 41.5 -15.5t16.5 -40.5q0 -34 -19.5 -54t-48.5 -20z" glyph-name="exclam" horiz-adv-x="268" unicode="!"/><glyph d="M439 690l-84 -247h-64l57 247h91zM272 690l-84 -247h-64l57 247h91z" glyph-name="quotedbl" horiz-adv-x="398" unicode="&quot;"/><glyph d="M303 0l223 660h71l-223 -660h-71zM27 185v61h555v-61h-555zM69 0l223 660h71l-223 -660h-71zM94 414v61h555v-61h-555z" glyph-name="numbersign" horiz-adv-x="639" unicode="#"/><glyph d="M321 1q-72 0 -129.5 21.5t-97.5 64t-62 104.5l74 34q17 -56 50 -90.5t77 -50t94 -15.5q48 0 81.5 17t50.5 44.5t17 56.5q0 35 -23.5 56t-67.5 33l-109 30q-46 13 -80 36t-53 55.5t-19 70.5q0 54 28.5 97.5t80.5 69t123 25.5q63 0 112 -17t83.5 -52t52.5 -88l-74 -33 q-12 51 -40 77.5t-64 36t-74 9.5q-73 0 -112 -34.5t-39 -77.5q0 -22 11.5 -41.5t33 -34.5t49.5 -24l117 -34q69 -20 104.5 -56.5t35.5 -91.5q0 -60 -31.5 -104.5t-84 -69t-115.5 -24.5zM200 -100l199 860h69l-199 -860h-69z" glyph-name="dollar" horiz-adv-x="620" unicode="$"/><glyph d="M123 0l593 660h86l-593 -660h-86zM235 306q-45 0 -77 19t-49 52.5t-17 76.5q0 57 23 106t64 79.5t96 30.5q46 0 77.5 -19t48.5 -52.5t17 -76.5q0 -56 -23 -105.5t-64 -80t-96 -30.5zM240 369q35 0 58.5 23t36 58t12.5 70q0 39 -19.5 63t-57.5 24q-34 0 -58 -23 t-36.5 -57.5t-12.5 -70.5q0 -39 19.5 -63t57.5 -24zM650 -10q-45 0 -77 19t-49 52.5t-17 76.5q0 57 23 106t64 79.5t96 30.5q46 0 77.5 -19t48.5 -52.5t17 -76.5q0 -56 -23 -105.5t-64 -80t-96 -30.5zM655 53q35 0 58.5 23t36 58t12.5 70q0 39 -19.5 63t-57.5 24 q-34 0 -58 -23t-36.5 -57.5t-12.5 -70.5q0 -39 19.5 -63t57.5 -24z" glyph-name="percent" horiz-adv-x="888" unicode="%"/><glyph d="M232 -8q-67 0 -114 22.5t-71.5 63.5t-24.5 97q0 61 26.5 102t74.5 68t112 45l37 15q41 13 74.5 30.5t53.5 43t20 60.5t-18 51.5t-46 16.5q-37 0 -63 -27.5t-26 -80.5q0 -24 6 -54t17 -63t25.5 -67.5t30.5 -69.5q26 -53 62 -97.5t77 -71.5t80 -27l-12 -60v0 q-55 0 -104.5 29t-90.5 77.5t-71 107.5q-26 52 -47 103.5t-33 100t-12 89.5q0 54 22 93t59.5 60.5t85.5 21.5q61 0 94.5 -34t33.5 -86q0 -58 -27.5 -97t-76 -65t-113.5 -47l-7 -1q-52 -15 -90 -35t-58.5 -50t-20.5 -77q0 -58 38 -89t98 -31q51 0 86 17.5t69 46.5l15 10 q35 35 62.5 81.5t37.5 104.5l67 -6q-12 -63 -46.5 -124.5t-81.5 -104.5l-20 -16q-27 -23 -57 -40t-62.5 -26.5t-70.5 -9.5z" glyph-name="ampersand" horiz-adv-x="606" unicode="&amp;"/><glyph d="M272 690l-84 -247h-64l57 247h91z" glyph-name="quotesingle" horiz-adv-x="231" unicode="'"/><glyph d="M166 -189q-51 77 -78.5 176t-27.5 195q0 86 21.5 168.5t62.5 157t101.5 136.5t138.5 107l33 -49q-91 -59 -153 -143t-93.5 -182.5t-31.5 -202.5q0 -88 21.5 -175t58.5 -154z" glyph-name="parenleft" horiz-adv-x="342" unicode="("/><glyph d="M190 751q51 -77 78.5 -176t27.5 -195q0 -86 -21.5 -168.5t-62.5 -157t-101.5 -136.5t-138.5 -107l-33 49q91 59 153 143t93.5 182.5t31.5 202.5q0 88 -21.5 175t-58.5 154z" glyph-name="parenright" horiz-adv-x="342" unicode=")"/><glyph d="M402 277l-49 105l-23 76l-55 -69l-93 -89l-44 46l91 90l70 53l-74 25l-104 51l30 57l106 -49l66 -43l8 83l26 117h70l-29 -124l-30 -81l82 27l122 23l4 -63l-120 -25l-85 -7l42 -68l47 -105z" glyph-name="asterisk" horiz-adv-x="564" unicode="*"/><glyph d="M412 564l-114 -496h-75l114 496h75zM569 354l-17 -75h-486l17 75h486z" glyph-name="plus" unicode="+"/><glyph d="M94 120q30 0 48 -22.5t18 -58.5q0 -38 -19.5 -77.5t-56.5 -69.5t-89 -41l-25 48q39 6 65.5 20t42.5 34.5t23 44.5l-1 1q-5 -4 -10.5 -5.5t-16.5 -1.5q-24 0 -36.5 17.5t-12.5 38.5q0 32 20.5 52t49.5 20z" glyph-name="comma" horiz-adv-x="252" unicode=","/><glyph d="M432 303l-19 -83h-330l19 83h330z" glyph-name="hyphen" horiz-adv-x="510" unicode="-"/><glyph d="M81 -10q-25 0 -41.5 15.5t-16.5 40.5q0 34 20 54t48 20q25 0 41.5 -15.5t16.5 -40.5q0 -34 -19.5 -54t-48.5 -20z" glyph-name="period" horiz-adv-x="262" unicode="."/><glyph d="M505 730l-471 -800h-82l471 800h82z" glyph-name="slash" horiz-adv-x="420" unicode="/"/><glyph d="M296 -8q-69 0 -118.5 31.5t-76 88t-26.5 132.5q0 37 4 72.5t12 69.5q14 60 39.5 111.5t62 90.5t84 60.5t104.5 21.5q65 0 112 -31.5t72.5 -88t25.5 -131.5q0 -36 -4 -71t-12 -69q-14 -60 -39 -112t-60.5 -91.5t-80.5 -61.5t-99 -22zM303 63q50 0 88 31.5t64 83.5t39 111 q8 32 11.5 64.5t3.5 63.5q0 96 -37 139t-99 43q-53 0 -93.5 -32t-67.5 -83.5t-41 -112.5q-7 -31 -10.5 -63t-3.5 -63q0 -66 19.5 -106t53 -58t73.5 -18z" glyph-name="zero" horiz-adv-x="629" unicode="0"/><glyph d="M132 0l107 466q8 31 15 54.5t15 45.5q-19 -18 -52.5 -36t-70.5 -32t-70 -20v78q37 8 80 25.5t81 39t58 39.5h70l-153 -660h-80z" glyph-name="one" horiz-adv-x="382" unicode="1"/><glyph d="M25 0l18 75q82 58 155 108.5t128.5 99t87 98t31.5 106.5q0 54 -34 80.5t-84 26.5q-69 0 -111.5 -41.5t-59.5 -105.5l-62 52q16 48 48.5 87t80 61.5t108.5 22.5q59 0 103 -21t69 -59t25 -89q0 -55 -23.5 -104t-63 -93t-89 -84t-101.5 -76.5t-99 -70.5v-1q11 1 34.5 2 t33.5 1h269l-18 -75h-446z" glyph-name="two" horiz-adv-x="565" unicode="2"/><glyph d="M269 -10q-91 0 -150 50t-77 132l85 24q8 -60 45.5 -95.5t102.5 -35.5q45 0 75.5 18.5t46 48.5t15.5 64q0 58 -36.5 79.5t-87.5 21.5h-13.5t-14.5 -1l18 79q11 -1 21 -2t20 -1q42 0 72 14t46.5 41t16.5 66q0 37 -17.5 59.5t-44.5 33t-58 10.5q-61 0 -92.5 -28.5 t-49.5 -72.5l-69 43q26 63 84.5 98t135.5 35q54 0 97 -20t68 -56.5t25 -88.5q0 -50 -20 -89t-54.5 -61.5t-77.5 -25.5l-1 -2q36 -5 61 -21t38.5 -42t13.5 -62q0 -67 -32 -114.5t-83 -73t-109 -25.5z" glyph-name="three" horiz-adv-x="564" unicode="3"/><glyph d="M275 0l40 173h-299l16 69q16 21 32.5 42.5t34.5 42.5l294 333h114l-97 -418h125l-16 -69h-125l-40 -173h-79zM106 242h225l79 343l-225 -257q-20 -22 -39.5 -43t-39.5 -43z" glyph-name="four" horiz-adv-x="565" unicode="4"/><glyph d="M269 -10q-61 0 -107.5 24t-74.5 63.5t-35 83.5l85 22q5 -30 19 -57t43.5 -44t78.5 -17t80.5 23.5t47 61t15.5 79.5q0 45 -18.5 73t-48 41t-64.5 13q-38 0 -65 -10.5t-53 -33.5l-64 22l107 326h343l-18 -75h-272l-66 -199q23 19 54 28.5t66 9.5q50 0 91.5 -20.5t66 -61.5 t24.5 -101q0 -72 -28.5 -129t-81 -89.5t-125.5 -32.5z" glyph-name="five" horiz-adv-x="571" unicode="5"/><glyph d="M307 -10q-78 0 -129 32t-76 89t-25 133q0 79 18 155t55.5 137.5t96.5 98t140 36.5q71 0 127 -35t72 -115l-80 -26q-7 49 -43.5 75t-82.5 26q-53 0 -92.5 -26t-66.5 -69t-43 -95t-22 -105q17 55 69 84.5t114 29.5q89 0 140.5 -51t51.5 -134q0 -68 -27 -122.5t-77 -86 t-120 -31.5zM310 65q45 0 76 20.5t46.5 55t15.5 76.5q0 53 -35 88.5t-103 35.5q-46 0 -78 -20.5t-48 -53.5t-16 -71q0 -31 10.5 -55.5t30 -41.5t45.5 -25.5t56 -8.5z" glyph-name="six" horiz-adv-x="589" unicode="6"/><glyph d="M122 660h467l-18 -75q-81 -73 -146 -160.5t-111 -193t-71 -231.5h-87q21 111 68.5 219.5t120.5 207t169 178.5l-2 -20h-408z" glyph-name="seven" horiz-adv-x="538" unicode="7"/><glyph d="M294 -9q-50 0 -94.5 12.5t-78.5 36.5t-53.5 58.5t-19.5 78.5q0 54 24 92.5t66.5 62.5t99.5 32l-4 -16q-26 11 -45 30.5t-29.5 45t-10.5 53.5q0 58 28 101.5t76.5 68t111.5 24.5q59 0 106.5 -20t75.5 -56.5t28 -88.5q0 -67 -43 -116t-113 -63v17q34 -15 58.5 -36.5 t38 -49.5t13.5 -63q0 -62 -31 -108t-84 -71t-120 -25zM301 65q44 0 76.5 14.5t50.5 42t18 65.5q0 39 -23.5 66.5t-60.5 41.5t-79 14q-44 0 -78.5 -16t-54 -44t-19.5 -65q0 -39 24 -65.5t62.5 -40t83.5 -13.5zM359 379q39 0 69 15t47 41.5t17 60.5q0 45 -34 74t-94 29 q-40 0 -70 -16t-46.5 -43t-16.5 -60q0 -28 16 -51t45 -36.5t67 -13.5z" glyph-name="eight" horiz-adv-x="606" unicode="8"/><glyph d="M259 -10q-60 0 -103.5 22.5t-71 62.5t-38.5 93l84 27q5 -32 20 -62t43.5 -49t71.5 -19q54 0 94 24t67.5 65.5t43 94.5t20.5 111q-11 -36 -37.5 -61t-61 -38t-71.5 -13q-64 0 -110 25t-70.5 68.5t-24.5 98.5q0 64 29 116t81 83t121 31q78 0 127.5 -32t72.5 -89t23 -133 q0 -79 -18.5 -154.5t-56.5 -137t-96.5 -98t-138.5 -36.5zM336 319q47 0 78.5 20.5t47.5 54t16 70.5q0 42 -17 71.5t-47 44.5t-71 15q-45 0 -77.5 -18t-50 -50t-17.5 -74q0 -35 15.5 -66t46.5 -49.5t76 -18.5z" glyph-name="nine" horiz-adv-x="609" unicode="9"/><glyph d="M98 -10q-25 0 -41.5 15.5t-16.5 40.5q0 34 20 54t48 20q25 0 41.5 -15.5t16.5 -40.5q0 -34 -19.5 -54t-48.5 -20zM188 380q-25 0 -41.5 15.5t-16.5 40.5q0 34 20 54t48 20q25 0 41.5 -15.5t16.5 -40.5q0 -34 -19.5 -54t-48.5 -20z" glyph-name="colon" horiz-adv-x="296" unicode=":"/><glyph d="M108 120q30 0 48 -22.5t18 -58.5q0 -38 -19.5 -77.5t-56.5 -69.5t-89 -41l-25 48q39 6 65.5 20t42.5 34.5t23 44.5l-1 1q-5 -4 -10.5 -5.5t-16.5 -1.5q-24 0 -36.5 17.5t-12.5 38.5q0 32 20.5 52t49.5 20zM198 510q25 0 41.5 -15.5t16.5 -40.5q0 -34 -20 -54t-48 -20 q-25 0 -41.5 15.5t-16.5 40.5q0 34 19.5 54t48.5 20z" glyph-name="semicolon" horiz-adv-x="296" unicode=";"/><glyph d="M621 571l-20 -84l-459 -189l372 -193l-18 -77l-424 225l21 93z" glyph-name="less" unicode="&lt;"/><glyph d="M584 441l-17 -75h-476l17 75h476zM538 241l-17 -75h-476l17 75h476z" glyph-name="equal" unicode="="/><glyph d="M6 28l20 84l459 189l-372 193l18 77l424 -225l-21 -93z" glyph-name="greater" unicode="&gt;"/><glyph d="M203 208l35 146q67 0 116 13t76 43.5t27 83.5q0 51 -37 75t-92 24q-66 0 -108.5 -31.5t-61.5 -83.5l-65 47q18 42 52 74.5t81 50.5t104 18q60 0 107 -20.5t74.5 -58.5t27.5 -91q0 -64 -30.5 -107.5t-83 -67.5t-118.5 -28l-21 -87h-83zM207 -10q-25 0 -41.5 15.5 t-16.5 40.5q0 34 20 54t48 20q25 0 41.5 -15.5t16.5 -40.5q0 -34 -19.5 -54t-48.5 -20z" glyph-name="question" horiz-adv-x="536" unicode="?"/><glyph d="M469 -196q-117 0 -208 48t-143 136t-52 208q0 102 33 187t93 147t141.5 96t179.5 34q91 0 161.5 -27t119.5 -75.5t74 -115t25 -145.5q0 -67 -17 -122t-46 -95.5t-66 -62.5t-78 -22q-33 0 -55.5 12.5t-32.5 35t-7 50.5q-22 -42 -66 -66.5t-91 -24.5q-52 0 -91.5 25 t-61.5 69.5t-22 102.5q0 56 17 104.5t47.5 85t72.5 57t91 20.5q39 0 70 -13.5t52 -38t29 -58.5l24 101h71l-76 -326q-2 -11 -3.5 -20t-1.5 -17q0 -27 13 -35t31 -8q27 0 51.5 17t44 49t31 77.5t11.5 102.5q0 71 -22.5 127t-65 95.5t-103 60.5t-136.5 21q-81 0 -149.5 -29 t-118.5 -82.5t-78 -128t-28 -165.5q0 -79 27 -141t73.5 -105t107.5 -65t128 -22q71 0 118 14.5t80 33.5l24 -52q-28 -14 -58 -27t-68.5 -20.5t-95.5 -7.5zM457 63q42 0 77 27.5t55.5 75t20.5 106.5q0 40 -14.5 69.5t-41 46t-62.5 16.5t-65.5 -15.5t-51 -43.5t-33.5 -65 t-12 -80q0 -44 15 -74.5t43.5 -46.5t68.5 -16z" glyph-name="at" horiz-adv-x="950" unicode="@"/><glyph d="M-35 0l402 660h99l96 -660h-79l-69 474l-14 100v0l-58 -96l-287 -478h-90zM132 189l17 75h346l-17 -75h-346z" glyph-name="A" horiz-adv-x="643" unicode="A"/><glyph d="M47 0l153 660h236q83 0 128.5 -40.5t45.5 -108.5q0 -47 -17.5 -85t-48.5 -63t-72 -35v-1q47 -7 76 -42.5t29 -82.5q0 -66 -32 -111t-88 -68t-130 -23h-280zM145 75h182q81 0 123.5 34t42.5 93q0 30 -13 50t-39 30t-65 10h-181zM212 367h167q47 0 80 17t50.5 47t17.5 69 q0 47 -31.5 66t-79.5 19h-153z" glyph-name="B" horiz-adv-x="645" unicode="B"/><glyph d="M363 -10q-77 0 -140.5 32t-101.5 95t-38 156q0 74 21.5 144.5t64.5 127.5t106.5 91t146.5 34q63 0 112 -20t83 -61t51 -104l-84 -28q-17 74 -59.5 106t-110.5 32q-60 0 -106 -27t-77 -71.5t-47 -99.5t-16 -112q0 -69 26.5 -118t72 -75.5t101.5 -26.5q66 0 104 27.5 t64 73.5l77 -37q-41 -63 -100 -101t-150 -38z" glyph-name="C" horiz-adv-x="674" unicode="C"/><glyph d="M47 0l153 660h191q85 0 145 -35t92.5 -96t32.5 -139q0 -83 -26.5 -154t-75.5 -124t-117.5 -82.5t-151.5 -29.5h-243zM144 75h158q63 0 113.5 24.5t86 67t54.5 97t19 114.5q0 59 -21 105.5t-64 74t-109 27.5h-118z" glyph-name="D" horiz-adv-x="706" unicode="D"/><glyph d="M47 0l153 660h453l-18 -75h-373l-49 -213h292l-17 -75h-292l-51 -222h389l-18 -75h-469z" glyph-name="E" horiz-adv-x="625" unicode="E"/><glyph d="M621 585h-358l-50 -213h298l-17 -75h-298l-69 -297h-80l153 660h439z" glyph-name="F" horiz-adv-x="585" unicode="F"/><glyph d="M343 -8q-70 0 -129 33.5t-94.5 97t-35.5 152.5q0 77 22.5 147.5t66 126.5t107.5 88.5t148 32.5q60 0 111.5 -17t89.5 -55.5t56 -104.5l-81 -28q-18 71 -65.5 101t-115.5 30q-62 0 -109.5 -26.5t-80 -71.5t-49 -100.5t-16.5 -113.5q0 -68 23.5 -116.5t66.5 -74t101 -25.5 q56 0 97 19.5t67 54.5t37 81l7 30h-206l17 75h277l-80 -328h-63l27 132l9 -11q-19 -41 -48 -70t-68 -44t-89 -15z" glyph-name="G" horiz-adv-x="707" unicode="G"/><glyph d="M709 660l-153 -660h-80l153 660h80zM280 660l-153 -660h-80l153 660h80zM599 372l-17 -75h-424l17 75h424z" glyph-name="H" horiz-adv-x="719" unicode="H"/><glyph d="M280 660l-153 -660h-80l153 660h80z" glyph-name="I" horiz-adv-x="290" unicode="I"/><glyph d="M214 -8q-52 0 -92 19t-63 53t-27 79t14 97l76 5q-17 -52 -12.5 -93t32.5 -64.5t79 -23.5q65 0 97 37.5t51 125.5l100 433h81l-105 -453q-14 -61 -41 -110t-72.5 -77t-117.5 -28z" glyph-name="J" horiz-adv-x="549" unicode="J"/><glyph d="M47 0l153 660h80l-78 -336l387 336h112l-315 -275l165 -385h-88l-139 331l-150 -129l-47 -202h-80z" glyph-name="K" horiz-adv-x="637" unicode="K"/><glyph d="M144 75h371l-18 -75h-450l153 660h80z" glyph-name="L" horiz-adv-x="586" unicode="L"/><glyph d="M47 0l153 660h115l49 -410l14 -153h1l81 151l238 412h129l-153 -660h-75l96 415l45 174h-1l-347 -589h-68l-72 589h-1l-32 -174l-96 -415h-76z" glyph-name="M" horiz-adv-x="837" unicode="M"/><glyph d="M47 0l153 660h96l164 -440l43 -132h1l21 106l108 466h76l-153 -660h-95l-167 442l-41 130h-1l-21 -106l-108 -466h-76z" glyph-name="N" horiz-adv-x="719" unicode="N"/><glyph d="M359 -10q-74 0 -136.5 33.5t-100 98.5t-37.5 158q0 77 22 147t64.5 124.5t106 86.5t145.5 32q74 0 135.5 -34t98.5 -98.5t37 -157.5q0 -76 -21.5 -146t-64 -125t-105 -87t-144.5 -32zM368 66q60 0 105 26t75.5 70.5t46 99.5t15.5 113q0 69 -25 118t-69 75t-103 26 q-60 0 -105.5 -26t-76.5 -70t-46.5 -99t-15.5 -114q0 -69 25 -118t69.5 -75t104.5 -26z" glyph-name="O" horiz-adv-x="742" unicode="O"/><glyph d="M47 0l153 660h192q99 0 155.5 -50t56.5 -131q0 -65 -32 -116t-90.5 -80t-136.5 -29h-192l17 75h194q53 0 87.5 20t52 53t17.5 72q0 50 -34 80.5t-101 30.5h-123l-136 -585h-80z" glyph-name="P" horiz-adv-x="610" unicode="P"/><glyph d="M474 -194q-39 0 -72 11t-58.5 31.5t-39.5 49.5t-14 65q0 14 2.5 28t6.5 29l75 17q-6 -16 -8.5 -31t-2.5 -29q0 -46 31.5 -69.5t86.5 -23.5q33 0 58.5 7.5t50.5 22.5l6 -79q-28 -16 -61 -22.5t-61 -6.5zM359 -10q-74 0 -136.5 33.5t-100 98.5t-37.5 158q0 77 22 147 t64.5 124.5t106 86.5t145.5 32q74 0 135.5 -34t98.5 -98.5t37 -157.5q0 -76 -21.5 -146t-64 -125t-105 -87t-144.5 -32zM368 66q60 0 105 26t75.5 70.5t46 99.5t15.5 113q0 69 -25 118t-69 75t-103 26q-60 0 -105.5 -26t-76.5 -70t-46.5 -99t-15.5 -114q0 -69 25 -118 t69.5 -75t104.5 -26z" glyph-name="Q" horiz-adv-x="742" unicode="Q"/><glyph d="M47 0l153 660h216q89 0 141.5 -47.5t52.5 -131.5q0 -56 -25.5 -100t-67 -71.5t-89.5 -36.5l-50 -7h-205l17 75h180q53 0 88 19.5t52 52t17 71.5q0 50 -34 75.5t-93 25.5h-137l-136 -585h-80zM469 0l-113 281l81 10l119 -291h-87z" glyph-name="R" horiz-adv-x="637" unicode="R"/><glyph d="M337 -8q-74 0 -133.5 22.5t-101 65.5t-63.5 107l80 40q17 -58 50 -93.5t78 -51t97 -15.5q49 0 82 16.5t49.5 43t16.5 56.5q0 37 -23.5 58t-68.5 34l-107 30q-51 15 -86.5 39t-54 57t-18.5 72q0 55 29.5 100t83 71.5t126.5 26.5q97 0 162 -40t93 -122l-80 -39 q-13 52 -41 79t-64 37t-75 10q-50 0 -84 -15t-50.5 -40t-16.5 -55q0 -34 26 -61.5t70 -40.5l119 -34q73 -21 108 -59.5t35 -94.5q0 -62 -32.5 -108t-86.5 -71t-119 -25z" glyph-name="S" horiz-adv-x="639" unicode="S"/><glyph d="M656 660l-18 -75h-223l-135 -585h-80l135 585h-227l18 75h530z" glyph-name="T" horiz-adv-x="592" unicode="T"/><glyph d="M325 -10q-87 0 -145.5 35t-80 101.5t-0.5 159.5l88 374h80l-90 -393q-15 -67 1 -112t55.5 -67.5t96.5 -22.5q80 0 126 50t65 134l95 411h80l-100 -434q-25 -106 -93 -171t-178 -65z" glyph-name="U" horiz-adv-x="693" unicode="U"/><glyph d="M700 660l-400 -660h-91l-91 660h81l58 -456l12 -131l66 130l277 457h88z" glyph-name="V" horiz-adv-x="628" unicode="V"/><glyph d="M166 0l-38 660h77l27 -577l275 577h98l18 -582l292 582h86l-343 -660h-101l-18 428l-1 149h-1l-66 -149l-208 -428h-97z" glyph-name="W" horiz-adv-x="939" unicode="W"/><glyph d="M-34 0l306 347l-129 313h88l101 -255l220 255h93l-282 -324l138 -336h-84l-113 277l-241 -277h-97z" glyph-name="X" horiz-adv-x="588" unicode="X"/><glyph d="M183 0l60 258l-133 402h86l72 -229l27 -98l75 104l176 223h96l-320 -409l-59 -251h-80z" glyph-name="Y" horiz-adv-x="562" unicode="Y"/><glyph d="M-3 0l17 73l490 512h-374l18 75h475l-17 -72l-492 -513h401l-18 -75h-500z" glyph-name="Z" horiz-adv-x="591" unicode="Z"/><glyph d="M408 660h-153l-176 -758h154l-17 -70h-228l208 898h228z" glyph-name="bracketleft" horiz-adv-x="344" unicode="["/><glyph d="M137 730h71l161 -800h-71z" glyph-name="backslash" horiz-adv-x="469" unicode="\"/><glyph d="M-49 -98h153l176 758h-154l17 70h228l-208 -898h-228z" glyph-name="bracketright" horiz-adv-x="345" unicode="]"/><glyph d="M51 355l302 375h76l128 -375h-76l-102 308l-242 -308h-86z" glyph-name="asciicircum" horiz-adv-x="560" unicode="^"/><glyph d="M459 -97l-17 -75h-539l17 75h539z" glyph-name="underscore" horiz-adv-x="539" unicode="_"/><glyph d="M364 750l45 -167h-61l-64 167h80z" glyph-name="grave" horiz-adv-x="500" unicode="`"/><glyph d="M251 -8q-58 0 -102 28t-69 77.5t-25 114.5q0 62 19 116t53 95t81 64t102 23q44 0 79 -15t58 -42.5t32 -65.5l26 113h80l-116 -500h-70l17 93q-24 -46 -68.5 -73.5t-96.5 -27.5zM272 60q35 0 66.5 18t56 49.5t38.5 74t14 91.5q0 45 -16.5 78.5t-46 51.5t-69.5 18 t-73 -17.5t-57 -48.5t-37.5 -72.5t-13.5 -89.5q0 -49 16 -83t46.5 -52t75.5 -18z" glyph-name="a" horiz-adv-x="616" unicode="a"/><glyph d="M372 508q54 0 97 -26t67.5 -75.5t24.5 -120.5q0 -63 -19.5 -116.5t-54 -94t-81 -63t-100.5 -22.5q-46 0 -81.5 16.5t-57.5 44.5t-30 62l-26 -113h-80l169 730h80l-72 -310q23 38 67 63t97 25zM305 59q36 0 68 17t56.5 47.5t38.5 72.5t14 92q0 51 -17.5 84.5t-47.5 50 t-68 16.5q-40 0 -73 -17.5t-57 -48.5t-37 -74t-13 -94q0 -65 34.5 -105.5t101.5 -40.5z" glyph-name="b" horiz-adv-x="616" unicode="b"/><glyph d="M277 -9q-69 0 -118.5 30.5t-75.5 82t-26 113.5q0 86 33 151.5t92 103t137 37.5q57 0 99.5 -20t69 -55t35.5 -79l-84 -20q-4 44 -34.5 74.5t-89.5 30.5q-38 0 -70.5 -16t-56.5 -45.5t-37 -70t-13 -90.5q0 -44 17 -80t49.5 -57t80.5 -21q39 0 73.5 20t48.5 59l78 -28 q-26 -58 -81.5 -89t-126.5 -31z" glyph-name="c" horiz-adv-x="538" unicode="c"/><glyph d="M251 -8q-58 0 -102 28t-69 77.5t-25 114.5q0 62 19 116t53 95t81 64t102 23q44 0 79 -15t58 -42.5t32 -65.5l79 343h80l-169 -730h-70l17 93q-24 -46 -68.5 -73.5t-96.5 -27.5zM271 60q36 0 68 18t56 49.5t38 74t14 91.5q0 45 -16.5 78.5t-46 51.5t-69.5 18t-73 -17.5 t-57 -48.5t-37.5 -72.5t-13.5 -89.5q0 -49 16 -83t46.5 -52t74.5 -18z" glyph-name="d" horiz-adv-x="616" unicode="d"/><glyph d="M276 -9q-69 0 -118.5 30t-75.5 81t-26 114q0 78 31 145t90.5 107.5t144.5 40.5q61 0 104.5 -25t66.5 -68.5t23 -98.5q0 -20 -3.5 -41.5t-10.5 -44.5h-407v70h372l-35 -28q3 12 4.5 24t1.5 23q0 36 -14.5 63t-41.5 42t-65 15q-49 0 -83.5 -19.5t-56 -52.5t-31 -73.5 t-9.5 -81.5q0 -45 18.5 -79.5t51.5 -54t78 -19.5q51 1 84 22t54 55l63 -42q-22 -32 -53 -55.5t-70.5 -36t-86.5 -12.5z" glyph-name="e" horiz-adv-x="572" unicode="e"/><glyph d="M70 0l137 593q12 50 35 81t57.5 46t80.5 15q28 0 52 -6.5t37 -17.5l-27 -65q-9 7 -26 12t-36 5q-42 0 -65 -20t-34 -71l-16 -72l-5 -26l-110 -474h-80zM68 431l16 69h336l-16 -69h-336z" glyph-name="f" horiz-adv-x="385" unicode="f"/><glyph d="M213 -215q-43 0 -80.5 11.5t-66 32.5t-47 50.5t-25.5 66.5l80 28q11 -56 43.5 -87.5t101.5 -31.5q38 0 72 13.5t60 47t39 94.5l25 113l13 12q-15 -55 -63 -89.5t-111 -34.5q-58 0 -104 29t-72 78.5t-26 108.5q0 63 19 114.5t53 89.5t80.5 58.5t100.5 20.5 q51 0 89.5 -19.5t61.5 -55t25 -83.5l-15 -8l36 156h80l-117 -499q-18 -77 -54.5 -124.5t-86.5 -69.5t-111 -22zM275 80q47 0 85 28t60.5 76.5t22.5 110.5q0 45 -16 77.5t-46 50.5t-71 18q-52 0 -92 -26.5t-63 -74t-23 -111.5q0 -65 38 -107t105 -42z" glyph-name="g" horiz-adv-x="613" unicode="g"/><glyph d="M31 0l169 730h80l-76 -330l-16 -7q14 39 42.5 65t66 39t78.5 13q56 0 96.5 -25t57.5 -71.5t2 -112.5l-70 -301h-80l70 302q15 65 -12.5 101.5t-86.5 36.5q-46 0 -81.5 -20.5t-60 -59.5t-38.5 -97l-61 -263h-80z" glyph-name="h" horiz-adv-x="600" unicode="h"/><glyph d="M218 596q-24 0 -39 14.5t-15 37.5q0 31 18.5 49.5t44.5 18.5q24 0 39 -14.5t15 -37.5q0 -31 -18.5 -49.5t-44.5 -18.5zM227 500l-116 -500h-80l116 500h80z" glyph-name="i" horiz-adv-x="258" unicode="i"/><glyph d="M218 596q-24 0 -39 14.5t-15 37.5q0 31 18.5 49.5t44.5 18.5q24 0 39 -14.5t15 -37.5q0 -31 -18.5 -49.5t-44.5 -18.5zM-53 -215q-30 0 -59.5 9t-46.5 27l28 72q14 -12 33.5 -20t38.5 -8q28 0 46.5 16t28.5 62l131 557h80l-134 -578q-16 -71 -57.5 -104t-88.5 -33z" glyph-name="j" horiz-adv-x="258" unicode="j"/><glyph d="M568 500l-261 -217l-17 -11l-194 -162l15 102l345 288h112zM280 730l-169 -730h-80l169 730h80zM322 325l142 -325h-87l-120 282z" glyph-name="k" horiz-adv-x="545" unicode="k"/><glyph d="M168 -7q-69 0 -96 41.5t-11 108.5l136 587h80l-137 -590q-10 -41 6 -59t55 -18q15 0 26 1t21 3l-20 -64q-16 -6 -29 -8t-31 -2z" glyph-name="l" horiz-adv-x="303" unicode="l"/><glyph d="M31 0l116 500h70l-19 -112l-10 5q20 59 72 88t113 29q54 0 92.5 -25t54.5 -72t0 -114l-70 -299h-80l70 300q16 66 -9.5 103t-80.5 37q-46 0 -81.5 -20.5t-59 -59.5t-37.5 -97l-61 -263h-80zM710 0l69 300q15 66 -10 103t-80 37q-46 0 -81 -20.5t-59 -59.5t-38 -97 l-10 106q29 71 86.5 106t124.5 35q54 0 92.5 -25t54.5 -72t0 -114l-69 -299h-80z" glyph-name="m" horiz-adv-x="934" unicode="m"/><glyph d="M31 0l116 500h70l-19 -112l-10 5q20 59 73 88t114 29q58 0 98 -25t56.5 -71.5t1.5 -112.5l-70 -301h-80l70 302q15 65 -12.5 101.5t-86.5 36.5q-46 0 -81.5 -20.5t-60 -59.5t-38.5 -97l-61 -263h-80z" glyph-name="n" horiz-adv-x="600" unicode="n"/><glyph d="M282 -9q-72 0 -122.5 30.5t-77 82t-26.5 112.5q0 86 33 152t91 103.5t134 37.5q73 0 123 -30.5t76 -81t26 -112.5q0 -85 -32.5 -151.5t-90.5 -104.5t-134 -38zM285 60q36 0 67.5 15.5t55.5 45t37 70.5t13 91q0 44 -15.5 79.5t-48 57t-83.5 21.5q-36 0 -68 -15.5 t-55.5 -44.5t-37 -70t-13.5 -91q0 -43 16 -79.5t49 -58t83 -21.5z" glyph-name="o" horiz-adv-x="595" unicode="o"/><glyph d="M-17 -210l164 710h70l-22 -123l-13 -12q12 45 39.5 77t67.5 49t86 17q53 0 95 -26t66.5 -75t24.5 -117q0 -64 -19.5 -119t-54.5 -95.5t-81.5 -63t-101.5 -22.5q-49 0 -87 19.5t-60 55.5t-25 83l15 8l-84 -366h-80zM305 59q36 0 68 17t56.5 48.5t38.5 73.5t14 92 q0 48 -17 81.5t-47 50.5t-70 17q-39 0 -71.5 -17.5t-56.5 -48.5t-37.5 -74t-13.5 -94q0 -65 34.5 -105.5t101.5 -40.5z" glyph-name="p" horiz-adv-x="616" unicode="p"/><glyph d="M341 -210l74 320l6 3q-21 -55 -67.5 -88t-102.5 -33t-100.5 27.5t-70 77t-25.5 115.5q0 63 19.5 117.5t54 95t81 63t100.5 22.5q51 0 88 -19.5t59 -52t25 -73.5l-11 -11l34 146h80l-164 -710h-80zM271 60q37 0 69 18t56 49.5t37.5 74t13.5 91.5q0 45 -16.5 78.5t-46 51.5 t-69.5 18t-73 -17.5t-57 -48.5t-37.5 -72.5t-13.5 -89.5q0 -49 16.5 -83t47 -52t73.5 -18z" glyph-name="q" horiz-adv-x="616" unicode="q"/><glyph d="M31 0l116 500h65l-11 -115l-12 7q16 37 44 63.5t63.5 40.5t70.5 14q16 0 28.5 -2t22.5 -7l-24 -76q-10 5 -22.5 7.5t-29.5 2.5q-38 0 -71.5 -17.5t-58.5 -53.5t-38 -93l-63 -271h-80z" glyph-name="r" horiz-adv-x="388" unicode="r"/><glyph d="M252 -11q-58 0 -104.5 18t-79 51t-49.5 78l76 33q19 -55 59 -82.5t102 -27.5q53 0 80.5 23.5t27.5 57.5q0 26 -15 41t-47 24l-89 25q-62 17 -93 51.5t-31 79.5q0 42 23 75.5t66 53.5t102 20q71 0 125 -32t77 -93l-73 -35q-9 28 -28 48.5t-45.5 31.5t-60.5 11 q-55 0 -81.5 -20t-26.5 -53q0 -28 19.5 -44.5t48.5 -24.5l98 -28q51 -14 80.5 -46t29.5 -74q0 -50 -25 -86.5t-68 -56t-98 -19.5z" glyph-name="s" horiz-adv-x="512" unicode="s"/><glyph d="M235 -8q-48 0 -82 19t-48 55t-3 86l105 458l87 25l-114 -487q-10 -46 12.5 -65.5t56.5 -19.5q25 0 44 7t33 18l16 -66q-25 -17 -51 -23.5t-56 -6.5zM65 431l16 69h336l-16 -69h-336z" glyph-name="t" horiz-adv-x="402" unicode="t"/><glyph d="M228 -8q-54 0 -95.5 24.5t-60 71t-3.5 111.5l70 301h80l-69 -299q-16 -67 12.5 -103t86.5 -36q46 0 81 20t59 59t37 96l61 263h80l-116 -500h-70l19 112l10 -5q-20 -58 -70 -86.5t-112 -28.5z" glyph-name="u" horiz-adv-x="598" unicode="u"/><glyph d="M456 500h89l-313 -500h-81l-87 500h79l70 -440l-20 4z" glyph-name="v" horiz-adv-x="493" unicode="v"/><glyph d="M130 0l-54 500h77l38 -400l211 400h80l51 -406l216 406h85l-276 -500h-80l-55 397l-212 -397h-81z" glyph-name="w" horiz-adv-x="803" unicode="w"/><glyph d="M-31 0l263 278l20 16l187 206h98l-250 -269l-21 -20l-196 -211h-101zM345 0l-109 220l-10 18l-133 262h91l104 -212l4 -9l143 -279h-90z" glyph-name="x" horiz-adv-x="519" unicode="x"/><glyph d="M12 -215q-38 0 -65.5 9t-45.5 25l32 67q34 -31 76 -31q32 0 56.5 18t48.5 56l47 75l-88 496h79l46 -286l20 -125l70 117l177 294h91l-378 -598q-26 -41 -53.5 -67t-55.5 -38t-57 -12z" glyph-name="y" horiz-adv-x="504" unicode="y"/><glyph d="M1 0l15 65l329 318l55 50l-88 -2h-216l16 69h397l-16 -69l-303 -291l-78 -71h108h210l-16 -69h-413z" glyph-name="z" horiz-adv-x="513" unicode="z"/><glyph d="M185 -189q-78 0 -110.5 34.5t-19.5 89.5l48 207q13 56 -6.5 80t-65.5 24h-6l16 70h15q43 0 69.5 18t37.5 67l54 236q12 52 51 83t112 31h23l-14 -62h-1q-52 0 -72 -15.5t-28 -50.5l-53 -229q-10 -48 -42.5 -80.5t-79.5 -40.5q43 -10 60 -42.5t6 -81.5l-49 -212 q-7 -33 9.5 -49.5t59.5 -17.5h1l-14 -59h-1z" glyph-name="braceleft" horiz-adv-x="333" unicode="{"/><glyph d="M265 730l-208 -898h-69l208 898h69z" glyph-name="bar" horiz-adv-x="239" unicode="|"/><glyph d="M-56 -189l14 59v0q52 0 72.5 17.5t28.5 51.5l53 229q11 48 43 81t79 40q-43 11 -60 43t-6 81l48 209q8 33 -9 50t-61 17v0l15 62v0q53 0 84.5 -15.5t43.5 -43.5t3 -65l-48 -207q-13 -56 6.5 -80t65.5 -24h6l-16 -70h-15q-43 0 -69.5 -17.5t-37.5 -67.5l-54 -236 q-12 -52 -50.5 -83t-112.5 -31h-23z" glyph-name="braceright" horiz-adv-x="333" unicode="}"/><glyph d="M528 384q-14 -51 -39.5 -84t-58 -49t-66.5 -16q-33 0 -54 11t-38 26t-34.5 26t-42.5 11q-26 0 -47 -19t-32 -55h-76q14 51 39 84t58 49t68 16q32 0 53.5 -11t38 -26t34.5 -26t42 -11q26 0 47 18.5t32 55.5h76z" glyph-name="asciitilde" horiz-adv-x="540" unicode="~"/><glyph glyph-name="uni00A0" horiz-adv-x="336"/><glyph d="M166 292l-24 -166l-66 -286h-86l66 286l52 166h58zM174 510q25 0 41.5 -15.5t16.5 -40.5q0 -34 -20 -54t-48 -20q-25 0 -41.5 15.5t-16.5 40.5q0 34 19.5 54t48.5 20z" glyph-name="exclamdown" horiz-adv-x="264" unicode="¡"/><glyph d="M283 -9q-69 0 -118.5 30t-75.5 81t-26 113q0 86 33 152t92 104t137 38q57 0 99.5 -20t69 -55t35.5 -79l-80 -20q-4 44 -36.5 76.5t-91.5 32.5q-51 0 -92 -29t-65 -79.5t-24 -117.5q0 -44 17.5 -81t51.5 -59t82 -22q39 0 75.5 22t50.5 61l74 -28q-26 -58 -81.5 -89 t-126.5 -31zM184 -100l162 700h67l-162 -700h-67z" glyph-name="cent" horiz-adv-x="565" unicode="¢"/><glyph d="M88 278l15 65h366l-15 -65h-366zM412 -10q-44 0 -77 11.5t-59 28.5t-48 34t-44.5 28.5t-49.5 11.5q-19 0 -29 -8t-10 -22t9 -22t28 -8q26 0 48 23.5t36 62.5t14 85q0 30 -5.5 59.5t-12 58.5t-12 59t-5.5 60q0 65 30 114t79 77t106 28q51 0 91.5 -21t66 -58.5t29.5 -87.5 l-73 -22q-5 48 -33.5 82.5t-82.5 34.5q-44 0 -75 -21.5t-47 -55.5t-16 -74q0 -41 6 -76t11.5 -71t5.5 -82q0 -43 -12.5 -84t-35 -73.5t-54 -51.5t-69.5 -19q-41 0 -68.5 23t-27.5 57q0 37 30.5 64t82.5 27q35 0 62 -10.5t50 -26.5t45.5 -32t49 -26.5t60.5 -10.5 q39 0 59.5 24t31.5 78l64 -22q-11 -49 -32 -81.5t-50.5 -48.5t-66.5 -16z" glyph-name="sterling" horiz-adv-x="599" unicode="£"/><glyph d="M351 539q61 0 108.5 -27t74.5 -74.5t27 -108.5t-27 -108.5t-74.5 -75t-108.5 -27.5t-108.5 27.5t-75 75t-27.5 108.5t27.5 108.5t75 74.5t108.5 27zM351 467q-57 0 -94 -39t-37 -99q0 -61 37 -100t94 -39q56 0 93 39t37 100q0 60 -37 99t-93 39zM139 591l119 -117 l-51 -50l-119 116zM205 236l50 -51l-116 -119l-51 51zM494 233l119 -116l-51 -51l-119 116zM562 591l51 -51l-116 -119l-51 51z" glyph-name="currency" horiz-adv-x="665" unicode="¤"/><glyph d="M207 0l25 107h-172l13 55h172l17 75h-172l14 60h109l48 -4l-132 367h80l85 -243l26 -96h2l61 98l183 241h95l-293 -368l41 5h110l-14 -60h-173l-17 -75h173l-13 -55h-173l-25 -107h-70z" glyph-name="yen" horiz-adv-x="600" unicode="¥"/><glyph d="M265 730l-84 -363h-69l84 363h69zM141 195l-84 -363h-69l84 363h69z" glyph-name="brokenbar" horiz-adv-x="239" unicode="¦"/><glyph d="M255 -110q-54 0 -101.5 15t-83 45.5t-54.5 74.5l73 42q17 -46 60 -78t120 -32q64 0 97 26t33 67q0 32 -19 50t-71 32l-115 31q-82 22 -118 56t-36 92q0 35 17 62t47 43.5t69 19.5l35 -31q-49 -3 -72.5 -27t-23.5 -54q0 -31 22.5 -54t81.5 -39l122 -32q72 -19 106.5 -48.5 t34.5 -81.5q0 -48 -23.5 -89t-72.5 -65.5t-128 -24.5zM420 125l-20 38q30 0 51 9.5t32.5 28t11.5 43.5q0 29 -18.5 48t-72.5 34l-122 34q-45 13 -74 31t-42.5 45t-13.5 65q0 45 23.5 83.5t71 62t118.5 23.5q41 0 84 -11.5t81.5 -39t66.5 -75.5l-69 -41q-31 53 -72.5 75.5 t-100.5 22.5q-40 0 -67 -12t-41 -32t-14 -45q0 -37 18.5 -55.5t70.5 -33.5l123 -35q60 -17 91 -48t31 -80q0 -32 -15.5 -61.5t-48 -49.5t-83.5 -24z" glyph-name="section" horiz-adv-x="591" unicode="§"/><glyph d="M431 582q-22 0 -36 14t-14 35q0 30 18 47.5t44 17.5q22 0 36 -14t14 -35q0 -30 -18 -47.5t-44 -17.5zM237 582q-22 0 -36 14t-14 35q0 30 18 47.5t44 17.5q22 0 36 -14t14 -35q0 -30 -18 -47.5t-44 -17.5z" glyph-name="dieresis" horiz-adv-x="500" unicode="¨"/><glyph d="M422 -10q-102 0 -179 45t-120 122t-43 173q0 97 43 173.5t120 121.5t179 45t179 -44.5t120 -121.5t43 -174q0 -96 -43 -173t-120 -122t-179 -45zM422 55q81 0 142 36.5t95 99t34 139.5t-34 139.5t-95 99t-142 36.5q-80 0 -141.5 -36.5t-95.5 -99t-34 -139.5t34 -139.5 t95.5 -99t141.5 -36.5zM429 143q-85 0 -133.5 49.5t-48.5 135.5t48.5 135.5t133.5 49.5q59 0 98 -25.5t58 -69.5l-58 -29q-13 32 -37 48t-62 16q-53 0 -83.5 -33t-30.5 -92t30.5 -92t83.5 -33q40 0 66.5 16.5t39.5 50.5l55 -22q-19 -49 -59 -77t-101 -28z" glyph-name="copyright" horiz-adv-x="807" unicode="©"/><glyph d="M184 327q-50 0 -83 38.5t-33 101.5q0 43 12.5 79.5t35.5 63t54 41.5t68 15q27 0 48.5 -12.5t34 -37t10.5 -61.5l-16 -26l33 131h65l-77 -324h-57l37 164l-4 -61q-17 -57 -53 -84.5t-75 -27.5zM25 201l12 53h283l-12 -53h-283zM208 382q32 0 54 21t33 54.5t11 68.5 q0 37 -18.5 61t-49.5 24q-35 0 -57.5 -21t-33.5 -54t-11 -69q0 -37 18.5 -61t53.5 -24z" glyph-name="ordfeminine" horiz-adv-x="355" unicode="ª"/><glyph d="M312 461l-197 -222l4 57l92 -227h-78l-81 196l172 196h88zM489 461l-197 -222l4 57l92 -227h-78l-81 196l172 196h88z" glyph-name="guillemotleft" horiz-adv-x="490" unicode="«"/><glyph d="M561 319l-43 -188h-80l43 188h80zM569 354l-17 -75h-486l17 75h486z" glyph-name="logicalnot" unicode="¬"/><glyph d="M432 303l-19 -83h-330l19 83h330z" glyph-name="uni00AD" horiz-adv-x="510" unicode="­"/><glyph d="M423 670q104 0 181 -42t119 -118.5t42 -179.5t-42 -179.5t-119 -118.5t-181 -42t-181 42t-119 118.5t-42 179.5t42 179.5t119 118.5t181 42zM361 513v-370h-67v370h67zM473 316l121 -173h-76l-100 150zM423 605q-82 0 -143 -34t-94.5 -95.5t-33.5 -145.5t33.5 -145.5 t94.5 -95.5t143 -34q83 0 143.5 34t94 95.5t33.5 145.5t-33.5 145.5t-94 95.5t-143.5 34zM446 513q42 0 73.5 -14.5t49 -40.5t17.5 -63q0 -55 -39 -86.5t-101 -31.5h-111v51h110q36 0 55 16.5t19 50.5t-19 50.5t-55 16.5h-110v51h111z" glyph-name="registered" horiz-adv-x="809" unicode="®"/><glyph d="M502 663l-15 -67h-314l15 67h314z" glyph-name="macron" horiz-adv-x="500" unicode="¯"/><glyph d="M281 340q-49 0 -87.5 21.5t-60.5 58.5t-22 85t22 85.5t60.5 58.5t87.5 21q50 0 88 -21t60 -58.5t22 -85.5t-22 -85t-60 -58.5t-88 -21.5zM281 405q44 0 72 28.5t28 71.5q0 44 -28 72t-72 28q-43 0 -71.5 -28t-28.5 -72q0 -43 28.5 -71.5t71.5 -28.5z" glyph-name="degree" horiz-adv-x="444" unicode="°"/><glyph d="M430 640l-112 -486h-75l112 486h75zM587 434l-17 -75h-486l17 75h486zM505 75l-18 -75h-486l18 75h486z" glyph-name="plusminus" unicode="±"/><glyph d="M75 333l13 55q47 30 90.5 57.5t78 54.5t54.5 55t20 59q0 35 -18 49t-46 14q-37 0 -61 -24t-32 -65l-60 35q14 50 53.5 81t101.5 31q63 0 97.5 -33t34.5 -78q0 -40 -21 -73.5t-54 -62t-72 -53t-75 -46.5v-1q11 1 28 1.5t26 0.5h143l-13 -57h-288z" glyph-name="uni00B2" horiz-adv-x="368" unicode="²"/><glyph d="M215 327q-61 0 -101.5 30.5t-51.5 83.5l71 16q5 -32 25 -52t58 -20q35 0 54.5 20.5t19.5 47.5q0 26 -18.5 39.5t-53.5 13.5h-8t-9 -1l13 56q5 -1 11.5 -1.5t13.5 -0.5q35 0 55 17t20 46t-19 42t-46 13q-30 0 -50.5 -14.5t-29.5 -42.5l-62 29q17 41 55 63.5t91 22.5 q57 0 94 -27t37 -75q0 -42 -25.5 -71t-68.5 -32l-1 -1q32 -4 52 -23.5t20 -54.5q0 -39 -20.5 -67t-53.5 -42.5t-72 -14.5z" glyph-name="uni00B3" horiz-adv-x="346" unicode="³"/><glyph d="M409 750h96l-143 -167h-75z" glyph-name="acute" horiz-adv-x="600" unicode="´"/><glyph d="M-17 -210l164 710h80l-69 -299q-16 -67 12.5 -103t86.5 -36q46 0 81 20t59 59t37 96l61 263h80l-116 -500h-70l12 72q-25 -40 -67 -60t-90 -20q-34 0 -67.5 13t-53.5 44v0l-60 -259h-80z" glyph-name="uni00B5" horiz-adv-x="606" unicode="µ"/><glyph d="M213 -100l67 291q-46 3 -83 19t-63.5 43t-40 63t-13.5 78q0 87 36 146t101.5 89.5t154.5 30.5h289l-176 -760h-70l160 693h-129l-160 -693h-73zM296 258l77 335h-34q-52 0 -94.5 -21.5t-67.5 -63.5t-25 -106q0 -61 38.5 -102.5t105.5 -41.5z" glyph-name="paragraph" horiz-adv-x="657" unicode="¶"/><glyph d="M131 290q-25 0 -41.5 15.5t-16.5 40.5q0 34 20 54t48 20q25 0 41.5 -15.5t16.5 -40.5q0 -34 -19.5 -54t-48.5 -20z" glyph-name="periodcentered" horiz-adv-x="223" unicode="·"/><glyph d="M140 6l46 23q44 -19 67.5 -48t23.5 -71q0 -41 -18.5 -69t-48 -42t-63.5 -14q-35 0 -62.5 14t-39.5 30l32 50q14 -16 33 -23.5t40 -7.5q29 0 47 18.5t18 46.5q0 32 -19 53t-56 40z" glyph-name="cedilla" horiz-adv-x="500" unicode="¸"/><glyph d="M146 333l60 255q3 13 7 27.5t7.5 25t3.5 11.5q-21 -17 -55 -31.5t-63 -19.5l4 65q20 4 46.5 14t51.5 23.5t40 25.5h60l-92 -396h-70z" glyph-name="uni00B9" horiz-adv-x="253" unicode="¹"/><glyph d="M218 327q-63 0 -102 38.5t-39 101.5q0 54 21.5 99.5t61 72.5t92.5 27q63 0 102 -38t39 -101q0 -51 -21.5 -97t-61 -74.5t-92.5 -28.5zM25 201l12 53h283l-12 -53h-283zM222 382q34 0 56.5 21t34 54.5t11.5 68.5q0 37 -19 61t-57 24q-34 0 -56.5 -21t-34 -54t-11.5 -69 q0 -37 19 -61t57 -24z" glyph-name="ordmasculine" horiz-adv-x="355" unicode="º"/><glyph d="M8 69l197 222l-4 -57l-92 227h78l81 -196l-172 -196h-88zM185 69l197 222l-4 -57l-92 227h78l81 -196l-172 -196h-88z" glyph-name="guillemotright" horiz-adv-x="491" unicode="»"/><glyph d="M131 268l60 255q3 13 7 27.5t7.5 25t3.5 11.5q-21 -17 -55 -31.5t-63 -19.5l4 65q20 4 46.5 14t51.5 23.5t40 25.5h60l-92 -396h-70zM51 0l618 660h87l-619 -660h-86zM590 -4l23 99h-176l11 52q9 11 15 18t12.5 15t18.5 22l163 191h84l-59 -248h77l-10 -50h-77l-23 -99 h-59zM512 145h111l45 184l-132 -159q-7 -7 -13 -13.5t-11 -11.5z" glyph-name="onequarter" horiz-adv-x="794" unicode="¼"/><glyph d="M131 268l60 255q3 13 7 27.5t7.5 25t3.5 11.5q-21 -17 -55 -31.5t-63 -19.5l4 65q20 4 46.5 14t51.5 23.5t40 25.5h60l-92 -396h-70zM51 0l618 660h87l-619 -660h-86zM514 -4l13 55q47 30 90.5 57.5t78 54.5t54.5 55t20 59q0 35 -18 49t-46 14q-37 0 -61 -24t-32 -65 l-60 35q14 50 53.5 81t101.5 31q63 0 97.5 -33t34.5 -78q0 -40 -21 -73.5t-54 -62t-72 -53t-75 -46.5v-1q11 1 28 1.5t26 0.5h143l-13 -57h-288z" glyph-name="onehalf" horiz-adv-x="885" unicode="½"/><glyph d="M200 262q-61 0 -101.5 30.5t-51.5 83.5l71 16q5 -32 25 -52t58 -20q35 0 54.5 20.5t19.5 47.5q0 26 -18.5 39.5t-53.5 13.5h-8t-9 -1l13 56q5 -1 11.5 -1.5t13.5 -0.5q35 0 55 17t20 46t-19 42t-46 13q-30 0 -50.5 -14.5t-29.5 -42.5l-62 29q17 41 55 63.5t91 22.5 q57 0 94 -27t37 -75q0 -42 -25.5 -71t-68.5 -32l-1 -1q32 -4 52 -23.5t20 -54.5q0 -39 -20.5 -67t-53.5 -42.5t-72 -14.5zM144 0l618 660h87l-619 -660h-86zM683 -4l23 99h-176l11 52q9 11 15 18t12.5 15t18.5 22l163 191h84l-59 -248h77l-10 -50h-77l-23 -99h-59zM605 145 h111l45 184l-132 -159q-7 -7 -13 -13.5t-11 -11.5z" glyph-name="threequarters" horiz-adv-x="887" unicode="¾"/><glyph d="M334 292l-35 -146q-67 0 -116 -13t-76 -43.5t-27 -83.5q0 -51 37 -75t92 -24q66 0 108.5 31.5t61.5 83.5l65 -47q-18 -42 -52 -74.5t-81 -50.5t-104 -18q-60 0 -107 20.5t-74.5 58.5t-27.5 91q0 64 30.5 107.5t83 67.5t118.5 28l21 87h83zM330 510q25 0 41.5 -15.5 t16.5 -40.5q0 -34 -20 -54t-48 -20q-25 0 -41.5 15.5t-16.5 40.5q0 34 19.5 54t48.5 20z" glyph-name="questiondown" horiz-adv-x="528" unicode="¿"/><glyph d="M-35 0l402 660h99l96 -660h-79l-69 474l-14 100v0l-58 -96l-287 -478h-90zM132 189l17 75h346l-17 -75h-346zM435 902l40 -159h-57l-65 159h82z" glyph-name="Agrave" horiz-adv-x="643" unicode="À"/><glyph d="M-35 0l402 660h99l96 -660h-79l-69 474l-14 100v0l-58 -96l-287 -478h-90zM132 189l17 75h346l-17 -75h-346zM473 902h93l-121 -159h-68z" glyph-name="Aacute" horiz-adv-x="643" unicode="Á"/><glyph d="M-35 0l402 660h99l96 -660h-79l-69 474l-14 100v0l-58 -96l-287 -478h-90zM132 189l17 75h346l-17 -75h-346zM506 902l73 -159h-68l-57 106l-103 -106h-80l147 159h88z" glyph-name="Acircumflex" horiz-adv-x="643" unicode="Â"/><glyph d="M-35 0l402 660h99l96 -660h-79l-69 474l-14 100v0l-58 -96l-287 -478h-90zM132 189l17 75h346l-17 -75h-346zM624 877q-11 -65 -45.5 -99.5t-78.5 -34.5q-26 0 -44 10.5t-31 24t-25 24t-27 10.5q-18 0 -32.5 -19t-22.5 -51h-63q11 65 45.5 99.5t78.5 34.5q26 0 44 -10.5 t31 -24t25 -24t27 -10.5q18 0 32.5 19t22.5 51h63z" glyph-name="Atilde" horiz-adv-x="643" unicode="Ã"/><glyph d="M-35 0l402 660h99l96 -660h-79l-69 474l-14 100v0l-58 -96l-287 -478h-90zM132 189l17 75h346l-17 -75h-346zM530 742q-22 0 -36 14t-14 35q0 30 18 47.5t44 17.5q22 0 36 -14t14 -35q0 -30 -18 -47.5t-44 -17.5zM336 742q-22 0 -36 14t-14 35q0 30 18 47.5t44 17.5 q22 0 36 -14t14 -35q0 -30 -18 -47.5t-44 -17.5z" glyph-name="Adieresis" horiz-adv-x="643" unicode="Ä"/><glyph d="M-35 0l402 660h99l96 -660h-79l-69 474l-14 100v0l-58 -96l-287 -478h-90zM132 189l17 75h346l-17 -75h-346zM430 847q51 0 84 -31.5t33 -76.5q0 -56 -36.5 -92.5t-91.5 -36.5q-51 0 -84 31.5t-33 76.5q0 56 36.5 92.5t91.5 36.5zM429 797q-30 0 -51 -20t-21 -54 q0 -27 19 -45t46 -18q29 0 49.5 20t20.5 54q0 27 -17 45t-46 18z" glyph-name="Aring" horiz-adv-x="643" unicode="Å"/><glyph d="M-52 0l525 660h491l-18 -75h-346l-50 -213h264l-17 -75h-264l-52 -222h363l-18 -75h-442l49 213h-222l-168 -213h-95zM271 288h180l69 297h-14z" glyph-name="AE" horiz-adv-x="935" unicode="Æ"/><glyph d="M363 -10q-77 0 -140.5 32t-101.5 95t-38 156q0 74 21.5 144.5t64.5 127.5t106.5 91t146.5 34q63 0 112 -20t83 -61t51 -104l-84 -28q-17 74 -59.5 106t-110.5 32q-60 0 -106 -27t-77 -71.5t-47 -99.5t-16 -112q0 -69 26.5 -118t72 -75.5t101.5 -26.5q66 0 104 27.5 t64 73.5l77 -37q-41 -63 -100 -101t-150 -38zM300 6l46 23q44 -19 67.5 -48t23.5 -71q0 -41 -18.5 -69t-48 -42t-63.5 -14q-35 0 -62.5 14t-39.5 30l32 50q14 -16 33 -23.5t40 -7.5q29 0 47 18.5t18 46.5q0 32 -19 53t-56 40z" glyph-name="Ccedilla" horiz-adv-x="674" unicode="Ç"/><glyph d="M47 0l153 660h453l-18 -75h-373l-49 -213h292l-17 -75h-292l-51 -222h389l-18 -75h-469zM435 902l40 -159h-57l-65 159h82z" glyph-name="Egrave" horiz-adv-x="625" unicode="È"/><glyph d="M47 0l153 660h453l-18 -75h-373l-49 -213h292l-17 -75h-292l-51 -222h389l-18 -75h-469zM485 902h93l-121 -159h-68z" glyph-name="Eacute" horiz-adv-x="625" unicode="É"/><glyph d="M47 0l153 660h453l-18 -75h-373l-49 -213h292l-17 -75h-292l-51 -222h389l-18 -75h-469zM518 902l73 -159h-68l-57 106l-103 -106h-80l147 159h88z" glyph-name="Ecircumflex" horiz-adv-x="625" unicode="Ê"/><glyph d="M47 0l153 660h453l-18 -75h-373l-49 -213h292l-17 -75h-292l-51 -222h389l-18 -75h-469zM542 742q-22 0 -36 14t-14 35q0 30 18 47.5t44 17.5q22 0 36 -14t14 -35q0 -30 -18 -47.5t-44 -17.5zM348 742q-22 0 -36 14t-14 35q0 30 18 47.5t44 17.5q22 0 36 -14t14 -35 q0 -30 -18 -47.5t-44 -17.5z" glyph-name="Edieresis" horiz-adv-x="625" unicode="Ë"/><glyph d="M280 660l-153 -660h-80l153 660h80zM248 902l40 -159h-57l-65 159h82z" glyph-name="Igrave" horiz-adv-x="290" unicode="Ì"/><glyph d="M280 660l-153 -660h-80l153 660h80zM318 902h93l-121 -159h-68z" glyph-name="Iacute" horiz-adv-x="290" unicode="Í"/><glyph d="M280 660l-153 -660h-80l153 660h80zM338 902l73 -159h-68l-57 106l-103 -106h-80l147 159h88z" glyph-name="Icircumflex" horiz-adv-x="290" unicode="Î"/><glyph d="M352 742q-22 0 -36 14t-14 35q0 30 18 47.5t44 17.5q22 0 36 -14t14 -35q0 -30 -18 -47.5t-44 -17.5zM178 742q-22 0 -36 14t-14 35q0 30 18 47.5t44 17.5q22 0 36 -14t14 -35q0 -30 -18 -47.5t-44 -17.5zM280 660l-153 -660h-80l153 660h80z" glyph-name="Idieresis" horiz-adv-x="290" unicode="Ï"/><glyph d="M27 296l17 75h375l-17 -75h-375zM66 0l153 660h191q85 0 145 -35t92.5 -96t32.5 -139q0 -83 -26.5 -154t-75.5 -124t-117.5 -82.5t-151.5 -29.5h-243zM163 75h158q63 0 113.5 24.5t86 67t54.5 97t19 114.5q0 59 -21 105.5t-64 74t-109 27.5h-118z" glyph-name="Eth" horiz-adv-x="725" unicode="Ð"/><glyph d="M47 0l153 660h96l164 -440l43 -132h1l21 106l108 466h76l-153 -660h-95l-167 442l-41 130h-1l-21 -106l-108 -466h-76zM663 877q-11 -65 -45.5 -99.5t-78.5 -34.5q-26 0 -44 10.5t-31 24t-25 24t-27 10.5q-18 0 -32.5 -19t-22.5 -51h-63q11 65 45.5 99.5t78.5 34.5 q26 0 44 -10.5t31 -24t25 -24t27 -10.5q18 0 32.5 19t22.5 51h63z" glyph-name="Ntilde" horiz-adv-x="719" unicode="Ñ"/><glyph d="M359 -10q-74 0 -136.5 33.5t-100 98.5t-37.5 158q0 77 22 147t64.5 124.5t106 86.5t145.5 32q74 0 135.5 -34t98.5 -98.5t37 -157.5q0 -76 -21.5 -146t-64 -125t-105 -87t-144.5 -32zM368 66q60 0 105 26t75.5 70.5t46 99.5t15.5 113q0 69 -25 118t-69 75t-103 26 q-60 0 -105.5 -26t-76.5 -70t-46.5 -99t-15.5 -114q0 -69 25 -118t69.5 -75t104.5 -26zM452 902l40 -159h-57l-65 159h82z" glyph-name="Ograve" horiz-adv-x="742" unicode="Ò"/><glyph d="M359 -10q-74 0 -136.5 33.5t-100 98.5t-37.5 158q0 77 22 147t64.5 124.5t106 86.5t145.5 32q74 0 135.5 -34t98.5 -98.5t37 -157.5q0 -76 -21.5 -146t-64 -125t-105 -87t-144.5 -32zM368 66q60 0 105 26t75.5 70.5t46 99.5t15.5 113q0 69 -25 118t-69 75t-103 26 q-60 0 -105.5 -26t-76.5 -70t-46.5 -99t-15.5 -114q0 -69 25 -118t69.5 -75t104.5 -26zM502 902h93l-121 -159h-68z" glyph-name="Oacute" horiz-adv-x="742" unicode="Ó"/><glyph d="M359 -10q-74 0 -136.5 33.5t-100 98.5t-37.5 158q0 77 22 147t64.5 124.5t106 86.5t145.5 32q74 0 135.5 -34t98.5 -98.5t37 -157.5q0 -76 -21.5 -146t-64 -125t-105 -87t-144.5 -32zM368 66q60 0 105 26t75.5 70.5t46 99.5t15.5 113q0 69 -25 118t-69 75t-103 26 q-60 0 -105.5 -26t-76.5 -70t-46.5 -99t-15.5 -114q0 -69 25 -118t69.5 -75t104.5 -26zM535 902l73 -159h-68l-57 106l-103 -106h-80l147 159h88z" glyph-name="Ocircumflex" horiz-adv-x="742" unicode="Ô"/><glyph d="M359 -10q-74 0 -136.5 33.5t-100 98.5t-37.5 158q0 77 22 147t64.5 124.5t106 86.5t145.5 32q74 0 135.5 -34t98.5 -98.5t37 -157.5q0 -76 -21.5 -146t-64 -125t-105 -87t-144.5 -32zM368 66q60 0 105 26t75.5 70.5t46 99.5t15.5 113q0 69 -25 118t-69 75t-103 26 q-60 0 -105.5 -26t-76.5 -70t-46.5 -99t-15.5 -114q0 -69 25 -118t69.5 -75t104.5 -26zM653 877q-11 -65 -45.5 -99.5t-78.5 -34.5q-26 0 -44 10.5t-31 24t-25 24t-27 10.5q-18 0 -32.5 -19t-22.5 -51h-63q11 65 45.5 99.5t78.5 34.5q26 0 44 -10.5t31 -24t25 -24t27 -10.5 q18 0 32.5 19t22.5 51h63z" glyph-name="Otilde" horiz-adv-x="742" unicode="Õ"/><glyph d="M359 -10q-74 0 -136.5 33.5t-100 98.5t-37.5 158q0 77 22 147t64.5 124.5t106 86.5t145.5 32q74 0 135.5 -34t98.5 -98.5t37 -157.5q0 -76 -21.5 -146t-64 -125t-105 -87t-144.5 -32zM368 66q60 0 105 26t75.5 70.5t46 99.5t15.5 113q0 69 -25 118t-69 75t-103 26 q-60 0 -105.5 -26t-76.5 -70t-46.5 -99t-15.5 -114q0 -69 25 -118t69.5 -75t104.5 -26zM559 742q-22 0 -36 14t-14 35q0 30 18 47.5t44 17.5q22 0 36 -14t14 -35q0 -30 -18 -47.5t-44 -17.5zM365 742q-22 0 -36 14t-14 35q0 30 18 47.5t44 17.5q22 0 36 -14t14 -35 q0 -30 -18 -47.5t-44 -17.5z" glyph-name="Odieresis" horiz-adv-x="742" unicode="Ö"/><glyph d="M88 97l-45 59l472 382l45 -59zM424 97l-303 395l58 46l303 -395z" glyph-name="multiply" unicode="×"/><glyph d="M216 94l-40 42l386 430l37 -45zM44 -12l132 148l40 -42l-95 -106h-77zM599 521l-37 45l97 108h78zM359 -10q-74 0 -136.5 33.5t-100 98.5t-37.5 158q0 77 22 147t64.5 124.5t106 86.5t145.5 32q74 0 135.5 -34t98.5 -98.5t37 -157.5q0 -76 -21.5 -146t-64 -125t-105 -87 t-144.5 -32zM368 66q60 0 105 26t75.5 70.5t46 99.5t15.5 113q0 69 -25 118t-69 75t-103 26q-60 0 -105.5 -26t-76.5 -70t-46.5 -99t-15.5 -114q0 -69 25 -118t69.5 -75t104.5 -26z" glyph-name="Oslash" horiz-adv-x="742" unicode="Ø"/><glyph d="M325 -10q-87 0 -145.5 35t-80 101.5t-0.5 159.5l88 374h80l-90 -393q-15 -67 1 -112t55.5 -67.5t96.5 -22.5q80 0 126 50t65 134l95 411h80l-100 -434q-25 -106 -93 -171t-178 -65zM445 882l40 -159h-57l-65 159h82z" glyph-name="Ugrave" horiz-adv-x="693" unicode="Ù"/><glyph d="M325 -10q-87 0 -145.5 35t-80 101.5t-0.5 159.5l88 374h80l-90 -393q-15 -67 1 -112t55.5 -67.5t96.5 -22.5q80 0 126 50t65 134l95 411h80l-100 -434q-25 -106 -93 -171t-178 -65zM495 882h93l-121 -159h-68z" glyph-name="Uacute" horiz-adv-x="693" unicode="Ú"/><glyph d="M325 -10q-87 0 -145.5 35t-80 101.5t-0.5 159.5l88 374h80l-90 -393q-15 -67 1 -112t55.5 -67.5t96.5 -22.5q80 0 126 50t65 134l95 411h80l-100 -434q-25 -106 -93 -171t-178 -65zM528 882l73 -159h-68l-57 106l-103 -106h-80l147 159h88z" glyph-name="Ucircumflex" horiz-adv-x="693" unicode="Û"/><glyph d="M325 -10q-87 0 -145.5 35t-80 101.5t-0.5 159.5l88 374h80l-90 -393q-15 -67 1 -112t55.5 -67.5t96.5 -22.5q80 0 126 50t65 134l95 411h80l-100 -434q-25 -106 -93 -171t-178 -65zM552 722q-22 0 -36 14t-14 35q0 30 18 47.5t44 17.5q22 0 36 -14t14 -35 q0 -30 -18 -47.5t-44 -17.5zM358 722q-22 0 -36 14t-14 35q0 30 18 47.5t44 17.5q22 0 36 -14t14 -35q0 -30 -18 -47.5t-44 -17.5z" glyph-name="Udieresis" horiz-adv-x="693" unicode="Ü"/><glyph d="M183 0l60 258l-133 402h86l72 -229l27 -98l75 104l176 223h96l-320 -409l-59 -251h-80zM424 882h93l-121 -159h-68z" glyph-name="Yacute" horiz-adv-x="562" unicode="Ý"/><glyph d="M130 132l17 75h198q54 0 89 21.5t51.5 56.5t16.5 75q0 47 -35 75t-100 28h-163l20 75h149q99 0 155 -49.5t56 -130.5q0 -65 -31.5 -116.5t-87.5 -80.5t-129 -29h-206zM47 0l153 660h80l-153 -660h-80z" glyph-name="Thorn" horiz-adv-x="614" unicode="Þ"/><glyph d="M320 -10q-39 0 -72.5 9.5t-54.5 23.5l25 71q17 -13 44.5 -22t60.5 -9q45 0 75.5 22.5t45.5 58t15 74.5q0 58 -37 95t-108 37h-12t-12 -1l17 71q9 -1 18 -1.5t17 -0.5q53 0 88.5 18t53.5 50t18 74q0 33 -15 55t-40.5 33.5t-59.5 11.5q-61 0 -101 -37.5t-61 -130.5 l-114 -492h-80l121 525q26 109 89.5 159.5t152.5 50.5q59 0 100.5 -20t64 -56.5t22.5 -86.5t-23.5 -93.5t-62.5 -70t-87 -26.5v-2q31 -4 60 -24t48 -53.5t19 -80.5q0 -71 -28 -123.5t-76.5 -80.5t-110.5 -28z" glyph-name="germandbls" horiz-adv-x="595" unicode="ß"/><glyph d="M251 -8q-58 0 -102 28t-69 77.5t-25 114.5q0 62 19 116t53 95t81 64t102 23q44 0 79 -15t58 -42.5t32 -65.5l26 113h80l-116 -500h-70l17 93q-24 -46 -68.5 -73.5t-96.5 -27.5zM272 60q35 0 66.5 18t56 49.5t38.5 74t14 91.5q0 45 -16.5 78.5t-46 51.5t-69.5 18 t-73 -17.5t-57 -48.5t-37.5 -72.5t-13.5 -89.5q0 -49 16 -83t46.5 -52t75.5 -18zM341 750l45 -167h-61l-64 167h80z" glyph-name="agrave" horiz-adv-x="616" unicode="à"/><glyph d="M251 -8q-58 0 -102 28t-69 77.5t-25 114.5q0 62 19 116t53 95t81 64t102 23q44 0 79 -15t58 -42.5t32 -65.5l26 113h80l-116 -500h-70l17 93q-24 -46 -68.5 -73.5t-96.5 -27.5zM272 60q35 0 66.5 18t56 49.5t38.5 74t14 91.5q0 45 -16.5 78.5t-46 51.5t-69.5 18 t-73 -17.5t-57 -48.5t-37.5 -72.5t-13.5 -89.5q0 -49 16 -83t46.5 -52t75.5 -18zM418 750h96l-143 -167h-75z" glyph-name="aacute" horiz-adv-x="616" unicode="á"/><glyph d="M251 -8q-58 0 -102 28t-69 77.5t-25 114.5q0 62 19 116t53 95t81 64t102 23q44 0 79 -15t58 -42.5t32 -65.5l26 113h80l-116 -500h-70l17 93q-24 -46 -68.5 -73.5t-96.5 -27.5zM272 60q35 0 66.5 18t56 49.5t38.5 74t14 91.5q0 45 -16.5 78.5t-46 51.5t-69.5 18 t-73 -17.5t-57 -48.5t-37.5 -72.5t-13.5 -89.5q0 -49 16 -83t46.5 -52t75.5 -18zM185 576l152 167h90l76 -167h-69l-60 114l-111 -114h-78z" glyph-name="acircumflex" horiz-adv-x="616" unicode="â"/><glyph d="M251 -8q-58 0 -102 28t-69 77.5t-25 114.5q0 62 19 116t53 95t81 64t102 23q44 0 79 -15t58 -42.5t32 -65.5l26 113h80l-116 -500h-70l17 93q-24 -46 -68.5 -73.5t-96.5 -27.5zM272 60q35 0 66.5 18t56 49.5t38.5 74t14 91.5q0 45 -16.5 78.5t-46 51.5t-69.5 18 t-73 -17.5t-57 -48.5t-37.5 -72.5t-13.5 -89.5q0 -49 16 -83t46.5 -52t75.5 -18zM546 717q-11 -65 -45.5 -99.5t-78.5 -34.5q-26 0 -44 10.5t-31 24t-25 24t-27 10.5q-18 0 -32.5 -19t-22.5 -51h-63q11 65 45.5 99.5t78.5 34.5q26 0 44 -10.5t31 -24t25 -24t27 -10.5 q18 0 32.5 19t22.5 51h63z" glyph-name="atilde" horiz-adv-x="616" unicode="ã"/><glyph d="M251 -8q-58 0 -102 28t-69 77.5t-25 114.5q0 62 19 116t53 95t81 64t102 23q44 0 79 -15t58 -42.5t32 -65.5l26 113h80l-116 -500h-70l17 93q-24 -46 -68.5 -73.5t-96.5 -27.5zM272 60q35 0 66.5 18t56 49.5t38.5 74t14 91.5q0 45 -16.5 78.5t-46 51.5t-69.5 18 t-73 -17.5t-57 -48.5t-37.5 -72.5t-13.5 -89.5q0 -49 16 -83t46.5 -52t75.5 -18zM452 582q-22 0 -36 14t-14 35q0 30 18 47.5t44 17.5q22 0 36 -14t14 -35q0 -30 -18 -47.5t-44 -17.5zM258 582q-22 0 -36 14t-14 35q0 30 18 47.5t44 17.5q22 0 36 -14t14 -35 q0 -30 -18 -47.5t-44 -17.5z" glyph-name="adieresis" horiz-adv-x="616" unicode="ä"/><glyph d="M251 -8q-58 0 -102 28t-69 77.5t-25 114.5q0 62 19 116t53 95t81 64t102 23q44 0 79 -15t58 -42.5t32 -65.5l26 113h80l-116 -500h-70l17 93q-24 -46 -68.5 -73.5t-96.5 -27.5zM272 60q35 0 66.5 18t56 49.5t38.5 74t14 91.5q0 45 -16.5 78.5t-46 51.5t-69.5 18 t-73 -17.5t-57 -48.5t-37.5 -72.5t-13.5 -89.5q0 -49 16 -83t46.5 -52t75.5 -18zM375 813q51 0 84 -31.5t33 -76.5q0 -56 -36.5 -92.5t-91.5 -36.5q-51 0 -84 31.5t-33 76.5q0 56 36.5 92.5t91.5 36.5zM374 763q-30 0 -51 -20t-21 -54q0 -27 19 -45t46 -18q29 0 49.5 20 t20.5 54q0 27 -17 45t-46 18z" glyph-name="aring" horiz-adv-x="616" unicode="å"/><glyph d="M206 -10q-84 0 -124.5 40.5t-40.5 98.5q0 45 23.5 75t64.5 47.5t94 24.5l194 25l-3 -62l-163 -22q-58 -8 -92.5 -25.5t-34.5 -59.5q0 -35 22 -54.5t67 -19.5q65 0 104 36t53 100l26 115q2 9 3 17.5t1 15.5q0 44 -30 71t-81 27q-55 0 -91.5 -22t-62.5 -71l-58 41 q31 59 86.5 90t133.5 31q44 0 78.5 -15.5t55.5 -40t23 -52.5l-13 4q20 32 51 55t71 36t86 13q55 0 95 -25t61.5 -68.5t21.5 -98.5q0 -20 -3.5 -41.5t-10.5 -44.5h-370l9 70h296q1 5 1 10v9q0 36 -14 63t-38 42t-56 15q-51 0 -86 -20.5t-56.5 -54t-31 -74.5t-9.5 -82 q0 -44 17.5 -78t49.5 -52.5t74 -18.5q48 0 81 21t54 56l63 -42q-22 -32 -53 -55.5t-69 -36t-83 -12.5q-57 0 -100.5 22t-68 58t-24.5 77l16 12q-4 -43 -31.5 -82t-73 -63.5t-104.5 -24.5z" glyph-name="ae" horiz-adv-x="883" unicode="æ"/><glyph d="M277 -9q-69 0 -118.5 30.5t-75.5 82t-26 113.5q0 86 33 151.5t92 103t137 37.5q57 0 99.5 -20t69 -55t35.5 -79l-84 -20q-4 44 -34.5 74.5t-89.5 30.5q-38 0 -70.5 -16t-56.5 -45.5t-37 -70t-13 -90.5q0 -44 17 -80t49.5 -57t80.5 -21q39 0 73.5 20t48.5 59l78 -28 q-26 -58 -81.5 -89t-126.5 -31zM193 6l46 23q44 -19 67.5 -48t23.5 -71q0 -41 -18.5 -69t-48 -42t-63.5 -14q-35 0 -62.5 14t-39.5 30l32 50q14 -16 33 -23.5t40 -7.5q29 0 47 18.5t18 46.5q0 32 -19 53t-56 40z" glyph-name="ccedilla" horiz-adv-x="538" unicode="ç"/><glyph d="M276 -9q-69 0 -118.5 30t-75.5 81t-26 114q0 78 31 145t90.5 107.5t144.5 40.5q61 0 104.5 -25t66.5 -68.5t23 -98.5q0 -20 -3.5 -41.5t-10.5 -44.5h-407v70h372l-35 -28q3 12 4.5 24t1.5 23q0 36 -14.5 63t-41.5 42t-65 15q-49 0 -83.5 -19.5t-56 -52.5t-31 -73.5 t-9.5 -81.5q0 -45 18.5 -79.5t51.5 -54t78 -19.5q51 1 84 22t54 55l63 -42q-22 -32 -53 -55.5t-70.5 -36t-86.5 -12.5zM331 750l45 -167h-61l-64 167h80z" glyph-name="egrave" horiz-adv-x="572" unicode="è"/><glyph d="M276 -9q-69 0 -118.5 30t-75.5 81t-26 114q0 78 31 145t90.5 107.5t144.5 40.5q61 0 104.5 -25t66.5 -68.5t23 -98.5q0 -20 -3.5 -41.5t-10.5 -44.5h-407v70h372l-35 -28q3 12 4.5 24t1.5 23q0 36 -14.5 63t-41.5 42t-65 15q-49 0 -83.5 -19.5t-56 -52.5t-31 -73.5 t-9.5 -81.5q0 -45 18.5 -79.5t51.5 -54t78 -19.5q51 1 84 22t54 55l63 -42q-22 -32 -53 -55.5t-70.5 -36t-86.5 -12.5zM408 750h96l-143 -167h-75z" glyph-name="eacute" horiz-adv-x="572" unicode="é"/><glyph d="M276 -9q-69 0 -118.5 30t-75.5 81t-26 114q0 78 31 145t90.5 107.5t144.5 40.5q61 0 104.5 -25t66.5 -68.5t23 -98.5q0 -20 -3.5 -41.5t-10.5 -44.5h-407v70h372l-35 -28q3 12 4.5 24t1.5 23q0 36 -14.5 63t-41.5 42t-65 15q-49 0 -83.5 -19.5t-56 -52.5t-31 -73.5 t-9.5 -81.5q0 -45 18.5 -79.5t51.5 -54t78 -19.5q51 1 84 22t54 55l63 -42q-22 -32 -53 -55.5t-70.5 -36t-86.5 -12.5zM175 576l152 167h90l76 -167h-69l-60 114l-111 -114h-78z" glyph-name="ecircumflex" horiz-adv-x="572" unicode="ê"/><glyph d="M276 -9q-69 0 -118.5 30t-75.5 81t-26 114q0 78 31 145t90.5 107.5t144.5 40.5q61 0 104.5 -25t66.5 -68.5t23 -98.5q0 -20 -3.5 -41.5t-10.5 -44.5h-407v70h372l-35 -28q3 12 4.5 24t1.5 23q0 36 -14.5 63t-41.5 42t-65 15q-49 0 -83.5 -19.5t-56 -52.5t-31 -73.5 t-9.5 -81.5q0 -45 18.5 -79.5t51.5 -54t78 -19.5q51 1 84 22t54 55l63 -42q-22 -32 -53 -55.5t-70.5 -36t-86.5 -12.5zM442 582q-22 0 -36 14t-14 35q0 30 18 47.5t44 17.5q22 0 36 -14t14 -35q0 -30 -18 -47.5t-44 -17.5zM248 582q-22 0 -36 14t-14 35q0 30 18 47.5 t44 17.5q22 0 36 -14t14 -35q0 -30 -18 -47.5t-44 -17.5z" glyph-name="edieresis" horiz-adv-x="572" unicode="ë"/><glyph d="M227 500l-116 -500h-80l116 500h80zM198 750l45 -167h-61l-64 167h80z" glyph-name="igrave" horiz-adv-x="258" unicode="ì"/><glyph d="M227 500l-116 -500h-80l116 500h80zM275 750h96l-143 -167h-75z" glyph-name="iacute" horiz-adv-x="258" unicode="í"/><glyph d="M227 500l-116 -500h-80l116 500h80zM42 576l152 167h90l76 -167h-69l-60 114l-111 -114h-78z" glyph-name="icircumflex" horiz-adv-x="258" unicode="î"/><glyph d="M299 582q-22 0 -36 14t-14 35q0 30 18 47.5t44 17.5q22 0 36 -14t14 -35q0 -30 -18 -47.5t-44 -17.5zM125 582q-22 0 -36 14t-14 35q0 30 18 47.5t44 17.5q22 0 36 -14t14 -35q0 -30 -18 -47.5t-44 -17.5zM227 500l-116 -500h-80l116 500h80z" glyph-name="idieresis" horiz-adv-x="258" unicode="ï"/><glyph d="M267 -10q-68 0 -116 30t-73.5 81t-25.5 113q0 77 32.5 139t88.5 98t126 36q52 0 91.5 -18t62 -50t23.5 -75l-16 -1q1 10 1 19.5v19.5q0 70 -20 133t-65.5 117t-120.5 98h96q50 -22 86 -61.5t59 -89.5t34 -104.5t11 -107.5q0 -76 -17 -144.5t-51 -120.5t-85.5 -82 t-120.5 -30zM281 60q39 0 70.5 17.5t53.5 47.5t33.5 67t11.5 77q0 50 -20 82.5t-53.5 49t-75.5 16.5q-39 0 -70.5 -17t-53.5 -45.5t-33.5 -64.5t-11.5 -74q0 -46 18.5 -81t52.5 -55t78 -20zM253 536l-13 57l189 42l35 -47zM464 588l-34 47l161 42l16 -56z" glyph-name="eth" horiz-adv-x="598" unicode="ð"/><glyph d="M31 0l116 500h70l-19 -112l-10 5q20 59 73 88t114 29q58 0 98 -25t56.5 -71.5t1.5 -112.5l-70 -301h-80l70 302q15 65 -12.5 101.5t-86.5 36.5q-46 0 -81.5 -20.5t-60 -59.5t-38.5 -97l-61 -263h-80zM576 717q-11 -65 -45.5 -99.5t-78.5 -34.5q-26 0 -44 10.5t-31 24 t-25 24t-27 10.5q-18 0 -32.5 -19t-22.5 -51h-63q11 65 45.5 99.5t78.5 34.5q26 0 44 -10.5t31 -24t25 -24t27 -10.5q18 0 32.5 19t22.5 51h63z" glyph-name="ntilde" horiz-adv-x="600" unicode="ñ"/><glyph d="M282 -9q-72 0 -122.5 30.5t-77 82t-26.5 112.5q0 86 33 152t91 103.5t134 37.5q73 0 123 -30.5t76 -81t26 -112.5q0 -85 -32.5 -151.5t-90.5 -104.5t-134 -38zM285 60q36 0 67.5 15.5t55.5 45t37 70.5t13 91q0 44 -15.5 79.5t-48 57t-83.5 21.5q-36 0 -68 -15.5 t-55.5 -44.5t-37 -70t-13.5 -91q0 -43 16 -79.5t49 -58t83 -21.5zM334 750l45 -167h-61l-64 167h80z" glyph-name="ograve" horiz-adv-x="595" unicode="ò"/><glyph d="M282 -9q-72 0 -122.5 30.5t-77 82t-26.5 112.5q0 86 33 152t91 103.5t134 37.5q73 0 123 -30.5t76 -81t26 -112.5q0 -85 -32.5 -151.5t-90.5 -104.5t-134 -38zM285 60q36 0 67.5 15.5t55.5 45t37 70.5t13 91q0 44 -15.5 79.5t-48 57t-83.5 21.5q-36 0 -68 -15.5 t-55.5 -44.5t-37 -70t-13.5 -91q0 -43 16 -79.5t49 -58t83 -21.5zM411 750h96l-143 -167h-75z" glyph-name="oacute" horiz-adv-x="595" unicode="ó"/><glyph d="M282 -9q-72 0 -122.5 30.5t-77 82t-26.5 112.5q0 86 33 152t91 103.5t134 37.5q73 0 123 -30.5t76 -81t26 -112.5q0 -85 -32.5 -151.5t-90.5 -104.5t-134 -38zM285 60q36 0 67.5 15.5t55.5 45t37 70.5t13 91q0 44 -15.5 79.5t-48 57t-83.5 21.5q-36 0 -68 -15.5 t-55.5 -44.5t-37 -70t-13.5 -91q0 -43 16 -79.5t49 -58t83 -21.5zM178 576l152 167h90l76 -167h-69l-60 114l-111 -114h-78z" glyph-name="ocircumflex" horiz-adv-x="595" unicode="ô"/><glyph d="M282 -9q-72 0 -122.5 30.5t-77 82t-26.5 112.5q0 86 33 152t91 103.5t134 37.5q73 0 123 -30.5t76 -81t26 -112.5q0 -85 -32.5 -151.5t-90.5 -104.5t-134 -38zM285 60q36 0 67.5 15.5t55.5 45t37 70.5t13 91q0 44 -15.5 79.5t-48 57t-83.5 21.5q-36 0 -68 -15.5 t-55.5 -44.5t-37 -70t-13.5 -91q0 -43 16 -79.5t49 -58t83 -21.5zM539 717q-11 -65 -45.5 -99.5t-78.5 -34.5q-26 0 -44 10.5t-31 24t-25 24t-27 10.5q-18 0 -32.5 -19t-22.5 -51h-63q11 65 45.5 99.5t78.5 34.5q26 0 44 -10.5t31 -24t25 -24t27 -10.5q18 0 32.5 19t22.5 51 h63z" glyph-name="otilde" horiz-adv-x="595" unicode="õ"/><glyph d="M282 -9q-72 0 -122.5 30.5t-77 82t-26.5 112.5q0 86 33 152t91 103.5t134 37.5q73 0 123 -30.5t76 -81t26 -112.5q0 -85 -32.5 -151.5t-90.5 -104.5t-134 -38zM285 60q36 0 67.5 15.5t55.5 45t37 70.5t13 91q0 44 -15.5 79.5t-48 57t-83.5 21.5q-36 0 -68 -15.5 t-55.5 -44.5t-37 -70t-13.5 -91q0 -43 16 -79.5t49 -58t83 -21.5zM445 582q-22 0 -36 14t-14 35q0 30 18 47.5t44 17.5q22 0 36 -14t14 -35q0 -30 -18 -47.5t-44 -17.5zM251 582q-22 0 -36 14t-14 35q0 30 18 47.5t44 17.5q22 0 36 -14t14 -35q0 -30 -18 -47.5t-44 -17.5z" glyph-name="odieresis" horiz-adv-x="595" unicode="ö"/><glyph d="M569 354l-17 -75h-486l17 75h486zM267 55q-25 0 -41.5 15.5t-16.5 40.5q0 34 20 54t48 20q25 0 41.5 -15.5t16.5 -40.5q0 -34 -19.5 -54t-48.5 -20zM357 446q-25 0 -41.5 15.5t-16.5 40.5q0 34 20 54t48 20q25 0 41.5 -15.5t16.5 -40.5q0 -34 -19.5 -54t-48.5 -20z" glyph-name="divide" unicode="÷"/><glyph d="M282 -9q-72 0 -122.5 30.5t-77 82t-26.5 112.5q0 86 33 152t91 103.5t134 37.5q73 0 123 -30.5t76 -81t26 -112.5q0 -85 -32.5 -151.5t-90.5 -104.5t-134 -38zM285 60q36 0 67.5 15.5t55.5 45t37 70.5t13 91q0 44 -15.5 79.5t-48 57t-83.5 21.5q-36 0 -68 -15.5 t-55.5 -44.5t-37 -70t-13.5 -91q0 -43 16 -79.5t49 -58t83 -21.5zM12 -26l495 553h72l-495 -553h-72z" glyph-name="oslash" horiz-adv-x="595" unicode="ø"/><glyph d="M228 -8q-54 0 -95.5 24.5t-60 71t-3.5 111.5l70 301h80l-69 -299q-16 -67 12.5 -103t86.5 -36q46 0 81 20t59 59t37 96l61 263h80l-116 -500h-70l19 112l10 -5q-20 -58 -70 -86.5t-112 -28.5zM354 740l45 -167h-61l-64 167h80z" glyph-name="ugrave" horiz-adv-x="598" unicode="ù"/><glyph d="M228 -8q-54 0 -95.5 24.5t-60 71t-3.5 111.5l70 301h80l-69 -299q-16 -67 12.5 -103t86.5 -36q46 0 81 20t59 59t37 96l61 263h80l-116 -500h-70l19 112l10 -5q-20 -58 -70 -86.5t-112 -28.5zM431 740h96l-143 -167h-75z" glyph-name="uacute" horiz-adv-x="598" unicode="ú"/><glyph d="M228 -8q-54 0 -95.5 24.5t-60 71t-3.5 111.5l70 301h80l-69 -299q-16 -67 12.5 -103t86.5 -36q46 0 81 20t59 59t37 96l61 263h80l-116 -500h-70l19 112l10 -5q-20 -58 -70 -86.5t-112 -28.5zM198 566l152 167h90l76 -167h-69l-60 114l-111 -114h-78z" glyph-name="ucircumflex" horiz-adv-x="598" unicode="û"/><glyph d="M228 -8q-54 0 -95.5 24.5t-60 71t-3.5 111.5l70 301h80l-69 -299q-16 -67 12.5 -103t86.5 -36q46 0 81 20t59 59t37 96l61 263h80l-116 -500h-70l19 112l10 -5q-20 -58 -70 -86.5t-112 -28.5zM465 572q-22 0 -36 14t-14 35q0 30 18 47.5t44 17.5q22 0 36 -14t14 -35 q0 -30 -18 -47.5t-44 -17.5zM271 572q-22 0 -36 14t-14 35q0 30 18 47.5t44 17.5q22 0 36 -14t14 -35q0 -30 -18 -47.5t-44 -17.5z" glyph-name="udieresis" horiz-adv-x="598" unicode="ü"/><glyph d="M12 -215q-38 0 -65.5 9t-45.5 25l32 67q34 -31 76 -31q32 0 56.5 18t48.5 56l47 75l-88 496h79l46 -286l20 -125l70 117l177 294h91l-378 -598q-26 -41 -53.5 -67t-55.5 -38t-57 -12zM390 740h96l-143 -167h-75z" glyph-name="yacute" horiz-adv-x="504" unicode="ý"/><glyph d="M-17 -210l217 940h80l-79 -339l-16 -26q17 67 69 105t124 38q50 0 91.5 -26t66.5 -75t25 -117q0 -64 -19.5 -119t-54.5 -95.5t-81.5 -63t-101.5 -22.5q-49 0 -87 19.5t-60 55.5t-25 83l15 8l-84 -366h-80zM305 59q36 0 68 17t56.5 48.5t38.5 73.5t14 92q0 48 -17 81.5 t-47 50.5t-70 17q-39 0 -71.5 -17.5t-56.5 -48.5t-37.5 -74t-13.5 -94q0 -65 34.5 -105.5t101.5 -40.5z" glyph-name="thorn" horiz-adv-x="616" unicode="þ"/><glyph d="M12 -215q-38 0 -65.5 9t-45.5 25l32 67q34 -31 76 -31q32 0 56.5 18t48.5 56l47 75l-88 496h79l46 -286l20 -125l70 117l177 294h91l-378 -598q-26 -41 -53.5 -67t-55.5 -38t-57 -12zM424 572q-22 0 -36 14t-14 35q0 30 18 47.5t44 17.5q22 0 36 -14t14 -35 q0 -30 -18 -47.5t-44 -17.5zM230 572q-22 0 -36 14t-14 35q0 30 18 47.5t44 17.5q22 0 36 -14t14 -35q0 -30 -18 -47.5t-44 -17.5z" glyph-name="ydieresis" horiz-adv-x="504" unicode="ÿ"/><glyph d="M-35 0l402 660h99l96 -660h-79l-69 474l-14 100v0l-58 -96l-287 -478h-90zM132 189l17 75h346l-17 -75h-346zM599 823l-15 -67h-314l15 67h314z" glyph-name="Amacron" horiz-adv-x="643" unicode="Ā"/><glyph d="M251 -8q-58 0 -102 28t-69 77.5t-25 114.5q0 62 19 116t53 95t81 64t102 23q44 0 79 -15t58 -42.5t32 -65.5l26 113h80l-116 -500h-70l17 93q-24 -46 -68.5 -73.5t-96.5 -27.5zM272 60q35 0 66.5 18t56 49.5t38.5 74t14 91.5q0 45 -16.5 78.5t-46 51.5t-69.5 18 t-73 -17.5t-57 -48.5t-37.5 -72.5t-13.5 -89.5q0 -49 16 -83t46.5 -52t75.5 -18zM521 663l-15 -67h-314l15 67h314z" glyph-name="amacron" horiz-adv-x="616" unicode="ā"/><glyph d="M-35 0l402 660h99l96 -660h-79l-69 474l-14 100v0l-58 -96l-287 -478h-90zM132 189l17 75h346l-17 -75h-346zM599 885q-10 -67 -56 -107.5t-114 -40.5q-59 0 -94.5 33.5t-35.5 82.5q0 8 1 16t3 16h60q-1 -4 -1.5 -9t-0.5 -9q0 -33 20.5 -51.5t54.5 -18.5q37 0 64.5 22 t34.5 66h64z" glyph-name="Abreve" horiz-adv-x="643" unicode="Ă"/><glyph d="M251 -8q-58 0 -102 28t-69 77.5t-25 114.5q0 62 19 116t53 95t81 64t102 23q44 0 79 -15t58 -42.5t32 -65.5l26 113h80l-116 -500h-70l17 93q-24 -46 -68.5 -73.5t-96.5 -27.5zM272 60q35 0 66.5 18t56 49.5t38.5 74t14 91.5q0 45 -16.5 78.5t-46 51.5t-69.5 18 t-73 -17.5t-57 -48.5t-37.5 -72.5t-13.5 -89.5q0 -49 16 -83t46.5 -52t75.5 -18zM525 725q-10 -67 -56 -107.5t-114 -40.5q-59 0 -94.5 33.5t-35.5 82.5q0 8 1 16t3 16h60q-1 -4 -1.5 -9t-0.5 -9q0 -33 20.5 -51.5t54.5 -18.5q37 0 64.5 22t34.5 66h64z" glyph-name="abreve" horiz-adv-x="616" unicode="ă"/><glyph d="M469 -218q-29 0 -54.5 11t-41 33t-15.5 55q0 32 16 58t53 48.5t98 42.5l37 -30q-37 -12 -69.5 -27.5t-52 -36t-19.5 -48.5t19.5 -38.5t41.5 -10.5q12 0 21 2t19 5l-6 -56q-10 -4 -22 -6t-25 -2zM-35 0l402 660h99l96 -660h-79l-69 474l-14 100v0l-58 -96l-287 -478h-90z M132 189l17 75h346l-17 -75h-346z" glyph-name="Aogonek" horiz-adv-x="643" unicode="Ą"/><glyph d="M381 -218q-29 0 -53 9t-38.5 28.5t-14.5 50.5q0 28 16 55t51 53.5t90 51.5l37 -30q-70 -38 -100.5 -65t-30.5 -56q0 -25 17 -32.5t39 -7.5q12 0 21 2t19 5l-6 -56q-10 -4 -22 -6t-25 -2zM251 -8q-58 0 -102 28t-69 77.5t-25 114.5q0 62 19 116t53 95t81 64t102 23 q44 0 79 -15t58 -42.5t32 -65.5l26 113h80l-116 -500h-70l17 93q-24 -46 -68.5 -73.5t-96.5 -27.5zM272 60q35 0 66.5 18t56 49.5t38.5 74t14 91.5q0 45 -16.5 78.5t-46 51.5t-69.5 18t-73 -17.5t-57 -48.5t-37.5 -72.5t-13.5 -89.5q0 -49 16 -83t46.5 -52t75.5 -18z" glyph-name="aogonek" horiz-adv-x="616" unicode="ą"/><glyph d="M363 -10q-77 0 -140.5 32t-101.5 95t-38 156q0 74 21.5 144.5t64.5 127.5t106.5 91t146.5 34q63 0 112 -20t83 -61t51 -104l-84 -28q-17 74 -59.5 106t-110.5 32q-60 0 -106 -27t-77 -71.5t-47 -99.5t-16 -112q0 -69 26.5 -118t72 -75.5t101.5 -26.5q66 0 104 27.5 t64 73.5l77 -37q-41 -63 -100 -101t-150 -38zM501 902h93l-121 -159h-68z" glyph-name="Cacute" horiz-adv-x="674" unicode="Ć"/><glyph d="M277 -9q-69 0 -118.5 30.5t-75.5 82t-26 113.5q0 86 33 151.5t92 103t137 37.5q57 0 99.5 -20t69 -55t35.5 -79l-84 -20q-4 44 -34.5 74.5t-89.5 30.5q-38 0 -70.5 -16t-56.5 -45.5t-37 -70t-13 -90.5q0 -44 17 -80t49.5 -57t80.5 -21q39 0 73.5 20t48.5 59l78 -28 q-26 -58 -81.5 -89t-126.5 -31zM412 750h96l-143 -167h-75z" glyph-name="cacute" horiz-adv-x="538" unicode="ć"/><glyph d="M363 -10q-77 0 -140.5 32t-101.5 95t-38 156q0 74 21.5 144.5t64.5 127.5t106.5 91t146.5 34q63 0 112 -20t83 -61t51 -104l-84 -28q-17 74 -59.5 106t-110.5 32q-60 0 -106 -27t-77 -71.5t-47 -99.5t-16 -112q0 -69 26.5 -118t72 -75.5t101.5 -26.5q66 0 104 27.5 t64 73.5l77 -37q-41 -63 -100 -101t-150 -38zM534 902l73 -159h-68l-57 106l-103 -106h-80l147 159h88z" glyph-name="Ccircumflex" horiz-adv-x="674" unicode="Ĉ"/><glyph d="M277 -9q-69 0 -118.5 30.5t-75.5 82t-26 113.5q0 86 33 151.5t92 103t137 37.5q57 0 99.5 -20t69 -55t35.5 -79l-84 -20q-4 44 -34.5 74.5t-89.5 30.5q-38 0 -70.5 -16t-56.5 -45.5t-37 -70t-13 -90.5q0 -44 17 -80t49.5 -57t80.5 -21q39 0 73.5 20t48.5 59l78 -28 q-26 -58 -81.5 -89t-126.5 -31zM179 576l152 167h90l76 -167h-69l-60 114l-111 -114h-78z" glyph-name="ccircumflex" horiz-adv-x="538" unicode="ĉ"/><glyph d="M363 -10q-77 0 -140.5 32t-101.5 95t-38 156q0 74 21.5 144.5t64.5 127.5t106.5 91t146.5 34q63 0 112 -20t83 -61t51 -104l-84 -28q-17 74 -59.5 106t-110.5 32q-60 0 -106 -27t-77 -71.5t-47 -99.5t-16 -112q0 -69 26.5 -118t72 -75.5t101.5 -26.5q66 0 104 27.5 t64 73.5l77 -37q-41 -63 -100 -101t-150 -38zM468 756q-24 0 -39 14.5t-15 37.5q0 31 18.5 49.5t44.5 18.5q24 0 39 -14.5t15 -37.5q0 -31 -18.5 -49.5t-44.5 -18.5z" glyph-name="Cdotaccent" horiz-adv-x="674" unicode="Ċ"/><glyph d="M277 -9q-69 0 -118.5 30.5t-75.5 82t-26 113.5q0 86 33 151.5t92 103t137 37.5q57 0 99.5 -20t69 -55t35.5 -79l-84 -20q-4 44 -34.5 74.5t-89.5 30.5q-38 0 -70.5 -16t-56.5 -45.5t-37 -70t-13 -90.5q0 -44 17 -80t49.5 -57t80.5 -21q39 0 73.5 20t48.5 59l78 -28 q-26 -58 -81.5 -89t-126.5 -31zM356 596q-24 0 -39 14.5t-15 37.5q0 31 18.5 49.5t44.5 18.5q24 0 39 -14.5t15 -37.5q0 -31 -18.5 -49.5t-44.5 -18.5z" glyph-name="cdotaccent" horiz-adv-x="538" unicode="ċ"/><glyph d="M363 -10q-77 0 -140.5 32t-101.5 95t-38 156q0 74 21.5 144.5t64.5 127.5t106.5 91t146.5 34q63 0 112 -20t83 -61t51 -104l-84 -28q-17 74 -59.5 106t-110.5 32q-60 0 -106 -27t-77 -71.5t-47 -99.5t-16 -112q0 -69 26.5 -118t72 -75.5t101.5 -26.5q66 0 104 27.5 t64 73.5l77 -37q-41 -63 -100 -101t-150 -38zM411 743l-73 159h68l57 -106l103 106h80l-147 -159h-88z" glyph-name="Ccaron" horiz-adv-x="674" unicode="Č"/><glyph d="M277 -9q-69 0 -118.5 30.5t-75.5 82t-26 113.5q0 86 33 151.5t92 103t137 37.5q57 0 99.5 -20t69 -55t35.5 -79l-84 -20q-4 44 -34.5 74.5t-89.5 30.5q-38 0 -70.5 -16t-56.5 -45.5t-37 -70t-13 -90.5q0 -44 17 -80t49.5 -57t80.5 -21q39 0 73.5 20t48.5 59l78 -28 q-26 -58 -81.5 -89t-126.5 -31zM295 583l-76 167h69l60 -114l111 114h78l-152 -167h-90z" glyph-name="ccaron" horiz-adv-x="538" unicode="č"/><glyph d="M47 0l153 660h191q85 0 145 -35t92.5 -96t32.5 -139q0 -83 -26.5 -154t-75.5 -124t-117.5 -82.5t-151.5 -29.5h-243zM144 75h158q63 0 113.5 24.5t86 67t54.5 97t19 114.5q0 59 -21 105.5t-64 74t-109 27.5h-118zM389 743l-73 159h68l57 -106l103 106h80l-147 -159h-88z" glyph-name="Dcaron" horiz-adv-x="706" unicode="Ď"/><glyph d="M785 730l-84 -197h-60l66 197h78zM251 -8q-58 0 -102 28t-69 77.5t-25 114.5q0 62 19 116t53 95t81 64t102 23q44 0 79 -15t58 -42.5t32 -65.5l79 343h80l-169 -730h-70l17 93q-24 -46 -68.5 -73.5t-96.5 -27.5zM271 60q36 0 68 18t56 49.5t38 74t14 91.5 q0 45 -16.5 78.5t-46 51.5t-69.5 18t-73 -17.5t-57 -48.5t-37.5 -72.5t-13.5 -89.5q0 -49 16 -83t46.5 -52t74.5 -18z" glyph-name="dcaron" horiz-adv-x="626" unicode="ď"/><glyph d="M27 296l17 75h375l-17 -75h-375zM66 0l153 660h191q85 0 145 -35t92.5 -96t32.5 -139q0 -83 -26.5 -154t-75.5 -124t-117.5 -82.5t-151.5 -29.5h-243zM163 75h158q63 0 113.5 24.5t86 67t54.5 97t19 114.5q0 59 -21 105.5t-64 74t-109 27.5h-118z" glyph-name="Dcroat" horiz-adv-x="725" unicode="Đ"/><glyph d="M697 627l-14 -61h-340l14 61h340zM251 -8q-58 0 -102 28t-69 77.5t-25 114.5q0 62 19 116t53 95t81 64t102 23q44 0 79 -15t58 -42.5t32 -65.5l79 343h80l-169 -730h-70l17 93q-24 -46 -68.5 -73.5t-96.5 -27.5zM271 60q36 0 68 18t56 49.5t38 74t14 91.5 q0 45 -16.5 78.5t-46 51.5t-69.5 18t-73 -17.5t-57 -48.5t-37.5 -72.5t-13.5 -89.5q0 -49 16 -83t46.5 -52t74.5 -18z" glyph-name="dcroat" horiz-adv-x="629" unicode="đ"/><glyph d="M47 0l153 660h453l-18 -75h-373l-49 -213h292l-17 -75h-292l-51 -222h389l-18 -75h-469zM611 823l-15 -67h-314l15 67h314z" glyph-name="Emacron" horiz-adv-x="625" unicode="Ē"/><glyph d="M276 -9q-69 0 -118.5 30t-75.5 81t-26 114q0 78 31 145t90.5 107.5t144.5 40.5q61 0 104.5 -25t66.5 -68.5t23 -98.5q0 -20 -3.5 -41.5t-10.5 -44.5h-407v70h372l-35 -28q3 12 4.5 24t1.5 23q0 36 -14.5 63t-41.5 42t-65 15q-49 0 -83.5 -19.5t-56 -52.5t-31 -73.5 t-9.5 -81.5q0 -45 18.5 -79.5t51.5 -54t78 -19.5q51 1 84 22t54 55l63 -42q-22 -32 -53 -55.5t-70.5 -36t-86.5 -12.5zM511 663l-15 -67h-314l15 67h314z" glyph-name="emacron" horiz-adv-x="572" unicode="ē"/><glyph d="M47 0l153 660h453l-18 -75h-373l-49 -213h292l-17 -75h-292l-51 -222h389l-18 -75h-469zM611 885q-10 -67 -56 -107.5t-114 -40.5q-59 0 -94.5 33.5t-35.5 82.5q0 8 1 16t3 16h60q-1 -4 -1.5 -9t-0.5 -9q0 -33 20.5 -51.5t54.5 -18.5q37 0 64.5 22t34.5 66h64z" glyph-name="Ebreve" horiz-adv-x="625" unicode="Ĕ"/><glyph d="M276 -9q-69 0 -118.5 30t-75.5 81t-26 114q0 78 31 145t90.5 107.5t144.5 40.5q61 0 104.5 -25t66.5 -68.5t23 -98.5q0 -20 -3.5 -41.5t-10.5 -44.5h-407v70h372l-35 -28q3 12 4.5 24t1.5 23q0 36 -14.5 63t-41.5 42t-65 15q-49 0 -83.5 -19.5t-56 -52.5t-31 -73.5 t-9.5 -81.5q0 -45 18.5 -79.5t51.5 -54t78 -19.5q51 1 84 22t54 55l63 -42q-22 -32 -53 -55.5t-70.5 -36t-86.5 -12.5zM515 725q-10 -67 -56 -107.5t-114 -40.5q-59 0 -94.5 33.5t-35.5 82.5q0 8 1 16t3 16h60q-1 -4 -1.5 -9t-0.5 -9q0 -33 20.5 -51.5t54.5 -18.5 q37 0 64.5 22t34.5 66h64z" glyph-name="ebreve" horiz-adv-x="572" unicode="ĕ"/><glyph d="M47 0l153 660h453l-18 -75h-373l-49 -213h292l-17 -75h-292l-51 -222h389l-18 -75h-469zM452 756q-24 0 -39 14.5t-15 37.5q0 31 18.5 49.5t44.5 18.5q24 0 39 -14.5t15 -37.5q0 -31 -18.5 -49.5t-44.5 -18.5z" glyph-name="Edotaccent" horiz-adv-x="625" unicode="Ė"/><glyph d="M276 -9q-69 0 -118.5 30t-75.5 81t-26 114q0 78 31 145t90.5 107.5t144.5 40.5q61 0 104.5 -25t66.5 -68.5t23 -98.5q0 -20 -3.5 -41.5t-10.5 -44.5h-407v70h372l-35 -28q3 12 4.5 24t1.5 23q0 36 -14.5 63t-41.5 42t-65 15q-49 0 -83.5 -19.5t-56 -52.5t-31 -73.5 t-9.5 -81.5q0 -45 18.5 -79.5t51.5 -54t78 -19.5q51 1 84 22t54 55l63 -42q-22 -32 -53 -55.5t-70.5 -36t-86.5 -12.5zM352 596q-24 0 -39 14.5t-15 37.5q0 31 18.5 49.5t44.5 18.5q24 0 39 -14.5t15 -37.5q0 -31 -18.5 -49.5t-44.5 -18.5z" glyph-name="edotaccent" horiz-adv-x="572" unicode="ė"/><glyph d="M423 -218q-29 0 -54.5 10.5t-41 32t-15.5 54.5q0 32 16 58.5t53 49.5t98 43l37 -30q-37 -12 -69.5 -27.5t-52 -36t-19.5 -48.5t19.5 -38.5t41.5 -10.5q12 0 21 2t19 5l-6 -56q-10 -4 -22 -6t-25 -2zM47 0l153 660h453l-18 -75h-373l-49 -213h292l-17 -75h-292l-51 -222 h389l-18 -75h-469z" glyph-name="Eogonek" horiz-adv-x="625" unicode="Ę"/><glyph d="M276 -9q-69 0 -118.5 30t-75.5 81t-26 114q0 78 31 145t90.5 107.5t144.5 40.5q61 0 104.5 -25t66.5 -68.5t23 -98.5q0 -20 -3.5 -41.5t-10.5 -44.5h-407v70h372l-35 -28q3 12 4.5 24t1.5 23q0 36 -14.5 63t-41.5 42t-65 15q-49 0 -83.5 -19.5t-56 -52.5t-31 -73.5 t-9.5 -81.5q0 -45 18.5 -79.5t51.5 -54t78 -19.5q51 1 84 22t54 55l63 -42q-22 -32 -53 -55.5t-70.5 -36t-86.5 -12.5zM273 -213q-29 0 -54.5 11t-41 33t-15.5 55q0 32 16 58t53 48.5t98 42.5l37 -30q-37 -12 -69.5 -27.5t-52 -36t-19.5 -48.5t19.5 -38.5t41.5 -10.5 q12 0 21 2t19 5l-6 -56q-10 -4 -22 -6t-25 -2z" glyph-name="eogonek" horiz-adv-x="572" unicode="ę"/><glyph d="M47 0l153 660h453l-18 -75h-373l-49 -213h292l-17 -75h-292l-51 -222h389l-18 -75h-469zM395 743l-73 159h68l57 -106l103 106h80l-147 -159h-88z" glyph-name="Ecaron" horiz-adv-x="625" unicode="Ě"/><glyph d="M276 -9q-69 0 -118.5 30t-75.5 81t-26 114q0 78 31 145t90.5 107.5t144.5 40.5q61 0 104.5 -25t66.5 -68.5t23 -98.5q0 -20 -3.5 -41.5t-10.5 -44.5h-407v70h372l-35 -28q3 12 4.5 24t1.5 23q0 36 -14.5 63t-41.5 42t-65 15q-49 0 -83.5 -19.5t-56 -52.5t-31 -73.5 t-9.5 -81.5q0 -45 18.5 -79.5t51.5 -54t78 -19.5q51 1 84 22t54 55l63 -42q-22 -32 -53 -55.5t-70.5 -36t-86.5 -12.5zM291 583l-76 167h69l60 -114l111 114h78l-152 -167h-90z" glyph-name="ecaron" horiz-adv-x="572" unicode="ě"/><glyph d="M343 -8q-70 0 -129 33.5t-94.5 97t-35.5 152.5q0 77 22.5 147.5t66 126.5t107.5 88.5t148 32.5q60 0 111.5 -17t89.5 -55.5t56 -104.5l-81 -28q-18 71 -65.5 101t-115.5 30q-62 0 -109.5 -26.5t-80 -71.5t-49 -100.5t-16.5 -113.5q0 -68 23.5 -116.5t66.5 -74t101 -25.5 q56 0 97 19.5t67 54.5t37 81l7 30h-206l17 75h277l-80 -328h-63l27 132l9 -11q-19 -41 -48 -70t-68 -44t-89 -15zM545 902l73 -159h-68l-57 106l-103 -106h-80l147 159h88z" glyph-name="Gcircumflex" horiz-adv-x="707" unicode="Ĝ"/><glyph d="M213 -215q-43 0 -80.5 11.5t-66 32.5t-47 50.5t-25.5 66.5l80 28q11 -56 43.5 -87.5t101.5 -31.5q38 0 72 13.5t60 47t39 94.5l25 113l13 12q-15 -55 -63 -89.5t-111 -34.5q-58 0 -104 29t-72 78.5t-26 108.5q0 63 19 114.5t53 89.5t80.5 58.5t100.5 20.5 q51 0 89.5 -19.5t61.5 -55t25 -83.5l-15 -8l36 156h80l-117 -499q-18 -77 -54.5 -124.5t-86.5 -69.5t-111 -22zM275 80q47 0 85 28t60.5 76.5t22.5 110.5q0 45 -16 77.5t-46 50.5t-71 18q-52 0 -92 -26.5t-63 -74t-23 -111.5q0 -65 38 -107t105 -42zM181 576l152 167h90 l76 -167h-69l-60 114l-111 -114h-78z" glyph-name="gcircumflex" horiz-adv-x="613" unicode="ĝ"/><glyph d="M343 -8q-70 0 -129 33.5t-94.5 97t-35.5 152.5q0 77 22.5 147.5t66 126.5t107.5 88.5t148 32.5q60 0 111.5 -17t89.5 -55.5t56 -104.5l-81 -28q-18 71 -65.5 101t-115.5 30q-62 0 -109.5 -26.5t-80 -71.5t-49 -100.5t-16.5 -113.5q0 -68 23.5 -116.5t66.5 -74t101 -25.5 q56 0 97 19.5t67 54.5t37 81l7 30h-206l17 75h277l-80 -328h-63l27 132l9 -11q-19 -41 -48 -70t-68 -44t-89 -15zM638 885q-10 -67 -56 -107.5t-114 -40.5q-59 0 -94.5 33.5t-35.5 82.5q0 8 1 16t3 16h60q-1 -4 -1.5 -9t-0.5 -9q0 -33 20.5 -51.5t54.5 -18.5q37 0 64.5 22 t34.5 66h64z" glyph-name="Gbreve" horiz-adv-x="707" unicode="Ğ"/><glyph d="M213 -215q-43 0 -80.5 11.5t-66 32.5t-47 50.5t-25.5 66.5l80 28q11 -56 43.5 -87.5t101.5 -31.5q38 0 72 13.5t60 47t39 94.5l25 113l13 12q-15 -55 -63 -89.5t-111 -34.5q-58 0 -104 29t-72 78.5t-26 108.5q0 63 19 114.5t53 89.5t80.5 58.5t100.5 20.5 q51 0 89.5 -19.5t61.5 -55t25 -83.5l-15 -8l36 156h80l-117 -499q-18 -77 -54.5 -124.5t-86.5 -69.5t-111 -22zM275 80q47 0 85 28t60.5 76.5t22.5 110.5q0 45 -16 77.5t-46 50.5t-71 18q-52 0 -92 -26.5t-63 -74t-23 -111.5q0 -65 38 -107t105 -42zM521 725 q-10 -67 -56 -107.5t-114 -40.5q-59 0 -94.5 33.5t-35.5 82.5q0 8 1 16t3 16h60q-1 -4 -1.5 -9t-0.5 -9q0 -33 20.5 -51.5t54.5 -18.5q37 0 64.5 22t34.5 66h64z" glyph-name="gbreve" horiz-adv-x="613" unicode="ğ"/><glyph d="M343 -8q-70 0 -129 33.5t-94.5 97t-35.5 152.5q0 77 22.5 147.5t66 126.5t107.5 88.5t148 32.5q60 0 111.5 -17t89.5 -55.5t56 -104.5l-81 -28q-18 71 -65.5 101t-115.5 30q-62 0 -109.5 -26.5t-80 -71.5t-49 -100.5t-16.5 -113.5q0 -68 23.5 -116.5t66.5 -74t101 -25.5 q56 0 97 19.5t67 54.5t37 81l7 30h-206l17 75h277l-80 -328h-63l27 132l9 -11q-19 -41 -48 -70t-68 -44t-89 -15zM479 756q-24 0 -39 14.5t-15 37.5q0 31 18.5 49.5t44.5 18.5q24 0 39 -14.5t15 -37.5q0 -31 -18.5 -49.5t-44.5 -18.5z" glyph-name="Gdotaccent" horiz-adv-x="707" unicode="Ġ"/><glyph d="M213 -215q-43 0 -80.5 11.5t-66 32.5t-47 50.5t-25.5 66.5l80 28q11 -56 43.5 -87.5t101.5 -31.5q38 0 72 13.5t60 47t39 94.5l25 113l13 12q-15 -55 -63 -89.5t-111 -34.5q-58 0 -104 29t-72 78.5t-26 108.5q0 63 19 114.5t53 89.5t80.5 58.5t100.5 20.5 q51 0 89.5 -19.5t61.5 -55t25 -83.5l-15 -8l36 156h80l-117 -499q-18 -77 -54.5 -124.5t-86.5 -69.5t-111 -22zM275 80q47 0 85 28t60.5 76.5t22.5 110.5q0 45 -16 77.5t-46 50.5t-71 18q-52 0 -92 -26.5t-63 -74t-23 -111.5q0 -65 38 -107t105 -42zM358 596q-24 0 -39 14.5 t-15 37.5q0 31 18.5 49.5t44.5 18.5q24 0 39 -14.5t15 -37.5q0 -31 -18.5 -49.5t-44.5 -18.5z" glyph-name="gdotaccent" horiz-adv-x="613" unicode="ġ"/><glyph d="M343 -8q-70 0 -129 33.5t-94.5 97t-35.5 152.5q0 77 22.5 147.5t66 126.5t107.5 88.5t148 32.5q60 0 111.5 -17t89.5 -55.5t56 -104.5l-81 -28q-18 71 -65.5 101t-115.5 30q-62 0 -109.5 -26.5t-80 -71.5t-49 -100.5t-16.5 -113.5q0 -68 23.5 -116.5t66.5 -74t101 -25.5 q56 0 97 19.5t67 54.5t37 81l7 30h-206l17 75h277l-80 -328h-63l27 132l9 -11q-19 -41 -48 -70t-68 -44t-89 -15zM399 -76l-101 -161h-69l81 161h89z" glyph-name="uni0122" horiz-adv-x="707" unicode="Ģ"/><glyph d="M213 -215q-43 0 -80.5 11.5t-66 32.5t-47 50.5t-25.5 66.5l80 28q11 -56 43.5 -87.5t101.5 -31.5q38 0 72 13.5t60 47t39 94.5l25 113l13 12q-15 -55 -63 -89.5t-111 -34.5q-58 0 -104 29t-72 78.5t-26 108.5q0 63 19 114.5t53 89.5t80.5 58.5t100.5 20.5 q51 0 89.5 -19.5t61.5 -55t25 -83.5l-15 -8l36 156h80l-117 -499q-18 -77 -54.5 -124.5t-86.5 -69.5t-111 -22zM275 80q47 0 85 28t60.5 76.5t22.5 110.5q0 45 -16 77.5t-46 50.5t-71 18q-52 0 -92 -26.5t-63 -74t-23 -111.5q0 -65 38 -107t105 -42zM462 778l-84 -191h-96 l117 191h63z" glyph-name="uni0123" horiz-adv-x="613" unicode="ģ"/><glyph d="M709 660l-153 -660h-80l153 660h80zM280 660l-153 -660h-80l153 660h80zM599 372l-17 -75h-424l17 75h424zM553 902l73 -159h-68l-57 106l-103 -106h-80l147 159h88z" glyph-name="Hcircumflex" horiz-adv-x="719" unicode="Ĥ"/><glyph d="M31 0l169 730h80l-76 -330l-16 -7q14 39 42.5 65t66 39t78.5 13q56 0 96.5 -25t57.5 -71.5t2 -112.5l-70 -301h-80l70 302q15 65 -12.5 101.5t-86.5 36.5q-46 0 -81.5 -20.5t-60 -59.5t-38.5 -97l-61 -263h-80zM333 952l73 -159h-68l-57 106l-103 -106h-80l147 159h88z" glyph-name="hcircumflex" horiz-adv-x="600" unicode="ĥ"/><glyph d="M709 660l-153 -660h-80l153 660h80zM280 660l-153 -660h-80l153 660h80zM599 372l-17 -75h-424l17 75h424zM766 549l-16 -70h-674l16 70h674z" glyph-name="Hbar" horiz-adv-x="719" unicode="Ħ"/><glyph d="M103 627h314l-14 -61h-314zM31 0l169 730h80l-76 -330l-16 -7q14 39 42.5 65t66 39t78.5 13q56 0 96.5 -25t57.5 -71.5t2 -112.5l-70 -301h-80l70 302q15 65 -12.5 101.5t-86.5 36.5q-46 0 -81.5 -20.5t-60 -59.5t-38.5 -97l-61 -263h-80z" glyph-name="hbar" horiz-adv-x="600" unicode="ħ"/><glyph d="M280 660l-153 -660h-80l153 660h80zM456 877q-11 -65 -45.5 -99.5t-78.5 -34.5q-26 0 -44 10.5t-31 24t-25 24t-27 10.5q-18 0 -32.5 -19t-22.5 -51h-63q11 65 45.5 99.5t78.5 34.5q26 0 44 -10.5t31 -24t25 -24t27 -10.5q18 0 32.5 19t22.5 51h63z" glyph-name="Itilde" horiz-adv-x="290" unicode="Ĩ"/><glyph d="M227 500l-116 -500h-80l116 500h80zM403 717q-11 -65 -45.5 -99.5t-78.5 -34.5q-26 0 -44 10.5t-31 24t-25 24t-27 10.5q-18 0 -32.5 -19t-22.5 -51h-63q11 65 45.5 99.5t78.5 34.5q26 0 44 -10.5t31 -24t25 -24t27 -10.5q18 0 32.5 19t22.5 51h63z" glyph-name="itilde" horiz-adv-x="258" unicode="ĩ"/><glyph d="M388 823l-15 -67h-216l15 67h216zM280 660l-153 -660h-80l153 660h80z" glyph-name="Imacron" horiz-adv-x="296" unicode="Ī"/><glyph d="M318 663l-15 -67h-204l15 67h204zM227 500l-116 -500h-80l116 500h80z" glyph-name="imacron" horiz-adv-x="258" unicode="ī"/><glyph d="M280 660l-153 -660h-80l153 660h80zM431 885q-10 -67 -56 -107.5t-114 -40.5q-59 0 -94.5 33.5t-35.5 82.5q0 8 1 16t3 16h60q-1 -4 -1.5 -9t-0.5 -9q0 -33 20.5 -51.5t54.5 -18.5q37 0 64.5 22t34.5 66h64z" glyph-name="Ibreve" horiz-adv-x="290" unicode="Ĭ"/><glyph d="M227 500l-116 -500h-80l116 500h80zM382 725q-10 -67 -56 -107.5t-114 -40.5q-59 0 -94.5 33.5t-35.5 82.5q0 8 1 16t3 16h60q-1 -4 -1.5 -9t-0.5 -9q0 -33 20.5 -51.5t54.5 -18.5q37 0 64.5 22t34.5 66h64z" glyph-name="ibreve" horiz-adv-x="258" unicode="ĭ"/><glyph d="M47 -218q-29 0 -53 11t-38 32t-14 51q0 29 12.5 56.5t45 52.5t90.5 45l37 -30q-37 -12 -65 -28t-43 -37.5t-15 -49.5t17 -37t39 -9q12 0 21 2t19 5l-6 -56q-10 -4 -22 -6t-25 -2zM280 660l-153 -660h-80l153 660h80z" glyph-name="Iogonek" horiz-adv-x="290" unicode="Į"/><glyph d="M31 -218q-29 0 -53 11t-38 32t-14 51q0 29 12.5 56.5t45 52.5t90.5 45l37 -30q-37 -12 -65 -28t-43 -37.5t-15 -49.5t17 -37t39 -9q12 0 21 2t19 5l-6 -56q-10 -4 -22 -6t-25 -2zM218 596q-24 0 -39 14.5t-15 37.5q0 31 18.5 49.5t44.5 18.5q24 0 39 -14.5t15 -37.5 q0 -31 -18.5 -49.5t-44.5 -18.5zM227 500l-116 -500h-80l116 500h80z" glyph-name="iogonek" horiz-adv-x="258" unicode="į"/><glyph d="M280 660l-153 -660h-80l153 660h80zM272 756q-24 0 -39 14.5t-15 37.5q0 31 18.5 49.5t44.5 18.5q24 0 39 -14.5t15 -37.5q0 -31 -18.5 -49.5t-44.5 -18.5z" glyph-name="Idotaccent" horiz-adv-x="290" unicode="İ"/><glyph d="M227 500l-116 -500h-80l116 500h80z" glyph-name="dotlessi" horiz-adv-x="258" unicode="ı"/><glyph d="M280 660l-153 -660h-80l153 660h80zM504 -8q-52 0 -92 19t-63 53t-27 79t14 97l76 5q-17 -52 -12.5 -93t32.5 -64.5t79 -23.5q65 0 97 37.5t51 125.5l100 433h81l-105 -453q-14 -61 -41 -110t-72.5 -77t-117.5 -28z" glyph-name="IJ" horiz-adv-x="839" unicode="Ĳ"/><glyph d="M218 596q-24 0 -39 14.5t-15 37.5q0 31 18.5 49.5t44.5 18.5q24 0 39 -14.5t15 -37.5q0 -31 -18.5 -49.5t-44.5 -18.5zM227 500l-116 -500h-80l116 500h80zM476 596q-24 0 -39 14.5t-15 37.5q0 31 18.5 49.5t44.5 18.5q24 0 39 -14.5t15 -37.5q0 -31 -18.5 -49.5 t-44.5 -18.5zM205 -215q-30 0 -59.5 9t-46.5 27l28 72q14 -12 33.5 -20t38.5 -8q28 0 46.5 16t28.5 62l131 557h80l-134 -578q-16 -71 -57.5 -104t-88.5 -33z" glyph-name="ij" horiz-adv-x="516" unicode="ĳ"/><glyph d="M214 -8q-52 0 -92 19t-63 53t-27 79t14 97l76 5q-17 -52 -12.5 -93t32.5 -64.5t79 -23.5q65 0 97 37.5t51 125.5l100 433h81l-105 -453q-14 -61 -41 -110t-72.5 -77t-117.5 -28zM608 902l73 -159h-68l-57 106l-103 -106h-80l147 159h88z" glyph-name="Jcircumflex" horiz-adv-x="549" unicode="Ĵ"/><glyph d="M-53 -215q-30 0 -59.5 9t-46.5 27l28 72q14 -12 33.5 -20t38.5 -8q28 0 46.5 16t28.5 62l131 557h80l-134 -578q-16 -71 -57.5 -104t-88.5 -33zM42 576l152 167h90l76 -167h-69l-60 114l-111 -114h-78z" glyph-name="jcircumflex" horiz-adv-x="258" unicode="ĵ"/><glyph d="M47 0l153 660h80l-78 -336l387 336h112l-315 -275l165 -385h-88l-139 331l-150 -129l-47 -202h-80zM337 -76l-101 -161h-69l81 161h89z" glyph-name="uni0136" horiz-adv-x="637" unicode="Ķ"/><glyph d="M568 500l-261 -217l-17 -11l-194 -162l15 102l345 288h112zM280 730l-169 -730h-80l169 730h80zM322 325l142 -325h-87l-120 282zM274 -76l-101 -161h-69l81 161h89z" glyph-name="uni0137" horiz-adv-x="545" unicode="ķ"/><glyph d="M568 500l-261 -217l-17 -11l-194 -162l15 102l345 288h112zM227 500l-116 -500h-80l116 500h80zM322 325l142 -325h-87l-120 282z" glyph-name="kgreenlandic" horiz-adv-x="545" unicode="ĸ"/><glyph d="M144 75h371l-18 -75h-450l153 660h80zM305 902h93l-121 -159h-68z" glyph-name="Lacute" horiz-adv-x="586" unicode="Ĺ"/><glyph d="M168 -7q-69 0 -96 41.5t-11 108.5l136 587h80l-137 -590q-10 -41 6 -59t55 -18q15 0 26 1t21 3l-20 -64q-16 -6 -29 -8t-31 -2zM204 800l82 130h83l-103 -130h-62z" glyph-name="lacute" horiz-adv-x="303" unicode="ĺ"/><glyph d="M144 75h371l-18 -75h-450l153 660h80zM323 -76l-101 -161h-69l81 161h89z" glyph-name="uni013B" horiz-adv-x="586" unicode="Ļ"/><glyph d="M168 -7q-69 0 -96 41.5t-11 108.5l136 587h80l-137 -590q-10 -41 6 -59t55 -18q15 0 26 1t21 3l-20 -64q-16 -6 -29 -8t-31 -2zM174 -76l-101 -161h-69l81 161h89z" glyph-name="uni013C" horiz-adv-x="303" unicode="ļ"/><glyph d="M498 660l-84 -197h-60l66 197h78zM144 75h371l-18 -75h-450l153 660h80z" glyph-name="Lcaron" horiz-adv-x="586" unicode="Ľ"/><glyph d="M432 730l-84 -197h-60l66 197h78zM168 -7q-69 0 -96 41.5t-11 108.5l136 587h80l-137 -590q-10 -41 6 -59t55 -18q15 0 26 1t21 3l-20 -64q-16 -6 -29 -8t-31 -2z" glyph-name="lcaron" horiz-adv-x="315" unicode="ľ"/><glyph d="M144 75h371l-18 -75h-450l153 660h80zM470 289q-25 0 -41.5 15.5t-16.5 40.5q0 34 20 54t48 20q25 0 41.5 -15.5t16.5 -40.5q0 -34 -19.5 -54t-48.5 -20z" glyph-name="Ldot" horiz-adv-x="618" unicode="Ŀ"/><glyph d="M168 -7q-69 0 -96 41.5t-11 108.5l136 587h80l-137 -590q-10 -41 6 -59t55 -18q15 0 26 1t21 3l-20 -64q-16 -6 -29 -8t-31 -2zM344 301q-25 0 -41.5 15.5t-16.5 40.5q0 34 20 54t48 20q25 0 41.5 -15.5t16.5 -40.5q0 -34 -19.5 -54t-48.5 -20z" glyph-name="ldot" horiz-adv-x="389" unicode="ŀ"/><glyph d="M416 481l-21 -88l-381 -192l21 88zM165 75h371l-18 -75h-450l153 660h80z" glyph-name="Lslash" horiz-adv-x="607" unicode="Ł"/><glyph d="M28 228l21 89l124 72l33 15l161 96l-21 -89l-152 -91l-13 -2zM208 -7q-69 0 -96 41.5t-11 108.5l136 587h80l-137 -590q-10 -41 6 -59t55 -18q15 0 26 1t21 3l-20 -64q-16 -6 -29 -8t-31 -2z" glyph-name="lslash" horiz-adv-x="354" unicode="ł"/><glyph d="M47 0l153 660h96l164 -440l43 -132h1l21 106l108 466h76l-153 -660h-95l-167 442l-41 130h-1l-21 -106l-108 -466h-76zM512 902h93l-121 -159h-68z" glyph-name="Nacute" horiz-adv-x="719" unicode="Ń"/><glyph d="M31 0l116 500h70l-19 -112l-10 5q20 59 73 88t114 29q58 0 98 -25t56.5 -71.5t1.5 -112.5l-70 -301h-80l70 302q15 65 -12.5 101.5t-86.5 36.5q-46 0 -81.5 -20.5t-60 -59.5t-38.5 -97l-61 -263h-80zM448 750h96l-143 -167h-75z" glyph-name="nacute" horiz-adv-x="600" unicode="ń"/><glyph d="M47 0l153 660h96l164 -440l43 -132h1l21 106l108 466h76l-153 -660h-95l-167 442l-41 130h-1l-21 -106l-108 -466h-76zM352 -76l-101 -161h-69l81 161h89z" glyph-name="uni0145" horiz-adv-x="719" unicode="Ņ"/><glyph d="M31 0l116 500h70l-19 -112l-10 5q20 59 73 88t114 29q58 0 98 -25t56.5 -71.5t1.5 -112.5l-70 -301h-80l70 302q15 65 -12.5 101.5t-86.5 36.5q-46 0 -81.5 -20.5t-60 -59.5t-38.5 -97l-61 -263h-80zM290 -76l-101 -161h-69l81 161h89z" glyph-name="uni0146" horiz-adv-x="600" unicode="ņ"/><glyph d="M47 0l153 660h96l164 -440l43 -132h1l21 106l108 466h76l-153 -660h-95l-167 442l-41 130h-1l-21 -106l-108 -466h-76zM422 743l-73 159h68l57 -106l103 106h80l-147 -159h-88z" glyph-name="Ncaron" horiz-adv-x="719" unicode="Ň"/><glyph d="M31 0l116 500h70l-19 -112l-10 5q20 59 73 88t114 29q58 0 98 -25t56.5 -71.5t1.5 -112.5l-70 -301h-80l70 302q15 65 -12.5 101.5t-86.5 36.5q-46 0 -81.5 -20.5t-60 -59.5t-38.5 -97l-61 -263h-80zM331 583l-76 167h69l60 -114l111 114h78l-152 -167h-90z" glyph-name="ncaron" horiz-adv-x="600" unicode="ň"/><glyph d="M392 -215q-30 0 -59.5 9t-46.5 27l28 72q14 -12 33.5 -20t38.5 -8q30 0 50 16t32 62l14 58l-182 441l-47 130h-1l-21 -106l-108 -466h-76l153 660h96l159 -397l57 -144h2l26 136l93 405h76l-171 -738q-16 -71 -57.5 -104t-88.5 -33z" glyph-name="Eng" horiz-adv-x="719" unicode="Ŋ"/><glyph d="M297 -215q-30 0 -59.5 9t-46.5 27l28 72q14 -12 33.5 -20t38.5 -8q28 0 47.5 16t29.5 62l83 359q15 65 -12.5 101.5t-86.5 36.5q-46 0 -81.5 -20.5t-60 -59.5t-38.5 -97l-61 -263h-80l116 500h70l-12 -73q26 41 72 62t98 21q58 0 98 -25t56.5 -71.5t1.5 -112.5l-88 -379 q-16 -71 -57.5 -104t-88.5 -33z" glyph-name="eng" horiz-adv-x="600" unicode="ŋ"/><glyph d="M359 -10q-74 0 -136.5 33.5t-100 98.5t-37.5 158q0 77 22 147t64.5 124.5t106 86.5t145.5 32q74 0 135.5 -34t98.5 -98.5t37 -157.5q0 -76 -21.5 -146t-64 -125t-105 -87t-144.5 -32zM368 66q60 0 105 26t75.5 70.5t46 99.5t15.5 113q0 69 -25 118t-69 75t-103 26 q-60 0 -105.5 -26t-76.5 -70t-46.5 -99t-15.5 -114q0 -69 25 -118t69.5 -75t104.5 -26zM628 823l-15 -67h-314l15 67h314z" glyph-name="Omacron" horiz-adv-x="742" unicode="Ō"/><glyph d="M282 -9q-72 0 -122.5 30.5t-77 82t-26.5 112.5q0 86 33 152t91 103.5t134 37.5q73 0 123 -30.5t76 -81t26 -112.5q0 -85 -32.5 -151.5t-90.5 -104.5t-134 -38zM285 60q36 0 67.5 15.5t55.5 45t37 70.5t13 91q0 44 -15.5 79.5t-48 57t-83.5 21.5q-36 0 -68 -15.5 t-55.5 -44.5t-37 -70t-13.5 -91q0 -43 16 -79.5t49 -58t83 -21.5zM514 663l-15 -67h-314l15 67h314z" glyph-name="omacron" horiz-adv-x="595" unicode="ō"/><glyph d="M359 -10q-74 0 -136.5 33.5t-100 98.5t-37.5 158q0 77 22 147t64.5 124.5t106 86.5t145.5 32q74 0 135.5 -34t98.5 -98.5t37 -157.5q0 -76 -21.5 -146t-64 -125t-105 -87t-144.5 -32zM368 66q60 0 105 26t75.5 70.5t46 99.5t15.5 113q0 69 -25 118t-69 75t-103 26 q-60 0 -105.5 -26t-76.5 -70t-46.5 -99t-15.5 -114q0 -69 25 -118t69.5 -75t104.5 -26zM628 885q-10 -67 -56 -107.5t-114 -40.5q-59 0 -94.5 33.5t-35.5 82.5q0 8 1 16t3 16h60q-1 -4 -1.5 -9t-0.5 -9q0 -33 20.5 -51.5t54.5 -18.5q37 0 64.5 22t34.5 66h64z" glyph-name="Obreve" horiz-adv-x="742" unicode="Ŏ"/><glyph d="M282 -9q-72 0 -122.5 30.5t-77 82t-26.5 112.5q0 86 33 152t91 103.5t134 37.5q73 0 123 -30.5t76 -81t26 -112.5q0 -85 -32.5 -151.5t-90.5 -104.5t-134 -38zM285 60q36 0 67.5 15.5t55.5 45t37 70.5t13 91q0 44 -15.5 79.5t-48 57t-83.5 21.5q-36 0 -68 -15.5 t-55.5 -44.5t-37 -70t-13.5 -91q0 -43 16 -79.5t49 -58t83 -21.5zM518 725q-10 -67 -56 -107.5t-114 -40.5q-59 0 -94.5 33.5t-35.5 82.5q0 8 1 16t3 16h60q-1 -4 -1.5 -9t-0.5 -9q0 -33 20.5 -51.5t54.5 -18.5q37 0 64.5 22t34.5 66h64z" glyph-name="obreve" horiz-adv-x="595" unicode="ŏ"/><glyph d="M359 -10q-74 0 -136.5 33.5t-100 98.5t-37.5 158q0 77 22 147t64.5 124.5t106 86.5t145.5 32q74 0 135.5 -34t98.5 -98.5t37 -157.5q0 -76 -21.5 -146t-64 -125t-105 -87t-144.5 -32zM368 66q60 0 105 26t75.5 70.5t46 99.5t15.5 113q0 69 -25 118t-69 75t-103 26 q-60 0 -105.5 -26t-76.5 -70t-46.5 -99t-15.5 -114q0 -69 25 -118t69.5 -75t104.5 -26zM506 743l96 159h93l-121 -159h-68zM329 743l96 159h93l-121 -159h-68z" glyph-name="Ohungarumlaut" horiz-adv-x="742" unicode="Ő"/><glyph d="M282 -9q-72 0 -122.5 30.5t-77 82t-26.5 112.5q0 86 33 152t91 103.5t134 37.5q73 0 123 -30.5t76 -81t26 -112.5q0 -85 -32.5 -151.5t-90.5 -104.5t-134 -38zM285 60q36 0 67.5 15.5t55.5 45t37 70.5t13 91q0 44 -15.5 79.5t-48 57t-83.5 21.5q-36 0 -68 -15.5 t-55.5 -44.5t-37 -70t-13.5 -91q0 -43 16 -79.5t49 -58t83 -21.5zM391 583l122 167h96l-143 -167h-75zM209 583l122 167h96l-143 -167h-75z" glyph-name="ohungarumlaut" horiz-adv-x="595" unicode="ő"/><glyph d="M353 -10q-69 0 -129.5 32.5t-98.5 94.5t-40 150q-2 78 19 150.5t64 129.5t107 90t147 33q51 0 97 -17.5t80 -51.5t49 -84l33 143h418l-18 -75h-345l-50 -213h263l-17 -75h-263l-52 -222h362l-18 -75h-433l20 84q-42 -50 -90.5 -72t-104.5 -22zM363 66q57 0 101.5 25 t76 68.5t47.5 99t16 116.5q0 69 -24 118t-67.5 75t-100.5 26q-59 0 -104 -26t-76 -70t-47 -99t-16 -114q0 -69 25 -118t68.5 -75t100.5 -26z" glyph-name="OE" horiz-adv-x="1070" unicode="Œ"/><glyph d="M278 -9q-71 0 -121 30t-75.5 81t-25.5 113q0 86 33 152t91.5 104t136.5 38q47 0 84 -13.5t64 -39t44 -62.5q34 55 86 85t122 30q61 0 104.5 -25t66.5 -68.5t23 -98.5q0 -20 -3.5 -41.5t-10.5 -44.5h-364q-1 -5 -1 -11v-11q0 -44 18 -78t51 -52.5t77 -18.5q52 0 85.5 21 t54.5 56l63 -42q-33 -48 -86 -76t-124 -28q-45 0 -82 13t-64 37.5t-45 59.5q-34 -53 -85 -81.5t-117 -28.5zM282 60q38 0 70 16t56 45.5t37 70t13 90.5q0 44 -16 80t-48 57t-81 21q-38 0 -70 -16t-56 -45.5t-37 -70t-13 -90.5q0 -66 36 -112t109 -46zM544 301h288q1 5 1 9.5 v8.5q0 36 -14.5 63.5t-41.5 42.5t-65 15q-47 0 -81 -19t-55 -50.5t-32 -69.5z" glyph-name="oe" horiz-adv-x="967" unicode="œ"/><glyph d="M47 0l153 660h216q89 0 141.5 -47.5t52.5 -131.5q0 -56 -25.5 -100t-67 -71.5t-89.5 -36.5l-50 -7h-205l17 75h180q53 0 88 19.5t52 52t17 71.5q0 50 -34 75.5t-93 25.5h-137l-136 -585h-80zM469 0l-113 281l81 10l119 -291h-87zM468 902h93l-121 -159h-68z" glyph-name="Racute" horiz-adv-x="637" unicode="Ŕ"/><glyph d="M31 0l116 500h65l-11 -115l-12 7q16 37 44 63.5t63.5 40.5t70.5 14q16 0 28.5 -2t22.5 -7l-24 -76q-10 5 -22.5 7.5t-29.5 2.5q-38 0 -71.5 -17.5t-58.5 -53.5t-38 -93l-63 -271h-80zM366 750h96l-143 -167h-75z" glyph-name="racute" horiz-adv-x="388" unicode="ŕ"/><glyph d="M47 0l153 660h216q89 0 141.5 -47.5t52.5 -131.5q0 -56 -25.5 -100t-67 -71.5t-89.5 -36.5l-50 -7h-205l17 75h180q53 0 88 19.5t52 52t17 71.5q0 50 -34 75.5t-93 25.5h-137l-136 -585h-80zM469 0l-113 281l81 10l119 -291h-87zM341 -76l-101 -161h-69l81 161h89z" glyph-name="uni0156" horiz-adv-x="637" unicode="Ŗ"/><glyph d="M31 0l116 500h65l-11 -115l-12 7q16 37 44 63.5t63.5 40.5t70.5 14q16 0 28.5 -2t22.5 -7l-24 -76q-10 5 -22.5 7.5t-29.5 2.5q-38 0 -71.5 -17.5t-58.5 -53.5t-38 -93l-63 -271h-80zM107 -76l-101 -161h-69l81 161h89z" glyph-name="uni0157" horiz-adv-x="388" unicode="ŗ"/><glyph d="M47 0l153 660h216q89 0 141.5 -47.5t52.5 -131.5q0 -56 -25.5 -100t-67 -71.5t-89.5 -36.5l-50 -7h-205l17 75h180q53 0 88 19.5t52 52t17 71.5q0 50 -34 75.5t-93 25.5h-137l-136 -585h-80zM469 0l-113 281l81 10l119 -291h-87zM378 743l-73 159h68l57 -106l103 106h80 l-147 -159h-88z" glyph-name="Rcaron" horiz-adv-x="637" unicode="Ř"/><glyph d="M31 0l116 500h65l-11 -115l-12 7q16 37 44 63.5t63.5 40.5t70.5 14q16 0 28.5 -2t22.5 -7l-24 -76q-10 5 -22.5 7.5t-29.5 2.5q-38 0 -71.5 -17.5t-58.5 -53.5t-38 -93l-63 -271h-80zM249 583l-76 167h69l60 -114l111 114h78l-152 -167h-90z" glyph-name="rcaron" horiz-adv-x="388" unicode="ř"/><glyph d="M337 -8q-74 0 -133.5 22.5t-101 65.5t-63.5 107l80 40q17 -58 50 -93.5t78 -51t97 -15.5q49 0 82 16.5t49.5 43t16.5 56.5q0 37 -23.5 58t-68.5 34l-107 30q-51 15 -86.5 39t-54 57t-18.5 72q0 55 29.5 100t83 71.5t126.5 26.5q97 0 162 -40t93 -122l-80 -39 q-13 52 -41 79t-64 37t-75 10q-50 0 -84 -15t-50.5 -40t-16.5 -55q0 -34 26 -61.5t70 -40.5l119 -34q73 -21 108 -59.5t35 -94.5q0 -62 -32.5 -108t-86.5 -71t-119 -25zM462 902h93l-121 -159h-68z" glyph-name="Sacute" horiz-adv-x="639" unicode="Ś"/><glyph d="M252 -11q-58 0 -104.5 18t-79 51t-49.5 78l76 33q19 -55 59 -82.5t102 -27.5q53 0 80.5 23.5t27.5 57.5q0 26 -15 41t-47 24l-89 25q-62 17 -93 51.5t-31 79.5q0 42 23 75.5t66 53.5t102 20q71 0 125 -32t77 -93l-73 -35q-9 28 -28 48.5t-45.5 31.5t-60.5 11 q-55 0 -81.5 -20t-26.5 -53q0 -28 19.5 -44.5t48.5 -24.5l98 -28q51 -14 80.5 -46t29.5 -74q0 -50 -25 -86.5t-68 -56t-98 -19.5zM383 750h96l-143 -167h-75z" glyph-name="sacute" horiz-adv-x="512" unicode="ś"/><glyph d="M337 -8q-74 0 -133.5 22.5t-101 65.5t-63.5 107l80 40q17 -58 50 -93.5t78 -51t97 -15.5q49 0 82 16.5t49.5 43t16.5 56.5q0 37 -23.5 58t-68.5 34l-107 30q-51 15 -86.5 39t-54 57t-18.5 72q0 55 29.5 100t83 71.5t126.5 26.5q97 0 162 -40t93 -122l-80 -39 q-13 52 -41 79t-64 37t-75 10q-50 0 -84 -15t-50.5 -40t-16.5 -55q0 -34 26 -61.5t70 -40.5l119 -34q73 -21 108 -59.5t35 -94.5q0 -62 -32.5 -108t-86.5 -71t-119 -25zM495 902l73 -159h-68l-57 106l-103 -106h-80l147 159h88z" glyph-name="Scircumflex" horiz-adv-x="639" unicode="Ŝ"/><glyph d="M252 -11q-58 0 -104.5 18t-79 51t-49.5 78l76 33q19 -55 59 -82.5t102 -27.5q53 0 80.5 23.5t27.5 57.5q0 26 -15 41t-47 24l-89 25q-62 17 -93 51.5t-31 79.5q0 42 23 75.5t66 53.5t102 20q71 0 125 -32t77 -93l-73 -35q-9 28 -28 48.5t-45.5 31.5t-60.5 11 q-55 0 -81.5 -20t-26.5 -53q0 -28 19.5 -44.5t48.5 -24.5l98 -28q51 -14 80.5 -46t29.5 -74q0 -50 -25 -86.5t-68 -56t-98 -19.5zM150 576l152 167h90l76 -167h-69l-60 114l-111 -114h-78z" glyph-name="scircumflex" horiz-adv-x="512" unicode="ŝ"/><glyph d="M337 -8q-74 0 -133.5 22.5t-101 65.5t-63.5 107l80 40q17 -58 50 -93.5t78 -51t97 -15.5q49 0 82 16.5t49.5 43t16.5 56.5q0 37 -23.5 58t-68.5 34l-107 30q-51 15 -86.5 39t-54 57t-18.5 72q0 55 29.5 100t83 71.5t126.5 26.5q97 0 162 -40t93 -122l-80 -39 q-13 52 -41 79t-64 37t-75 10q-50 0 -84 -15t-50.5 -40t-16.5 -55q0 -34 26 -61.5t70 -40.5l119 -34q73 -21 108 -59.5t35 -94.5q0 -62 -32.5 -108t-86.5 -71t-119 -25zM244 6l46 23q44 -19 67.5 -48t23.5 -71q0 -41 -18.5 -69t-48 -42t-63.5 -14q-35 0 -62.5 14t-39.5 30 l32 50q14 -16 33 -23.5t40 -7.5q29 0 47 18.5t18 46.5q0 32 -19 53t-56 40z" glyph-name="Scedilla" horiz-adv-x="639" unicode="Ş"/><glyph d="M252 -11q-58 0 -104.5 18t-79 51t-49.5 78l76 33q19 -55 59 -82.5t102 -27.5q53 0 80.5 23.5t27.5 57.5q0 26 -15 41t-47 24l-89 25q-62 17 -93 51.5t-31 79.5q0 42 23 75.5t66 53.5t102 20q71 0 125 -32t77 -93l-73 -35q-9 28 -28 48.5t-45.5 31.5t-60.5 11 q-55 0 -81.5 -20t-26.5 -53q0 -28 19.5 -44.5t48.5 -24.5l98 -28q51 -14 80.5 -46t29.5 -74q0 -50 -25 -86.5t-68 -56t-98 -19.5zM179 6l46 23q44 -19 67.5 -48t23.5 -71q0 -41 -18.5 -69t-48 -42t-63.5 -14q-35 0 -62.5 14t-39.5 30l32 50q14 -16 33 -23.5t40 -7.5 q29 0 47 18.5t18 46.5q0 32 -19 53t-56 40z" glyph-name="scedilla" horiz-adv-x="512" unicode="ş"/><glyph d="M337 -8q-74 0 -133.5 22.5t-101 65.5t-63.5 107l80 40q17 -58 50 -93.5t78 -51t97 -15.5q49 0 82 16.5t49.5 43t16.5 56.5q0 37 -23.5 58t-68.5 34l-107 30q-51 15 -86.5 39t-54 57t-18.5 72q0 55 29.5 100t83 71.5t126.5 26.5q97 0 162 -40t93 -122l-80 -39 q-13 52 -41 79t-64 37t-75 10q-50 0 -84 -15t-50.5 -40t-16.5 -55q0 -34 26 -61.5t70 -40.5l119 -34q73 -21 108 -59.5t35 -94.5q0 -62 -32.5 -108t-86.5 -71t-119 -25zM372 743l-73 159h68l57 -106l103 106h80l-147 -159h-88z" glyph-name="Scaron" horiz-adv-x="639" unicode="Š"/><glyph d="M252 -11q-58 0 -104.5 18t-79 51t-49.5 78l76 33q19 -55 59 -82.5t102 -27.5q53 0 80.5 23.5t27.5 57.5q0 26 -15 41t-47 24l-89 25q-62 17 -93 51.5t-31 79.5q0 42 23 75.5t66 53.5t102 20q71 0 125 -32t77 -93l-73 -35q-9 28 -28 48.5t-45.5 31.5t-60.5 11 q-55 0 -81.5 -20t-26.5 -53q0 -28 19.5 -44.5t48.5 -24.5l98 -28q51 -14 80.5 -46t29.5 -74q0 -50 -25 -86.5t-68 -56t-98 -19.5zM266 583l-76 167h69l60 -114l111 114h78l-152 -167h-90z" glyph-name="scaron" horiz-adv-x="512" unicode="š"/><glyph d="M205 -215q-35 0 -62.5 14t-39.5 30l32 50q14 -16 33 -23.5t40 -7.5q29 0 47 18.5t18 46.5q0 32 -19 52.5t-54 34.5l44 29q44 -19 67.5 -48t23.5 -71q0 -41 -18.5 -69t-48 -42t-63.5 -14zM656 660l-18 -75h-223l-135 -585h-80l135 585h-227l18 75h530z" glyph-name="uni0162" horiz-adv-x="592" unicode="Ţ"/><glyph d="M235 -8q-48 0 -82 19t-48 55t-3 86l105 458l87 25l-114 -487q-10 -46 12.5 -65.5t56.5 -19.5q25 0 44 7t33 18l16 -66q-25 -17 -51 -23.5t-56 -6.5zM65 431l16 69h336l-16 -69h-336zM167 6l46 23q44 -19 67.5 -48t23.5 -71q0 -41 -18.5 -69t-48 -42t-63.5 -14 q-35 0 -62.5 14t-39.5 30l32 50q14 -16 33 -23.5t40 -7.5q29 0 47 18.5t18 46.5q0 32 -19 53t-56 40z" glyph-name="uni0163" horiz-adv-x="402" unicode="ţ"/><glyph d="M656 660l-18 -75h-223l-135 -585h-80l135 585h-227l18 75h530zM366 743l-73 159h68l57 -106l103 106h80l-147 -159h-88z" glyph-name="Tcaron" horiz-adv-x="592" unicode="Ť"/><glyph d="M480 767l-84 -197h-60l66 197h78zM235 -8q-48 0 -82 19t-48 55t-3 86l105 458l87 25l-114 -487q-10 -46 12.5 -65.5t56.5 -19.5q25 0 44 7t33 18l16 -66q-25 -17 -51 -23.5t-56 -6.5zM65 431l16 69h336l-16 -69h-336z" glyph-name="tcaron" horiz-adv-x="402" unicode="ť"/><glyph d="M656 660l-18 -75h-223l-135 -585h-80l135 585h-227l18 75h530zM522 359l-17 -75h-397l17 75h397z" glyph-name="Tbar" horiz-adv-x="592" unicode="Ŧ"/><glyph d="M381 340l-14 -61h-334l14 61h334zM235 -8q-48 0 -82 19t-48 55t-3 86l105 458l87 25l-114 -487q-10 -46 12.5 -65.5t56.5 -19.5q25 0 44 7t33 18l16 -66q-25 -17 -51 -23.5t-56 -6.5zM65 431l16 69h336l-16 -69h-336z" glyph-name="tbar" horiz-adv-x="402" unicode="ŧ"/><glyph d="M325 -10q-87 0 -145.5 35t-80 101.5t-0.5 159.5l88 374h80l-90 -393q-15 -67 1 -112t55.5 -67.5t96.5 -22.5q80 0 126 50t65 134l95 411h80l-100 -434q-25 -106 -93 -171t-178 -65zM646 857q-11 -65 -45.5 -99.5t-78.5 -34.5q-26 0 -44 10.5t-31 24t-25 24t-27 10.5 q-18 0 -32.5 -19t-22.5 -51h-63q11 65 45.5 99.5t78.5 34.5q26 0 44 -10.5t31 -24t25 -24t27 -10.5q18 0 32.5 19t22.5 51h63z" glyph-name="Utilde" horiz-adv-x="693" unicode="Ũ"/><glyph d="M228 -8q-54 0 -95.5 24.5t-60 71t-3.5 111.5l70 301h80l-69 -299q-16 -67 12.5 -103t86.5 -36q46 0 81 20t59 59t37 96l61 263h80l-116 -500h-70l19 112l10 -5q-20 -58 -70 -86.5t-112 -28.5zM559 707q-11 -65 -45.5 -99.5t-78.5 -34.5q-26 0 -44 10.5t-31 24t-25 24 t-27 10.5q-18 0 -32.5 -19t-22.5 -51h-63q11 65 45.5 99.5t78.5 34.5q26 0 44 -10.5t31 -24t25 -24t27 -10.5q18 0 32.5 19t22.5 51h63z" glyph-name="utilde" horiz-adv-x="598" unicode="ũ"/><glyph d="M325 -10q-87 0 -145.5 35t-80 101.5t-0.5 159.5l88 374h80l-90 -393q-15 -67 1 -112t55.5 -67.5t96.5 -22.5q80 0 126 50t65 134l95 411h80l-100 -434q-25 -106 -93 -171t-178 -65zM621 803l-15 -67h-314l15 67h314z" glyph-name="Umacron" horiz-adv-x="693" unicode="Ū"/><glyph d="M228 -8q-54 0 -95.5 24.5t-60 71t-3.5 111.5l70 301h80l-69 -299q-16 -67 12.5 -103t86.5 -36q46 0 81 20t59 59t37 96l61 263h80l-116 -500h-70l19 112l10 -5q-20 -58 -70 -86.5t-112 -28.5zM534 653l-15 -67h-314l15 67h314z" glyph-name="umacron" horiz-adv-x="598" unicode="ū"/><glyph d="M325 -10q-87 0 -145.5 35t-80 101.5t-0.5 159.5l88 374h80l-90 -393q-15 -67 1 -112t55.5 -67.5t96.5 -22.5q80 0 126 50t65 134l95 411h80l-100 -434q-25 -106 -93 -171t-178 -65zM621 865q-10 -67 -56 -107.5t-114 -40.5q-59 0 -94.5 33.5t-35.5 82.5q0 8 1 16t3 16h60 q-1 -4 -1.5 -9t-0.5 -9q0 -33 20.5 -51.5t54.5 -18.5q37 0 64.5 22t34.5 66h64z" glyph-name="Ubreve" horiz-adv-x="693" unicode="Ŭ"/><glyph d="M228 -8q-54 0 -95.5 24.5t-60 71t-3.5 111.5l70 301h80l-69 -299q-16 -67 12.5 -103t86.5 -36q46 0 81 20t59 59t37 96l61 263h80l-116 -500h-70l19 112l10 -5q-20 -58 -70 -86.5t-112 -28.5zM538 715q-10 -67 -56 -107.5t-114 -40.5q-59 0 -94.5 33.5t-35.5 82.5 q0 8 1 16t3 16h60q-1 -4 -1.5 -9t-0.5 -9q0 -33 20.5 -51.5t54.5 -18.5q37 0 64.5 22t34.5 66h64z" glyph-name="ubreve" horiz-adv-x="598" unicode="ŭ"/><glyph d="M325 -10q-87 0 -145.5 35t-80 101.5t-0.5 159.5l88 374h80l-90 -393q-15 -67 1 -112t55.5 -67.5t96.5 -22.5q80 0 126 50t65 134l95 411h80l-100 -434q-25 -106 -93 -171t-178 -65zM458 921q51 0 84 -31.5t33 -76.5q0 -56 -36.5 -92.5t-91.5 -36.5q-51 0 -84 31.5 t-33 76.5q0 56 36.5 92.5t91.5 36.5zM457 871q-30 0 -51 -20t-21 -54q0 -27 19 -45t46 -18q29 0 49.5 20t20.5 54q0 27 -17 45t-46 18z" glyph-name="Uring" horiz-adv-x="693" unicode="Ů"/><glyph d="M228 -8q-54 0 -95.5 24.5t-60 71t-3.5 111.5l70 301h80l-69 -299q-16 -67 12.5 -103t86.5 -36q46 0 81 20t59 59t37 96l61 263h80l-116 -500h-70l19 112l10 -5q-20 -58 -70 -86.5t-112 -28.5zM388 803q51 0 84 -31.5t33 -76.5q0 -56 -36.5 -92.5t-91.5 -36.5 q-51 0 -84 31.5t-33 76.5q0 56 36.5 92.5t91.5 36.5zM387 753q-30 0 -51 -20t-21 -54q0 -27 19 -45t46 -18q29 0 49.5 20t20.5 54q0 27 -17 45t-46 18z" glyph-name="uring" horiz-adv-x="598" unicode="ů"/><glyph d="M325 -10q-87 0 -145.5 35t-80 101.5t-0.5 159.5l88 374h80l-90 -393q-15 -67 1 -112t55.5 -67.5t96.5 -22.5q80 0 126 50t65 134l95 411h80l-100 -434q-25 -106 -93 -171t-178 -65zM499 723l96 159h93l-121 -159h-68zM322 723l96 159h93l-121 -159h-68z" glyph-name="Uhungarumlaut" horiz-adv-x="693" unicode="Ű"/><glyph d="M228 -8q-54 0 -95.5 24.5t-60 71t-3.5 111.5l70 301h80l-69 -299q-16 -67 12.5 -103t86.5 -36q46 0 81 20t59 59t37 96l61 263h80l-116 -500h-70l19 112l10 -5q-20 -58 -70 -86.5t-112 -28.5zM411 573l122 167h96l-143 -167h-75zM229 573l122 167h96l-143 -167h-75z" glyph-name="uhungarumlaut" horiz-adv-x="598" unicode="ű"/><glyph d="M325 -10q-87 0 -145.5 35t-80 101.5t-0.5 159.5l88 374h80l-90 -393q-15 -67 1 -112t55.5 -67.5t96.5 -22.5q80 0 126 50t65 134l95 411h80l-100 -434q-25 -106 -93 -171t-178 -65zM307 -216q-29 0 -54.5 11t-41 33t-15.5 55q0 32 16 58t53 48.5t98 42.5l37 -30 q-37 -12 -69.5 -27.5t-52 -36t-19.5 -48.5t19.5 -38.5t41.5 -10.5q12 0 21 2t19 5l-6 -56q-10 -4 -22 -6t-25 -2z" glyph-name="Uogonek" horiz-adv-x="693" unicode="Ų"/><glyph d="M363 -218q-29 0 -53 9t-38.5 28.5t-14.5 50.5q0 28 16 55t51 53.5t90 51.5l37 -30q-70 -38 -100.5 -65t-30.5 -56q0 -25 17 -32.5t39 -7.5q12 0 21 2t19 5l-6 -56q-10 -4 -22 -6t-25 -2zM228 -8q-54 0 -95.5 24.5t-60 71t-3.5 111.5l70 301h80l-69 -299 q-16 -67 12.5 -103t86.5 -36q46 0 81 20t59 59t37 96l61 263h80l-116 -500h-70l19 112l10 -5q-20 -58 -70 -86.5t-112 -28.5z" glyph-name="uogonek" horiz-adv-x="598" unicode="ų"/><glyph d="M166 0l-38 660h77l27 -577l275 577h98l18 -582l292 582h86l-343 -660h-101l-18 428l-1 149h-1l-66 -149l-208 -428h-97zM656 902l73 -159h-68l-57 106l-103 -106h-80l147 159h88z" glyph-name="Wcircumflex" horiz-adv-x="939" unicode="Ŵ"/><glyph d="M130 0l-54 500h77l38 -400l211 400h80l51 -406l216 406h85l-276 -500h-80l-55 397l-212 -397h-81zM288 576l152 167h90l76 -167h-69l-60 114l-111 -114h-78z" glyph-name="wcircumflex" horiz-adv-x="803" unicode="ŵ"/><glyph d="M183 0l60 258l-133 402h86l72 -229l27 -98l75 104l176 223h96l-320 -409l-59 -251h-80zM457 882l73 -159h-68l-57 106l-103 -106h-80l147 159h88z" glyph-name="Ycircumflex" horiz-adv-x="562" unicode="Ŷ"/><glyph d="M12 -215q-38 0 -65.5 9t-45.5 25l32 67q34 -31 76 -31q32 0 56.5 18t48.5 56l47 75l-88 496h79l46 -286l20 -125l70 117l177 294h91l-378 -598q-26 -41 -53.5 -67t-55.5 -38t-57 -12zM157 566l152 167h90l76 -167h-69l-60 114l-111 -114h-78z" glyph-name="ycircumflex" horiz-adv-x="504" unicode="ŷ"/><glyph d="M183 0l60 258l-133 402h86l72 -229l27 -98l75 104l176 223h96l-320 -409l-59 -251h-80zM481 722q-22 0 -36 14t-14 35q0 30 18 47.5t44 17.5q22 0 36 -14t14 -35q0 -30 -18 -47.5t-44 -17.5zM287 722q-22 0 -36 14t-14 35q0 30 18 47.5t44 17.5q22 0 36 -14t14 -35 q0 -30 -18 -47.5t-44 -17.5z" glyph-name="Ydieresis" horiz-adv-x="562" unicode="Ÿ"/><glyph d="M-3 0l17 73l490 512h-374l18 75h475l-17 -72l-492 -513h401l-18 -75h-500zM437 902h93l-121 -159h-68z" glyph-name="Zacute" horiz-adv-x="591" unicode="Ź"/><glyph d="M1 0l15 65l329 318l55 50l-88 -2h-216l16 69h397l-16 -69l-303 -291l-78 -71h108h210l-16 -69h-413zM381 750h96l-143 -167h-75z" glyph-name="zacute" horiz-adv-x="513" unicode="ź"/><glyph d="M-3 0l17 73l490 512h-374l18 75h475l-17 -72l-492 -513h401l-18 -75h-500zM404 756q-24 0 -39 14.5t-15 37.5q0 31 18.5 49.5t44.5 18.5q24 0 39 -14.5t15 -37.5q0 -31 -18.5 -49.5t-44.5 -18.5z" glyph-name="Zdotaccent" horiz-adv-x="591" unicode="Ż"/><glyph d="M1 0l15 65l329 318l55 50l-88 -2h-216l16 69h397l-16 -69l-303 -291l-78 -71h108h210l-16 -69h-413zM325 596q-24 0 -39 14.5t-15 37.5q0 31 18.5 49.5t44.5 18.5q24 0 39 -14.5t15 -37.5q0 -31 -18.5 -49.5t-44.5 -18.5z" glyph-name="zdotaccent" horiz-adv-x="513" unicode="ż"/><glyph d="M-3 0l17 73l490 512h-374l18 75h475l-17 -72l-492 -513h401l-18 -75h-500zM347 743l-73 159h68l57 -106l103 106h80l-147 -159h-88z" glyph-name="Zcaron" horiz-adv-x="591" unicode="Ž"/><glyph d="M1 0l15 65l329 318l55 50l-88 -2h-216l16 69h397l-16 -69l-303 -291l-78 -71h108h210l-16 -69h-413zM264 583l-76 167h69l60 -114l111 114h78l-152 -167h-90z" glyph-name="zcaron" horiz-adv-x="513" unicode="ž"/><glyph d="M28 0l135 584q10 44 31 78t55 53.5t82 19.5q29 0 46 -6t25 -17l-30 -65q-16 15 -41 15q-33 0 -56 -20.5t-34 -65.5l-133 -576h-80z" glyph-name="longs" horiz-adv-x="257" unicode="ſ"/><glyph d="M341 -10q-82 0 -139.5 35.5t-87 96.5t-29.5 138q0 23 3 46.5t8 48.5h494v10v10q0 69 -23 118t-65.5 75t-101.5 26q-64 0 -115.5 -25.5t-82.5 -85.5l-69 40q42 77 114 112t163 35q72 0 131 -32.5t95.5 -94t37.5 -150.5q2 -78 -18 -150.5t-62 -129.5t-105 -90t-148 -33z M351 66q66 0 112 28.5t75 76t42 104.5h-411q-2 -61 17.5 -108.5t61 -74t103.5 -26.5z" glyph-name="uni018F" horiz-adv-x="723" unicode="Ə"/><glyph d="M491 735q29 0 50 -5t41 -19l-28 -72q-13 12 -28 17.5t-37 5.5q-32 0 -57.5 -21t-42.5 -65l-215 -553q-29 -75 -74 -113t-101 -38q-30 0 -53 5t-44 19l29 72q30 -23 73 -23q32 0 53.5 21t37.5 65l216 553q29 75 73 113t107 38zM469 400l-16 -69h-380l16 69h380z" glyph-name="florin" horiz-adv-x="488" unicode="ƒ"/><glyph d="M559 611l-69 51q47 -8 80 -3t54 20t32.5 38t15.5 51h82q-9 -57 -38 -97t-70 -56.5t-87 -3.5zM359 -10q-74 0 -136.5 33.5t-100 98.5t-37.5 158q0 77 22 147t64.5 124.5t106 86.5t145.5 32q74 0 135.5 -34t98.5 -98.5t37 -157.5q0 -76 -21.5 -146t-64 -125t-105 -87 t-144.5 -32zM368 66q60 0 105 26t75.5 70.5t46 99.5t15.5 113q0 69 -25 118t-69 75t-103 26q-60 0 -105.5 -26t-76.5 -70t-46.5 -99t-15.5 -114q0 -69 25 -118t69.5 -75t104.5 -26z" glyph-name="Ohorn" horiz-adv-x="742" unicode="Ơ"/><glyph d="M404 453l-24 48q47 -9 76 3t45.5 41.5t24.5 72.5h69q-8 -68 -37 -109t-69.5 -54.5t-84.5 -1.5zM282 -9q-72 0 -122.5 30.5t-77 82t-26.5 112.5q0 86 33 152t91 103.5t134 37.5q73 0 123 -30.5t76 -81t26 -112.5q0 -85 -32.5 -151.5t-90.5 -104.5t-134 -38zM285 60 q36 0 67.5 15.5t55.5 45t37 70.5t13 91q0 44 -15.5 79.5t-48 57t-83.5 21.5q-36 0 -68 -15.5t-55.5 -44.5t-37 -70t-13.5 -91q0 -43 16 -79.5t49 -58t83 -21.5z" glyph-name="ohorn" horiz-adv-x="595" unicode="ơ"/><glyph d="M325 -10q-87 0 -145.5 35t-80 101.5t-0.5 159.5l88 374h80l-90 -393q-15 -67 1 -112t55.5 -67.5t96.5 -22.5q80 0 126 50t65 134l95 411h80l-100 -434q-25 -106 -93 -171t-178 -65zM615 607l15 53q33 0 60.5 25.5t36.5 82.5h81q-9 -59 -37 -98.5t-68.5 -56t-87.5 -6.5z" glyph-name="Uhorn" horiz-adv-x="693" unicode="Ư"/><glyph d="M228 -8q-54 0 -95.5 24.5t-60 71t-3.5 111.5l70 301h80l-69 -299q-16 -67 12.5 -103t86.5 -36q46 0 81 20t59 59t37 96l61 263h80l-116 -500h-70l19 112l10 -5q-20 -58 -70 -86.5t-112 -28.5zM535 454l-24 46q33 0 60 26t41 92h68q-8 -63 -31 -99t-53 -50.5t-61 -14.5z" glyph-name="uhorn" horiz-adv-x="598" unicode="ư"/><glyph d="M47 0l153 660h191q85 0 145 -35t92.5 -96t32.5 -139q0 -83 -26.5 -154t-75.5 -124t-117.5 -82.5t-151.5 -29.5h-243zM144 75h158q63 0 113.5 24.5t86 67t54.5 97t19 114.5q0 59 -21 105.5t-64 74t-109 27.5h-118zM690 0l17 73l490 512h-374l18 75h475l-17 -72l-492 -513 h401l-18 -75h-500zM1040 743l-73 159h68l57 -106l103 106h80l-147 -159h-88z" glyph-name="uni01C4" horiz-adv-x="1284" unicode="Ǆ"/><glyph d="M47 0l153 660h191q85 0 145 -35t92.5 -96t32.5 -139q0 -83 -26.5 -154t-75.5 -124t-117.5 -82.5t-151.5 -29.5h-243zM144 75h158q63 0 113.5 24.5t86 67t54.5 97t19 114.5q0 59 -21 105.5t-64 74t-109 27.5h-118zM701 0l15 65l329 318l55 50l-88 -2h-216l16 69h397 l-16 -69l-303 -291l-78 -71h108h210l-16 -69h-413zM964 583l-76 167h69l60 -114l111 114h78l-152 -167h-90z" glyph-name="uni01C5" horiz-adv-x="1213" unicode="ǅ"/><glyph d="M251 -8q-58 0 -102 28t-69 77.5t-25 114.5q0 62 19 116t53 95t81 64t102 23q44 0 79 -15t58 -42.5t32 -65.5l79 343h80l-169 -730h-70l17 93q-24 -46 -68.5 -73.5t-96.5 -27.5zM271 60q36 0 68 18t56 49.5t38 74t14 91.5q0 45 -16.5 78.5t-46 51.5t-69.5 18t-73 -17.5 t-57 -48.5t-37.5 -72.5t-13.5 -89.5q0 -49 16 -83t46.5 -52t74.5 -18zM617 0l15 65l329 318l55 50l-88 -2h-216l16 69h397l-16 -69l-303 -291l-78 -71h108h210l-16 -69h-413zM880 583l-76 167h69l60 -114l111 114h78l-152 -167h-90z" glyph-name="uni01C6" horiz-adv-x="1129" unicode="ǆ"/><glyph d="M144 75h371l-18 -75h-450l153 660h80zM800 -8q-52 0 -92 19t-63 53t-27 79t14 97l76 5q-17 -52 -12.5 -93t32.5 -64.5t79 -23.5q65 0 97 37.5t51 125.5l100 433h81l-105 -453q-14 -61 -41 -110t-72.5 -77t-117.5 -28z" glyph-name="uni01C7" horiz-adv-x="1135" unicode="Ǉ"/><glyph d="M144 75h371l-18 -75h-450l153 660h80zM804 596q-24 0 -39 14.5t-15 37.5q0 31 18.5 49.5t44.5 18.5q24 0 39 -14.5t15 -37.5q0 -31 -18.5 -49.5t-44.5 -18.5zM533 -215q-30 0 -59.5 9t-46.5 27l28 72q14 -12 33.5 -20t38.5 -8q28 0 46.5 16t28.5 62l131 557h80l-134 -578 q-16 -71 -57.5 -104t-88.5 -33z" glyph-name="uni01C8" horiz-adv-x="844" unicode="ǈ"/><glyph d="M168 -7q-69 0 -96 41.5t-11 108.5l136 587h80l-137 -590q-10 -41 6 -59t55 -18q15 0 26 1t21 3l-20 -64q-16 -6 -29 -8t-31 -2zM521 596q-24 0 -39 14.5t-15 37.5q0 31 18.5 49.5t44.5 18.5q24 0 39 -14.5t15 -37.5q0 -31 -18.5 -49.5t-44.5 -18.5zM250 -215 q-30 0 -59.5 9t-46.5 27l28 72q14 -12 33.5 -20t38.5 -8q28 0 46.5 16t28.5 62l131 557h80l-134 -578q-16 -71 -57.5 -104t-88.5 -33z" glyph-name="uni01C9" horiz-adv-x="561" unicode="ǉ"/><glyph d="M47 0l153 660h96l164 -440l43 -132h1l21 106l108 466h76l-153 -660h-95l-167 442l-41 130h-1l-21 -106l-108 -466h-76zM933 -8q-52 0 -92 19t-63 53t-27 79t14 97l76 5q-17 -52 -12.5 -93t32.5 -64.5t79 -23.5q65 0 97 37.5t51 125.5l100 433h81l-105 -453 q-14 -61 -41 -110t-72.5 -77t-117.5 -28z" glyph-name="uni01CA" horiz-adv-x="1268" unicode="Ǌ"/><glyph d="M47 0l153 660h96l164 -440l43 -132h1l21 106l108 466h76l-153 -660h-95l-167 442l-41 130h-1l-21 -106l-108 -466h-76zM937 596q-24 0 -39 14.5t-15 37.5q0 31 18.5 49.5t44.5 18.5q24 0 39 -14.5t15 -37.5q0 -31 -18.5 -49.5t-44.5 -18.5zM666 -215q-30 0 -59.5 9 t-46.5 27l28 72q14 -12 33.5 -20t38.5 -8q28 0 46.5 16t28.5 62l131 557h80l-134 -578q-16 -71 -57.5 -104t-88.5 -33z" glyph-name="uni01CB" horiz-adv-x="977" unicode="ǋ"/><glyph d="M31 0l116 500h70l-19 -112l-10 5q20 59 73 88t114 29q58 0 98 -25t56.5 -71.5t1.5 -112.5l-70 -301h-80l70 302q15 65 -12.5 101.5t-86.5 36.5q-46 0 -81.5 -20.5t-60 -59.5t-38.5 -97l-61 -263h-80zM818 596q-24 0 -39 14.5t-15 37.5q0 31 18.5 49.5t44.5 18.5 q24 0 39 -14.5t15 -37.5q0 -31 -18.5 -49.5t-44.5 -18.5zM547 -215q-30 0 -59.5 9t-46.5 27l28 72q14 -12 33.5 -20t38.5 -8q28 0 46.5 16t28.5 62l131 557h80l-134 -578q-16 -71 -57.5 -104t-88.5 -33z" glyph-name="uni01CC" horiz-adv-x="858" unicode="ǌ"/><glyph d="M343 -8q-70 0 -129 33.5t-94.5 97t-35.5 152.5q0 77 22.5 147.5t66 126.5t107.5 88.5t148 32.5q60 0 111.5 -17t89.5 -55.5t56 -104.5l-81 -28q-18 71 -65.5 101t-115.5 30q-62 0 -109.5 -26.5t-80 -71.5t-49 -100.5t-16.5 -113.5q0 -68 23.5 -116.5t66.5 -74t101 -25.5 q56 0 97 19.5t67 54.5t37 81l7 30h-206l17 75h277l-80 -328h-63l27 132l9 -11q-19 -41 -48 -70t-68 -44t-89 -15zM422 743l-73 159h68l57 -106l103 106h80l-147 -159h-88z" glyph-name="Gcaron" horiz-adv-x="707" unicode="Ǧ"/><glyph d="M213 -215q-43 0 -80.5 11.5t-66 32.5t-47 50.5t-25.5 66.5l80 28q11 -56 43.5 -87.5t101.5 -31.5q38 0 72 13.5t60 47t39 94.5l25 113l13 12q-15 -55 -63 -89.5t-111 -34.5q-58 0 -104 29t-72 78.5t-26 108.5q0 63 19 114.5t53 89.5t80.5 58.5t100.5 20.5 q51 0 89.5 -19.5t61.5 -55t25 -83.5l-15 -8l36 156h80l-117 -499q-18 -77 -54.5 -124.5t-86.5 -69.5t-111 -22zM275 80q47 0 85 28t60.5 76.5t22.5 110.5q0 45 -16 77.5t-46 50.5t-71 18q-52 0 -92 -26.5t-63 -74t-23 -111.5q0 -65 38 -107t105 -42zM297 583l-76 167h69 l60 -114l111 114h78l-152 -167h-90z" glyph-name="gcaron" horiz-adv-x="613" unicode="ǧ"/><glyph d="M359 -10q-74 0 -136.5 33.5t-100 98.5t-37.5 158q0 77 22 147t64.5 124.5t106 86.5t145.5 32q74 0 135.5 -34t98.5 -98.5t37 -157.5q0 -76 -21.5 -146t-64 -125t-105 -87t-144.5 -32zM368 66q60 0 105 26t75.5 70.5t46 99.5t15.5 113q0 69 -25 118t-69 75t-103 26 q-60 0 -105.5 -26t-76.5 -70t-46.5 -99t-15.5 -114q0 -69 25 -118t69.5 -75t104.5 -26zM357 -216q-29 0 -54.5 11t-41 33t-15.5 55q0 32 16 58t53 48.5t98 42.5l37 -30q-37 -12 -69.5 -27.5t-52 -36t-19.5 -48.5t19.5 -38.5t41.5 -10.5q12 0 21 2t19 5l-6 -56q-10 -4 -22 -6 t-25 -2z" glyph-name="uni01EA" horiz-adv-x="742" unicode="Ǫ"/><glyph d="M282 -9q-72 0 -122.5 30.5t-77 82t-26.5 112.5q0 86 33 152t91 103.5t134 37.5q73 0 123 -30.5t76 -81t26 -112.5q0 -85 -32.5 -151.5t-90.5 -104.5t-134 -38zM285 60q36 0 67.5 15.5t55.5 45t37 70.5t13 91q0 44 -15.5 79.5t-48 57t-83.5 21.5q-36 0 -68 -15.5 t-55.5 -44.5t-37 -70t-13.5 -91q0 -43 16 -79.5t49 -58t83 -21.5zM273 -213q-29 0 -54.5 11t-41 33t-15.5 55q0 32 16 58t53 48.5t98 42.5l37 -30q-37 -12 -69.5 -27.5t-52 -36t-19.5 -48.5t19.5 -38.5t41.5 -10.5q12 0 21 2t19 5l-6 -56q-10 -4 -22 -6t-25 -2z" glyph-name="uni01EB" horiz-adv-x="595" unicode="ǫ"/><glyph d="M47 0l153 660h191q85 0 145 -35t92.5 -96t32.5 -139q0 -83 -26.5 -154t-75.5 -124t-117.5 -82.5t-151.5 -29.5h-243zM144 75h158q63 0 113.5 24.5t86 67t54.5 97t19 114.5q0 59 -21 105.5t-64 74t-109 27.5h-118zM690 0l17 73l490 512h-374l18 75h475l-17 -72l-492 -513 h401l-18 -75h-500z" glyph-name="uni01F1" horiz-adv-x="1284" unicode="Ǳ"/><glyph d="M47 0l153 660h191q85 0 145 -35t92.5 -96t32.5 -139q0 -83 -26.5 -154t-75.5 -124t-117.5 -82.5t-151.5 -29.5h-243zM144 75h158q63 0 113.5 24.5t86 67t54.5 97t19 114.5q0 59 -21 105.5t-64 74t-109 27.5h-118zM701 0l15 65l329 318l55 50l-88 -2h-216l16 69h397 l-16 -69l-303 -291l-78 -71h108h210l-16 -69h-413z" glyph-name="uni01F2" horiz-adv-x="1213" unicode="ǲ"/><glyph d="M251 -8q-58 0 -102 28t-69 77.5t-25 114.5q0 62 19 116t53 95t81 64t102 23q44 0 79 -15t58 -42.5t32 -65.5l79 343h80l-169 -730h-70l17 93q-24 -46 -68.5 -73.5t-96.5 -27.5zM271 60q36 0 68 18t56 49.5t38 74t14 91.5q0 45 -16.5 78.5t-46 51.5t-69.5 18t-73 -17.5 t-57 -48.5t-37.5 -72.5t-13.5 -89.5q0 -49 16 -83t46.5 -52t74.5 -18zM617 0l15 65l329 318l55 50l-88 -2h-216l16 69h397l-16 -69l-303 -291l-78 -71h108h210l-16 -69h-413z" glyph-name="uni01F3" horiz-adv-x="1129" unicode="ǳ"/><glyph d="M-35 0l402 660h99l96 -660h-79l-69 474l-14 100v0l-58 -96l-287 -478h-90zM132 189l17 75h346l-17 -75h-346zM430 847q51 0 84 -31.5t33 -76.5q0 -56 -36.5 -92.5t-91.5 -36.5q-51 0 -84 31.5t-33 76.5q0 56 36.5 92.5t91.5 36.5zM429 797q-30 0 -51 -20t-21 -54 q0 -27 19 -45t46 -18q29 0 49.5 20t20.5 54q0 27 -17 45t-46 18zM500 1058h93l-121 -159h-68z" glyph-name="Aringacute" horiz-adv-x="643" unicode="Ǻ"/><glyph d="M251 -8q-58 0 -102 28t-69 77.5t-25 114.5q0 62 19 116t53 95t81 64t102 23q44 0 79 -15t58 -42.5t32 -65.5l26 113h80l-116 -500h-70l17 93q-24 -46 -68.5 -73.5t-96.5 -27.5zM272 60q35 0 66.5 18t56 49.5t38.5 74t14 91.5q0 45 -16.5 78.5t-46 51.5t-69.5 18 t-73 -17.5t-57 -48.5t-37.5 -72.5t-13.5 -89.5q0 -49 16 -83t46.5 -52t75.5 -18zM375 813q51 0 84 -31.5t33 -76.5q0 -56 -36.5 -92.5t-91.5 -36.5q-51 0 -84 31.5t-33 76.5q0 56 36.5 92.5t91.5 36.5zM374 763q-30 0 -51 -20t-21 -54q0 -27 19 -45t46 -18q29 0 49.5 20 t20.5 54q0 27 -17 45t-46 18zM361 852l82 130h83l-103 -130h-62z" glyph-name="aringacute" horiz-adv-x="616" unicode="ǻ"/><glyph d="M-52 0l525 660h491l-18 -75h-346l-50 -213h264l-17 -75h-264l-52 -222h363l-18 -75h-442l49 213h-222l-168 -213h-95zM271 288h180l69 297h-14zM642 902h93l-121 -159h-68z" glyph-name="AEacute" horiz-adv-x="935" unicode="Ǽ"/><glyph d="M206 -10q-84 0 -124.5 40.5t-40.5 98.5q0 45 23.5 75t64.5 47.5t94 24.5l194 25l-3 -62l-163 -22q-58 -8 -92.5 -25.5t-34.5 -59.5q0 -35 22 -54.5t67 -19.5q65 0 104 36t53 100l26 115q2 9 3 17.5t1 15.5q0 44 -30 71t-81 27q-55 0 -91.5 -22t-62.5 -71l-58 41 q31 59 86.5 90t133.5 31q44 0 78.5 -15.5t55.5 -40t23 -52.5l-13 4q20 32 51 55t71 36t86 13q55 0 95 -25t61.5 -68.5t21.5 -98.5q0 -20 -3.5 -41.5t-10.5 -44.5h-370l9 70h296q1 5 1 10v9q0 36 -14 63t-38 42t-56 15q-51 0 -86 -20.5t-56.5 -54t-31 -74.5t-9.5 -82 q0 -44 17.5 -78t49.5 -52.5t74 -18.5q48 0 81 21t54 56l63 -42q-22 -32 -53 -55.5t-69 -36t-83 -12.5q-57 0 -100.5 22t-68 58t-24.5 77l16 12q-4 -43 -31.5 -82t-73 -63.5t-104.5 -24.5zM549 750h96l-143 -167h-75z" glyph-name="aeacute" horiz-adv-x="883" unicode="ǽ"/><glyph d="M216 94l-40 42l386 430l37 -45zM44 -12l132 148l40 -42l-95 -106h-77zM599 521l-37 45l97 108h78zM359 -10q-74 0 -136.5 33.5t-100 98.5t-37.5 158q0 77 22 147t64.5 124.5t106 86.5t145.5 32q74 0 135.5 -34t98.5 -98.5t37 -157.5q0 -76 -21.5 -146t-64 -125t-105 -87 t-144.5 -32zM368 66q60 0 105 26t75.5 70.5t46 99.5t15.5 113q0 69 -25 118t-69 75t-103 26q-60 0 -105.5 -26t-76.5 -70t-46.5 -99t-15.5 -114q0 -69 25 -118t69.5 -75t104.5 -26zM502 902h93l-121 -159h-68z" glyph-name="Oslashacute" horiz-adv-x="742" unicode="Ǿ"/><glyph d="M282 -9q-72 0 -122.5 30.5t-77 82t-26.5 112.5q0 86 33 152t91 103.5t134 37.5q73 0 123 -30.5t76 -81t26 -112.5q0 -85 -32.5 -151.5t-90.5 -104.5t-134 -38zM285 60q36 0 67.5 15.5t55.5 45t37 70.5t13 91q0 44 -15.5 79.5t-48 57t-83.5 21.5q-36 0 -68 -15.5 t-55.5 -44.5t-37 -70t-13.5 -91q0 -43 16 -79.5t49 -58t83 -21.5zM12 -26l495 553h72l-495 -553h-72zM411 750h96l-143 -167h-75z" glyph-name="oslashacute" horiz-adv-x="595" unicode="ǿ"/><glyph d="M-35 0l402 660h99l96 -660h-79l-69 474l-14 100v0l-58 -96l-287 -478h-90zM132 189l17 75h346l-17 -75h-346zM332 902l40 -159h-57l-65 159h82zM492 902l40 -159h-57l-65 159h82z" glyph-name="uni0200" horiz-adv-x="643" unicode="Ȁ"/><glyph d="M251 -8q-58 0 -102 28t-69 77.5t-25 114.5q0 62 19 116t53 95t81 64t102 23q44 0 79 -15t58 -42.5t32 -65.5l26 113h80l-116 -500h-70l17 93q-24 -46 -68.5 -73.5t-96.5 -27.5zM272 60q35 0 66.5 18t56 49.5t38.5 74t14 91.5q0 45 -16.5 78.5t-46 51.5t-69.5 18 t-73 -17.5t-57 -48.5t-37.5 -72.5t-13.5 -89.5q0 -49 16 -83t46.5 -52t75.5 -18zM254 750l45 -167h-61l-64 167h80zM416 750l45 -167h-61l-64 167h80z" glyph-name="uni0201" horiz-adv-x="616" unicode="ȁ"/><glyph d="M-35 0l402 660h99l96 -660h-79l-69 474l-14 100v0l-58 -96l-287 -478h-90zM132 189l17 75h346l-17 -75h-346zM271 737q8 64 52.5 106t112.5 42q61 0 97.5 -34.5t36.5 -85.5q0 -7 -0.5 -13.5t-2.5 -14.5h-61q1 5 1.5 9.5t0.5 8.5q0 36 -23.5 53t-52.5 17 q-46 0 -68.5 -25.5t-27.5 -62.5h-65z" glyph-name="uni0202" horiz-adv-x="643" unicode="Ȃ"/><glyph d="M251 -8q-58 0 -102 28t-69 77.5t-25 114.5q0 62 19 116t53 95t81 64t102 23q44 0 79 -15t58 -42.5t32 -65.5l26 113h80l-116 -500h-70l17 93q-24 -46 -68.5 -73.5t-96.5 -27.5zM272 60q35 0 66.5 18t56 49.5t38.5 74t14 91.5q0 45 -16.5 78.5t-46 51.5t-69.5 18 t-73 -17.5t-57 -48.5t-37.5 -72.5t-13.5 -89.5q0 -49 16 -83t46.5 -52t75.5 -18zM193 577q8 64 52.5 106t112.5 42q61 0 97.5 -34.5t36.5 -85.5q0 -7 -0.5 -13.5t-2.5 -14.5h-61q1 5 1.5 9.5t0.5 8.5q0 36 -23.5 53t-52.5 17q-46 0 -68.5 -25.5t-27.5 -62.5h-65z" glyph-name="uni0203" horiz-adv-x="616" unicode="ȃ"/><glyph d="M47 0l153 660h453l-18 -75h-373l-49 -213h292l-17 -75h-292l-51 -222h389l-18 -75h-469zM344 902l40 -159h-57l-65 159h82zM504 902l40 -159h-57l-65 159h82z" glyph-name="uni0204" horiz-adv-x="625" unicode="Ȅ"/><glyph d="M276 -9q-69 0 -118.5 30t-75.5 81t-26 114q0 78 31 145t90.5 107.5t144.5 40.5q61 0 104.5 -25t66.5 -68.5t23 -98.5q0 -20 -3.5 -41.5t-10.5 -44.5h-407v70h372l-35 -28q3 12 4.5 24t1.5 23q0 36 -14.5 63t-41.5 42t-65 15q-49 0 -83.5 -19.5t-56 -52.5t-31 -73.5 t-9.5 -81.5q0 -45 18.5 -79.5t51.5 -54t78 -19.5q51 1 84 22t54 55l63 -42q-22 -32 -53 -55.5t-70.5 -36t-86.5 -12.5zM244 750l45 -167h-61l-64 167h80zM406 750l45 -167h-61l-64 167h80z" glyph-name="uni0205" horiz-adv-x="572" unicode="ȅ"/><glyph d="M47 0l153 660h453l-18 -75h-373l-49 -213h292l-17 -75h-292l-51 -222h389l-18 -75h-469zM283 737q8 64 52.5 106t112.5 42q61 0 97.5 -34.5t36.5 -85.5q0 -7 -0.5 -13.5t-2.5 -14.5h-61q1 5 1.5 9.5t0.5 8.5q0 36 -23.5 53t-52.5 17q-46 0 -68.5 -25.5t-27.5 -62.5h-65z" glyph-name="uni0206" horiz-adv-x="625" unicode="Ȇ"/><glyph d="M276 -9q-69 0 -118.5 30t-75.5 81t-26 114q0 78 31 145t90.5 107.5t144.5 40.5q61 0 104.5 -25t66.5 -68.5t23 -98.5q0 -20 -3.5 -41.5t-10.5 -44.5h-407v70h372l-35 -28q3 12 4.5 24t1.5 23q0 36 -14.5 63t-41.5 42t-65 15q-49 0 -83.5 -19.5t-56 -52.5t-31 -73.5 t-9.5 -81.5q0 -45 18.5 -79.5t51.5 -54t78 -19.5q51 1 84 22t54 55l63 -42q-22 -32 -53 -55.5t-70.5 -36t-86.5 -12.5zM183 577q8 64 52.5 106t112.5 42q61 0 97.5 -34.5t36.5 -85.5q0 -7 -0.5 -13.5t-2.5 -14.5h-61q1 5 1.5 9.5t0.5 8.5q0 36 -23.5 53t-52.5 17 q-46 0 -68.5 -25.5t-27.5 -62.5h-65z" glyph-name="uni0207" horiz-adv-x="572" unicode="ȇ"/><glyph d="M280 660l-153 -660h-80l153 660h80zM164 902l40 -159h-57l-65 159h82zM324 902l40 -159h-57l-65 159h82z" glyph-name="uni0208" horiz-adv-x="290" unicode="Ȉ"/><glyph d="M227 500l-116 -500h-80l116 500h80zM111 750l45 -167h-61l-64 167h80zM273 750l45 -167h-61l-64 167h80z" glyph-name="uni0209" horiz-adv-x="258" unicode="ȉ"/><glyph d="M280 660l-153 -660h-80l153 660h80zM103 737q8 64 52.5 106t112.5 42q61 0 97.5 -34.5t36.5 -85.5q0 -7 -0.5 -13.5t-2.5 -14.5h-61q1 5 1.5 9.5t0.5 8.5q0 36 -23.5 53t-52.5 17q-46 0 -68.5 -25.5t-27.5 -62.5h-65z" glyph-name="uni020A" horiz-adv-x="290" unicode="Ȋ"/><glyph d="M227 500l-116 -500h-80l116 500h80zM50 577q8 64 52.5 106t112.5 42q61 0 97.5 -34.5t36.5 -85.5q0 -7 -0.5 -13.5t-2.5 -14.5h-61q1 5 1.5 9.5t0.5 8.5q0 36 -23.5 53t-52.5 17q-46 0 -68.5 -25.5t-27.5 -62.5h-65z" glyph-name="uni020B" horiz-adv-x="258" unicode="ȋ"/><glyph d="M359 -10q-74 0 -136.5 33.5t-100 98.5t-37.5 158q0 77 22 147t64.5 124.5t106 86.5t145.5 32q74 0 135.5 -34t98.5 -98.5t37 -157.5q0 -76 -21.5 -146t-64 -125t-105 -87t-144.5 -32zM368 66q60 0 105 26t75.5 70.5t46 99.5t15.5 113q0 69 -25 118t-69 75t-103 26 q-60 0 -105.5 -26t-76.5 -70t-46.5 -99t-15.5 -114q0 -69 25 -118t69.5 -75t104.5 -26zM361 902l40 -159h-57l-65 159h82zM521 902l40 -159h-57l-65 159h82z" glyph-name="uni020C" horiz-adv-x="742" unicode="Ȍ"/><glyph d="M282 -9q-72 0 -122.5 30.5t-77 82t-26.5 112.5q0 86 33 152t91 103.5t134 37.5q73 0 123 -30.5t76 -81t26 -112.5q0 -85 -32.5 -151.5t-90.5 -104.5t-134 -38zM285 60q36 0 67.5 15.5t55.5 45t37 70.5t13 91q0 44 -15.5 79.5t-48 57t-83.5 21.5q-36 0 -68 -15.5 t-55.5 -44.5t-37 -70t-13.5 -91q0 -43 16 -79.5t49 -58t83 -21.5zM247 750l45 -167h-61l-64 167h80zM409 750l45 -167h-61l-64 167h80z" glyph-name="uni020D" horiz-adv-x="595" unicode="ȍ"/><glyph d="M359 -10q-74 0 -136.5 33.5t-100 98.5t-37.5 158q0 77 22 147t64.5 124.5t106 86.5t145.5 32q74 0 135.5 -34t98.5 -98.5t37 -157.5q0 -76 -21.5 -146t-64 -125t-105 -87t-144.5 -32zM368 66q60 0 105 26t75.5 70.5t46 99.5t15.5 113q0 69 -25 118t-69 75t-103 26 q-60 0 -105.5 -26t-76.5 -70t-46.5 -99t-15.5 -114q0 -69 25 -118t69.5 -75t104.5 -26zM300 737q8 64 52.5 106t112.5 42q61 0 97.5 -34.5t36.5 -85.5q0 -7 -0.5 -13.5t-2.5 -14.5h-61q1 5 1.5 9.5t0.5 8.5q0 36 -23.5 53t-52.5 17q-46 0 -68.5 -25.5t-27.5 -62.5h-65z" glyph-name="uni020E" horiz-adv-x="742" unicode="Ȏ"/><glyph d="M282 -9q-72 0 -122.5 30.5t-77 82t-26.5 112.5q0 86 33 152t91 103.5t134 37.5q73 0 123 -30.5t76 -81t26 -112.5q0 -85 -32.5 -151.5t-90.5 -104.5t-134 -38zM285 60q36 0 67.5 15.5t55.5 45t37 70.5t13 91q0 44 -15.5 79.5t-48 57t-83.5 21.5q-36 0 -68 -15.5 t-55.5 -44.5t-37 -70t-13.5 -91q0 -43 16 -79.5t49 -58t83 -21.5zM186 577q8 64 52.5 106t112.5 42q61 0 97.5 -34.5t36.5 -85.5q0 -7 -0.5 -13.5t-2.5 -14.5h-61q1 5 1.5 9.5t0.5 8.5q0 36 -23.5 53t-52.5 17q-46 0 -68.5 -25.5t-27.5 -62.5h-65z" glyph-name="uni020F" horiz-adv-x="595" unicode="ȏ"/><glyph d="M47 0l153 660h216q89 0 141.5 -47.5t52.5 -131.5q0 -56 -25.5 -100t-67 -71.5t-89.5 -36.5l-50 -7h-205l17 75h180q53 0 88 19.5t52 52t17 71.5q0 50 -34 75.5t-93 25.5h-137l-136 -585h-80zM469 0l-113 281l81 10l119 -291h-87zM327 902l40 -159h-57l-65 159h82z M487 902l40 -159h-57l-65 159h82z" glyph-name="uni0210" horiz-adv-x="637" unicode="Ȑ"/><glyph d="M31 0l116 500h65l-11 -115l-12 7q16 37 44 63.5t63.5 40.5t70.5 14q16 0 28.5 -2t22.5 -7l-24 -76q-10 5 -22.5 7.5t-29.5 2.5q-38 0 -71.5 -17.5t-58.5 -53.5t-38 -93l-63 -271h-80zM202 750l45 -167h-61l-64 167h80zM364 750l45 -167h-61l-64 167h80z" glyph-name="uni0211" horiz-adv-x="388" unicode="ȑ"/><glyph d="M47 0l153 660h216q89 0 141.5 -47.5t52.5 -131.5q0 -56 -25.5 -100t-67 -71.5t-89.5 -36.5l-50 -7h-205l17 75h180q53 0 88 19.5t52 52t17 71.5q0 50 -34 75.5t-93 25.5h-137l-136 -585h-80zM469 0l-113 281l81 10l119 -291h-87zM266 737q8 64 52.5 106t112.5 42 q61 0 97.5 -34.5t36.5 -85.5q0 -7 -0.5 -13.5t-2.5 -14.5h-61q1 5 1.5 9.5t0.5 8.5q0 36 -23.5 53t-52.5 17q-46 0 -68.5 -25.5t-27.5 -62.5h-65z" glyph-name="uni0212" horiz-adv-x="637" unicode="Ȓ"/><glyph d="M31 0l116 500h65l-11 -115l-12 7q16 37 44 63.5t63.5 40.5t70.5 14q16 0 28.5 -2t22.5 -7l-24 -76q-10 5 -22.5 7.5t-29.5 2.5q-38 0 -71.5 -17.5t-58.5 -53.5t-38 -93l-63 -271h-80zM141 577q8 64 52.5 106t112.5 42q61 0 97.5 -34.5t36.5 -85.5q0 -7 -0.5 -13.5 t-2.5 -14.5h-61q1 5 1.5 9.5t0.5 8.5q0 36 -23.5 53t-52.5 17q-46 0 -68.5 -25.5t-27.5 -62.5h-65z" glyph-name="uni0213" horiz-adv-x="388" unicode="ȓ"/><glyph d="M325 -10q-87 0 -145.5 35t-80 101.5t-0.5 159.5l88 374h80l-90 -393q-15 -67 1 -112t55.5 -67.5t96.5 -22.5q80 0 126 50t65 134l95 411h80l-100 -434q-25 -106 -93 -171t-178 -65zM354 882l40 -159h-57l-65 159h82zM514 882l40 -159h-57l-65 159h82z" glyph-name="uni0214" horiz-adv-x="693" unicode="Ȕ"/><glyph d="M228 -8q-54 0 -95.5 24.5t-60 71t-3.5 111.5l70 301h80l-69 -299q-16 -67 12.5 -103t86.5 -36q46 0 81 20t59 59t37 96l61 263h80l-116 -500h-70l19 112l10 -5q-20 -58 -70 -86.5t-112 -28.5zM267 740l45 -167h-61l-64 167h80zM429 740l45 -167h-61l-64 167h80z" glyph-name="uni0215" horiz-adv-x="598" unicode="ȕ"/><glyph d="M325 -10q-87 0 -145.5 35t-80 101.5t-0.5 159.5l88 374h80l-90 -393q-15 -67 1 -112t55.5 -67.5t96.5 -22.5q80 0 126 50t65 134l95 411h80l-100 -434q-25 -106 -93 -171t-178 -65zM293 717q8 64 52.5 106t112.5 42q61 0 97.5 -34.5t36.5 -85.5q0 -7 -0.5 -13.5 t-2.5 -14.5h-61q1 5 1.5 9.5t0.5 8.5q0 36 -23.5 53t-52.5 17q-46 0 -68.5 -25.5t-27.5 -62.5h-65z" glyph-name="uni0216" horiz-adv-x="693" unicode="Ȗ"/><glyph d="M228 -8q-54 0 -95.5 24.5t-60 71t-3.5 111.5l70 301h80l-69 -299q-16 -67 12.5 -103t86.5 -36q46 0 81 20t59 59t37 96l61 263h80l-116 -500h-70l19 112l10 -5q-20 -58 -70 -86.5t-112 -28.5zM206 567q8 64 52.5 106t112.5 42q61 0 97.5 -34.5t36.5 -85.5 q0 -7 -0.5 -13.5t-2.5 -14.5h-61q1 5 1.5 9.5t0.5 8.5q0 36 -23.5 53t-52.5 17q-46 0 -68.5 -25.5t-27.5 -62.5h-65z" glyph-name="uni0217" horiz-adv-x="598" unicode="ȗ"/><glyph d="M337 -8q-74 0 -133.5 22.5t-101 65.5t-63.5 107l80 40q17 -58 50 -93.5t78 -51t97 -15.5q49 0 82 16.5t49.5 43t16.5 56.5q0 37 -23.5 58t-68.5 34l-107 30q-51 15 -86.5 39t-54 57t-18.5 72q0 55 29.5 100t83 71.5t126.5 26.5q97 0 162 -40t93 -122l-80 -39 q-13 52 -41 79t-64 37t-75 10q-50 0 -84 -15t-50.5 -40t-16.5 -55q0 -34 26 -61.5t70 -40.5l119 -34q73 -21 108 -59.5t35 -94.5q0 -62 -32.5 -108t-86.5 -71t-119 -25zM316 -76l-101 -161h-69l81 161h89z" glyph-name="uni0218" horiz-adv-x="639" unicode="Ș"/><glyph d="M252 -11q-58 0 -104.5 18t-79 51t-49.5 78l76 33q19 -55 59 -82.5t102 -27.5q53 0 80.5 23.5t27.5 57.5q0 26 -15 41t-47 24l-89 25q-62 17 -93 51.5t-31 79.5q0 42 23 75.5t66 53.5t102 20q71 0 125 -32t77 -93l-73 -35q-9 28 -28 48.5t-45.5 31.5t-60.5 11 q-55 0 -81.5 -20t-26.5 -53q0 -28 19.5 -44.5t48.5 -24.5l98 -28q51 -14 80.5 -46t29.5 -74q0 -50 -25 -86.5t-68 -56t-98 -19.5zM251 -76l-101 -161h-69l81 161h89z" glyph-name="uni0219" horiz-adv-x="512" unicode="ș"/><glyph d="M656 660l-18 -75h-223l-135 -585h-80l135 585h-227l18 75h530zM270 -76l-101 -161h-69l81 161h89z" glyph-name="uni021A" horiz-adv-x="592" unicode="Ț"/><glyph d="M235 -8q-48 0 -82 19t-48 55t-3 86l105 458l87 25l-114 -487q-10 -46 12.5 -65.5t56.5 -19.5q25 0 44 7t33 18l16 -66q-25 -17 -51 -23.5t-56 -6.5zM65 431l16 69h336l-16 -69h-336zM239 -76l-101 -161h-69l81 161h89z" glyph-name="uni021B" horiz-adv-x="402" unicode="ț"/><glyph d="M359 -10q-74 0 -136.5 33.5t-100 98.5t-37.5 158q0 77 22 147t64.5 124.5t106 86.5t145.5 32q74 0 135.5 -34t98.5 -98.5t37 -157.5q0 -76 -21.5 -146t-64 -125t-105 -87t-144.5 -32zM368 66q60 0 105 26t75.5 70.5t46 99.5t15.5 113q0 69 -25 118t-69 75t-103 26 q-60 0 -105.5 -26t-76.5 -70t-46.5 -99t-15.5 -114q0 -69 25 -118t69.5 -75t104.5 -26zM559 742q-22 0 -36 14t-14 35q0 30 18 47.5t44 17.5q22 0 36 -14t14 -35q0 -30 -18 -47.5t-44 -17.5zM365 742q-22 0 -36 14t-14 35q0 30 18 47.5t44 17.5q22 0 36 -14t14 -35 q0 -30 -18 -47.5t-44 -17.5zM672 992l-15 -67h-314l15 67h314z" glyph-name="uni022A" horiz-adv-x="742" unicode="Ȫ"/><glyph d="M282 -9q-72 0 -122.5 30.5t-77 82t-26.5 112.5q0 86 33 152t91 103.5t134 37.5q73 0 123 -30.5t76 -81t26 -112.5q0 -85 -32.5 -151.5t-90.5 -104.5t-134 -38zM285 60q36 0 67.5 15.5t55.5 45t37 70.5t13 91q0 44 -15.5 79.5t-48 57t-83.5 21.5q-36 0 -68 -15.5 t-55.5 -44.5t-37 -70t-13.5 -91q0 -43 16 -79.5t49 -58t83 -21.5zM445 582q-22 0 -36 14t-14 35q0 30 18 47.5t44 17.5q22 0 36 -14t14 -35q0 -30 -18 -47.5t-44 -17.5zM251 582q-22 0 -36 14t-14 35q0 30 18 47.5t44 17.5q22 0 36 -14t14 -35q0 -30 -18 -47.5t-44 -17.5z M558 832l-15 -67h-314l15 67h314z" glyph-name="uni022B" horiz-adv-x="595" unicode="ȫ"/><glyph d="M359 -10q-74 0 -136.5 33.5t-100 98.5t-37.5 158q0 77 22 147t64.5 124.5t106 86.5t145.5 32q74 0 135.5 -34t98.5 -98.5t37 -157.5q0 -76 -21.5 -146t-64 -125t-105 -87t-144.5 -32zM368 66q60 0 105 26t75.5 70.5t46 99.5t15.5 113q0 69 -25 118t-69 75t-103 26 q-60 0 -105.5 -26t-76.5 -70t-46.5 -99t-15.5 -114q0 -69 25 -118t69.5 -75t104.5 -26zM653 877q-11 -65 -45.5 -99.5t-78.5 -34.5q-26 0 -44 10.5t-31 24t-25 24t-27 10.5q-18 0 -32.5 -19t-22.5 -51h-63q11 65 45.5 99.5t78.5 34.5q26 0 44 -10.5t31 -24t25 -24t27 -10.5 q18 0 32.5 19t22.5 51h63zM668 1021l-15 -67h-314l15 67h314z" glyph-name="uni022C" horiz-adv-x="742" unicode="Ȭ"/><glyph d="M282 -9q-72 0 -122.5 30.5t-77 82t-26.5 112.5q0 86 33 152t91 103.5t134 37.5q73 0 123 -30.5t76 -81t26 -112.5q0 -85 -32.5 -151.5t-90.5 -104.5t-134 -38zM285 60q36 0 67.5 15.5t55.5 45t37 70.5t13 91q0 44 -15.5 79.5t-48 57t-83.5 21.5q-36 0 -68 -15.5 t-55.5 -44.5t-37 -70t-13.5 -91q0 -43 16 -79.5t49 -58t83 -21.5zM539 717q-11 -65 -45.5 -99.5t-78.5 -34.5q-26 0 -44 10.5t-31 24t-25 24t-27 10.5q-18 0 -32.5 -19t-22.5 -51h-63q11 65 45.5 99.5t78.5 34.5q26 0 44 -10.5t31 -24t25 -24t27 -10.5q18 0 32.5 19t22.5 51 h63zM554 861l-15 -67h-314l15 67h314z" glyph-name="uni022D" horiz-adv-x="595" unicode="ȭ"/><glyph d="M359 -10q-74 0 -136.5 33.5t-100 98.5t-37.5 158q0 77 22 147t64.5 124.5t106 86.5t145.5 32q74 0 135.5 -34t98.5 -98.5t37 -157.5q0 -76 -21.5 -146t-64 -125t-105 -87t-144.5 -32zM368 66q60 0 105 26t75.5 70.5t46 99.5t15.5 113q0 69 -25 118t-69 75t-103 26 q-60 0 -105.5 -26t-76.5 -70t-46.5 -99t-15.5 -114q0 -69 25 -118t69.5 -75t104.5 -26zM469 756q-24 0 -39 14.5t-15 37.5q0 31 18.5 49.5t44.5 18.5q24 0 39 -14.5t15 -37.5q0 -31 -18.5 -49.5t-44.5 -18.5zM673 1012l-15 -67h-314l15 67h314z" glyph-name="uni0230" horiz-adv-x="742" unicode="Ȱ"/><glyph d="M282 -9q-72 0 -122.5 30.5t-77 82t-26.5 112.5q0 86 33 152t91 103.5t134 37.5q73 0 123 -30.5t76 -81t26 -112.5q0 -85 -32.5 -151.5t-90.5 -104.5t-134 -38zM285 60q36 0 67.5 15.5t55.5 45t37 70.5t13 91q0 44 -15.5 79.5t-48 57t-83.5 21.5q-36 0 -68 -15.5 t-55.5 -44.5t-37 -70t-13.5 -91q0 -43 16 -79.5t49 -58t83 -21.5zM355 596q-24 0 -39 14.5t-15 37.5q0 31 18.5 49.5t44.5 18.5q24 0 39 -14.5t15 -37.5q0 -31 -18.5 -49.5t-44.5 -18.5zM559 852l-15 -67h-314l15 67h314z" glyph-name="uni0231" horiz-adv-x="595" unicode="ȱ"/><glyph d="M183 0l60 258l-133 402h86l72 -229l27 -98l75 104l176 223h96l-320 -409l-59 -251h-80zM550 803l-15 -67h-314l15 67h314z" glyph-name="uni0232" horiz-adv-x="562" unicode="Ȳ"/><glyph d="M12 -215q-38 0 -65.5 9t-45.5 25l32 67q34 -31 76 -31q32 0 56.5 18t48.5 56l47 75l-88 496h79l46 -286l20 -125l70 117l177 294h91l-378 -598q-26 -41 -53.5 -67t-55.5 -38t-57 -12zM493 653l-15 -67h-314l15 67h314z" glyph-name="uni0233" horiz-adv-x="504" unicode="ȳ"/><glyph d="M-53 -215q-30 0 -59.5 9t-46.5 27l28 72q14 -12 33.5 -20t38.5 -8q28 0 46.5 16t28.5 62l131 557h80l-134 -578q-16 -71 -57.5 -104t-88.5 -33z" glyph-name="uni0237" horiz-adv-x="258" unicode="ȷ"/><glyph d="M250 -9q-61 0 -104.5 25t-66.5 68.5t-23 98.5q0 20 4 43t13 53h404v-70h-372l35 18q-3 -12 -4.5 -24t-1.5 -23q0 -36 14.5 -63t41.5 -42t65 -15q50 0 84.5 19.5t56.5 52.5t32 73.5t10 81.5q0 44 -17.5 78.5t-47.5 54.5t-70 20q-58 0 -94 -26.5t-56 -62.5l-60 42 q31 47 81.5 81.5t133.5 34.5q62 0 108.5 -28.5t73 -79.5t26.5 -117q0 -78 -31 -145t-90 -107.5t-145 -40.5z" glyph-name="uni0259" horiz-adv-x="572" unicode="ə"/><glyph d="M421 690l-123 -247h-68l97 247h94z" glyph-name="uni02B9" horiz-adv-x="500" unicode="ʹ"/><glyph d="M459 690l-123 -247h-68l97 247h94zM289 690l-123 -247h-68l97 247h94z" glyph-name="uni02BA" horiz-adv-x="404" unicode="ʺ"/><glyph d="M420 778l-84 -191h-96l117 191h63z" glyph-name="uni02BB" horiz-adv-x="500" unicode="ʻ"/><glyph d="M221 700q30 0 48 -22.5t18 -58.5q0 -38 -19.5 -77.5t-56.5 -69.5t-89 -41l-25 48q39 6 65.5 20t42.5 34.5t23 44.5l-1 1q-5 -4 -10.5 -5.5t-16.5 -1.5q-24 0 -36.5 17.5t-12.5 38.5q0 32 20.5 52t49.5 20z" glyph-name="uni02BC" horiz-adv-x="600" unicode="ʼ"/><glyph d="M199 730q38 0 65.5 -15.5t42.5 -41.5t15 -59q0 -65 -43 -102.5t-114 -37.5h-45l14 58h43q36 0 59 20.5t23 56.5q0 31 -21 47t-53 16h-19l13 58h20z" glyph-name="uni02BE" horiz-adv-x="299" unicode="ʾ"/><glyph d="M263 474q-38 0 -65.5 15.5t-42.5 41.5t-15 59q0 65 43 102.5t114 37.5h45l-14 -58h-43q-36 0 -59 -20.5t-23 -56.5q0 -31 21 -47t53 -16h19l-13 -58h-20z" glyph-name="uni02BF" horiz-adv-x="299" unicode="ʿ"/><glyph d="M216 576l152 167h90l76 -167h-69l-60 114l-111 -114h-78z" glyph-name="circumflex" horiz-adv-x="600" unicode="ˆ"/><glyph d="M282 583l-76 167h69l60 -114l111 114h78l-152 -167h-90z" glyph-name="caron" horiz-adv-x="500" unicode="ˇ"/><glyph d="M176 730h75l-60 -260h-75z" glyph-name="uni02C8" horiz-adv-x="205" unicode="ˈ"/><glyph d="M502 663l-15 -67h-314l15 67h314z" glyph-name="uni02C9" horiz-adv-x="500" unicode="ˉ"/><glyph d="M359 750h96l-143 -167h-75z" glyph-name="uni02CA" horiz-adv-x="500" unicode="ˊ"/><glyph d="M359 750l45 -167h-61l-64 167h80z" glyph-name="uni02CB" horiz-adv-x="500" unicode="ˋ"/><glyph d="M21 60h75l-60 -260h-75z" glyph-name="uni02CC" horiz-adv-x="205" unicode="ˌ"/><glyph d="M508 725q-10 -67 -56 -107.5t-114 -40.5q-59 0 -94.5 33.5t-35.5 82.5q0 8 1 16t3 16h60q-1 -4 -1.5 -9t-0.5 -9q0 -33 20.5 -51.5t54.5 -18.5q37 0 64.5 22t34.5 66h64z" glyph-name="breve" horiz-adv-x="500" unicode="˘"/><glyph d="M339 596q-24 0 -39 14.5t-15 37.5q0 31 18.5 49.5t44.5 18.5q24 0 39 -14.5t15 -37.5q0 -31 -18.5 -49.5t-44.5 -18.5z" glyph-name="dotaccent" horiz-adv-x="500" unicode="˙"/><glyph d="M358 813q51 0 84 -31.5t33 -76.5q0 -56 -36.5 -92.5t-91.5 -36.5q-51 0 -84 31.5t-33 76.5q0 56 36.5 92.5t91.5 36.5zM357 763q-30 0 -51 -20t-21 -54q0 -27 19 -45t46 -18q29 0 49.5 20t20.5 54q0 27 -17 45t-46 18z" glyph-name="ring" horiz-adv-x="500" unicode="˚"/><glyph d="M188 -218q-29 0 -54.5 11t-41 33t-15.5 55q0 32 16 58t53 48.5t98 42.5l37 -30q-37 -12 -69.5 -27.5t-52 -36t-19.5 -48.5t19.5 -38.5t41.5 -10.5q12 0 21 2t19 5l-6 -56q-10 -4 -22 -6t-25 -2z" glyph-name="ogonek" horiz-adv-x="500" unicode="˛"/><glyph d="M527 717q-11 -65 -45.5 -99.5t-78.5 -34.5q-26 0 -44 10.5t-31 24t-25 24t-27 10.5q-18 0 -32.5 -19t-22.5 -51h-63q11 65 45.5 99.5t78.5 34.5q26 0 44 -10.5t31 -24t25 -24t27 -10.5q18 0 32.5 19t22.5 51h63z" glyph-name="tilde" horiz-adv-x="500" unicode="˜"/><glyph d="M328 583l122 167h96l-143 -167h-75zM146 583l122 167h96l-143 -167h-75z" glyph-name="hungarumlaut" horiz-adv-x="500" unicode="˝"/><glyph d="M69 750l45 -167h-61l-64 167h80z" glyph-name="gravecomb" horiz-adv-x="0" unicode="̀"/><glyph d="M146 750h96l-143 -167h-75z" glyph-name="acutecomb" horiz-adv-x="0" unicode="́"/><glyph d="M-87 576l152 167h90l76 -167h-69l-60 114l-111 -114h-78z" glyph-name="uni0302" horiz-adv-x="0" unicode="̂"/><glyph d="M274 717q-11 -65 -45.5 -99.5t-78.5 -34.5q-26 0 -44 10.5t-31 24t-25 24t-27 10.5q-18 0 -32.5 -19t-22.5 -51h-63q11 65 45.5 99.5t78.5 34.5q26 0 44 -10.5t31 -24t25 -24t27 -10.5q18 0 32.5 19t22.5 51h63z" glyph-name="tildecomb" horiz-adv-x="0" unicode="̃"/><glyph d="M249 663l-15 -67h-314l15 67h314z" glyph-name="uni0304" horiz-adv-x="0" unicode="̄"/><glyph d="M260 725q-10 -67 -56 -107.5t-114 -40.5q-59 0 -94.5 33.5t-35.5 82.5q0 8 1 16t3 16h60q-1 -4 -1.5 -9t-0.5 -9q0 -33 20.5 -51.5t54.5 -18.5q37 0 64.5 22t34.5 66h64z" glyph-name="uni0306" horiz-adv-x="0" unicode="̆"/><glyph d="M90 596q-24 0 -39 14.5t-15 37.5q0 31 18.5 49.5t44.5 18.5q24 0 39 -14.5t15 -37.5q0 -31 -18.5 -49.5t-44.5 -18.5z" glyph-name="uni0307" horiz-adv-x="0" unicode="̇"/><glyph d="M180 582q-22 0 -36 14t-14 35q0 30 18 47.5t44 17.5q22 0 36 -14t14 -35q0 -30 -18 -47.5t-44 -17.5zM-14 582q-22 0 -36 14t-14 35q0 30 18 47.5t44 17.5q22 0 36 -14t14 -35q0 -30 -18 -47.5t-44 -17.5z" glyph-name="uni0308" horiz-adv-x="0" unicode="̈"/><glyph d="M343 554l-13 45q32 5 51 21t19 35q0 20 -12 28t-26 8q-13 0 -26.5 -7t-25.5 -19l-33 43q18 21 43.5 33t54.5 12q41 0 66 -23t25 -64q0 -25 -13 -49t-40.5 -40.5t-69.5 -22.5z" glyph-name="hookabovecomb" horiz-adv-x="0" unicode="̉"/><glyph d="M103 813q51 0 84 -31.5t33 -76.5q0 -56 -36.5 -92.5t-91.5 -36.5q-51 0 -84 31.5t-33 76.5q0 56 36.5 92.5t91.5 36.5zM102 763q-30 0 -51 -20t-21 -54q0 -27 19 -45t46 -18q29 0 49.5 20t20.5 54q0 27 -17 45t-46 18z" glyph-name="uni030A" horiz-adv-x="0" unicode="̊"/><glyph d="M126 583l122 167h96l-143 -167h-75zM-56 583l122 167h96l-143 -167h-75z" glyph-name="uni030B" horiz-adv-x="0" unicode="̋"/><glyph d="M29 583l-76 167h69l60 -114l111 114h78l-152 -167h-90z" glyph-name="uni030C" horiz-adv-x="0" unicode="̌"/><glyph d="M-18 750l45 -167h-61l-64 167h80zM144 750l45 -167h-61l-64 167h80z" glyph-name="uni030F" horiz-adv-x="0" unicode="̏"/><glyph d="M-79 577q8 64 52.5 106t112.5 42q61 0 97.5 -34.5t36.5 -85.5q0 -7 -0.5 -13.5t-2.5 -14.5h-61q1 5 1.5 9.5t0.5 8.5q0 36 -23.5 53t-52.5 17q-46 0 -68.5 -25.5t-27.5 -62.5h-65z" glyph-name="uni0311" horiz-adv-x="0" unicode="̑"/><glyph d="M461 778l-84 -191h-96l117 191h63z" glyph-name="uni0312" horiz-adv-x="0" unicode="̒"/><glyph d="M322 454l-24 46q33 0 60 26t41 92h68q-8 -63 -31 -99t-53 -50.5t-61 -14.5z" glyph-name="uni031B" horiz-adv-x="0" unicode="̛"/><glyph d="M-96 -216q-24 0 -39 14.5t-15 37.5q0 31 18.5 49.5t44.5 18.5q24 0 39 -14.5t15 -37.5q0 -31 -18.5 -49.5t-44.5 -18.5z" glyph-name="dotbelowcomb" horiz-adv-x="0" unicode="̣"/><glyph d="M1 -196q-22 0 -36 14t-14 35q0 30 18 47.5t44 17.5q22 0 36 -14t14 -35q0 -30 -18 -47.5t-44 -17.5zM-193 -196q-22 0 -36 14t-14 35q0 30 18 47.5t44 17.5q22 0 36 -14t14 -35q0 -30 -18 -47.5t-44 -17.5z" glyph-name="uni0324" horiz-adv-x="0" unicode="̤"/><glyph d="M-28 -76l-101 -161h-69l81 161h89z" glyph-name="uni0326" horiz-adv-x="0" unicode="̦"/><glyph d="M-91 6l46 23q44 -19 67.5 -48t23.5 -71q0 -41 -18.5 -69t-48 -42t-63.5 -14q-35 0 -62.5 14t-39.5 30l32 50q14 -16 33 -23.5t40 -7.5q29 0 47 18.5t18 46.5q0 32 -19 53t-56 40z" glyph-name="uni0327" horiz-adv-x="0" unicode="̧"/><glyph d="M-150 -218q-29 0 -54.5 11t-41 33t-15.5 55q0 32 16 58t53 48.5t98 42.5l37 -30q-37 -12 -69.5 -27.5t-52 -36t-19.5 -48.5t19.5 -38.5t41.5 -10.5q12 0 21 2t19 5l-6 -56q-10 -4 -22 -6t-25 -2z" glyph-name="uni0328" horiz-adv-x="0" unicode="̨"/><glyph d="M73 -77q-10 -67 -56 -107.5t-114 -40.5q-59 0 -94.5 33.5t-35.5 82.5q0 8 1 16t3 16h60q-1 -4 -1.5 -9t-0.5 -9q0 -33 20.5 -51.5t54.5 -18.5q37 0 64.5 22t34.5 66h64z" glyph-name="uni032E" horiz-adv-x="0" unicode="̮"/><glyph d="M78 -96l-15 -67h-314l15 67h314z" glyph-name="uni0331" horiz-adv-x="0" unicode="̱"/><glyph d="M224 361l-14 -61h-397l14 61h397z" glyph-name="uni0335" horiz-adv-x="0" unicode="̵"/><glyph d="M12 -26l495 553h72l-495 -553h-72z" glyph-name="uni0338" horiz-adv-x="0" unicode="̸"/><glyph d="M27 0l16 68h195l-15 -11q-38 20 -68.5 56.5t-48.5 85t-18 102.5q0 72 22 138.5t64.5 118.5t106 82t145.5 30q74 0 135.5 -33.5t98.5 -98t37 -157.5q0 -68 -21.5 -131.5t-63.5 -113.5t-105 -79l-13 11h181l-16 -68h-259l16 70q48 10 85 39.5t62 71.5t37.5 92.5t12.5 102.5 q0 69 -25 118t-69 74.5t-103 25.5q-60 0 -105.5 -24t-76.5 -65.5t-46.5 -93t-15.5 -105.5q0 -57 17 -104.5t46.5 -80.5t68.5 -46l-18 -75h-259z" glyph-name="uni03A9" horiz-adv-x="745" unicode="Ω"/><glyph d="M-17 -210l164 710h80l-69 -299q-16 -67 12.5 -103t86.5 -36q46 0 81 20t59 59t37 96l61 263h80l-116 -500h-70l12 72q-25 -40 -67 -60t-90 -20q-34 0 -67.5 13t-53.5 44v0l-60 -259h-80z" glyph-name="uni03BC" horiz-adv-x="606" unicode="μ"/><glyph d="M109 0l100 433h-137l16 67h652l-16 -67h-135l-71 -307q-4 -17 1.5 -32.5t27 -23.5t64.5 -3l-32 -67q-62 -6 -96.5 8t-44.5 46.5t1 79.5l69 299h-219l-100 -433h-80z" glyph-name="pi" horiz-adv-x="722" unicode="π"/><glyph d="M363 -10q-77 0 -140.5 32t-101.5 95t-38 156q0 74 21.5 144.5t64.5 127.5t106.5 91t146.5 34q63 0 112 -20t83 -61t51 -104l-84 -28q-17 74 -59.5 106t-110.5 32q-60 0 -106 -27t-77 -71.5t-47 -99.5t-16 -112q0 -69 26.5 -118t72 -75.5t101.5 -26.5q66 0 104 27.5 t64 73.5l77 -37q-41 -63 -100 -101t-150 -38zM300 6l46 23q44 -19 67.5 -48t23.5 -71q0 -41 -18.5 -69t-48 -42t-63.5 -14q-35 0 -62.5 14t-39.5 30l32 50q14 -16 33 -23.5t40 -7.5q29 0 47 18.5t18 46.5q0 32 -19 53t-56 40zM501 902h93l-121 -159h-68z" glyph-name="uni1E08" horiz-adv-x="674" unicode="Ḉ"/><glyph d="M277 -9q-69 0 -118.5 30.5t-75.5 82t-26 113.5q0 86 33 151.5t92 103t137 37.5q57 0 99.5 -20t69 -55t35.5 -79l-84 -20q-4 44 -34.5 74.5t-89.5 30.5q-38 0 -70.5 -16t-56.5 -45.5t-37 -70t-13 -90.5q0 -44 17 -80t49.5 -57t80.5 -21q39 0 73.5 20t48.5 59l78 -28 q-26 -58 -81.5 -89t-126.5 -31zM193 6l46 23q44 -19 67.5 -48t23.5 -71q0 -41 -18.5 -69t-48 -42t-63.5 -14q-35 0 -62.5 14t-39.5 30l32 50q14 -16 33 -23.5t40 -7.5q29 0 47 18.5t18 46.5q0 32 -19 53t-56 40zM412 750h96l-143 -167h-75z" glyph-name="uni1E09" horiz-adv-x="538" unicode="ḉ"/><glyph d="M47 0l153 660h191q85 0 145 -35t92.5 -96t32.5 -139q0 -83 -26.5 -154t-75.5 -124t-117.5 -82.5t-151.5 -29.5h-243zM144 75h158q63 0 113.5 24.5t86 67t54.5 97t19 114.5q0 59 -21 105.5t-64 74t-109 27.5h-118zM252 -216q-24 0 -39 14.5t-15 37.5q0 31 18.5 49.5 t44.5 18.5q24 0 39 -14.5t15 -37.5q0 -31 -18.5 -49.5t-44.5 -18.5z" glyph-name="uni1E0C" horiz-adv-x="706" unicode="Ḍ"/><glyph d="M251 -8q-58 0 -102 28t-69 77.5t-25 114.5q0 62 19 116t53 95t81 64t102 23q44 0 79 -15t58 -42.5t32 -65.5l79 343h80l-169 -730h-70l17 93q-24 -46 -68.5 -73.5t-96.5 -27.5zM271 60q36 0 68 18t56 49.5t38 74t14 91.5q0 45 -16.5 78.5t-46 51.5t-69.5 18t-73 -17.5 t-57 -48.5t-37.5 -72.5t-13.5 -89.5q0 -49 16 -83t46.5 -52t74.5 -18zM202 -216q-24 0 -39 14.5t-15 37.5q0 31 18.5 49.5t44.5 18.5q24 0 39 -14.5t15 -37.5q0 -31 -18.5 -49.5t-44.5 -18.5z" glyph-name="uni1E0D" horiz-adv-x="616" unicode="ḍ"/><glyph d="M47 0l153 660h191q85 0 145 -35t92.5 -96t32.5 -139q0 -83 -26.5 -154t-75.5 -124t-117.5 -82.5t-151.5 -29.5h-243zM144 75h158q63 0 113.5 24.5t86 67t54.5 97t19 114.5q0 59 -21 105.5t-64 74t-109 27.5h-118zM426 -96l-15 -67h-314l15 67h314z" glyph-name="uni1E0E" horiz-adv-x="706" unicode="Ḏ"/><glyph d="M251 -8q-58 0 -102 28t-69 77.5t-25 114.5q0 62 19 116t53 95t81 64t102 23q44 0 79 -15t58 -42.5t32 -65.5l79 343h80l-169 -730h-70l17 93q-24 -46 -68.5 -73.5t-96.5 -27.5zM271 60q36 0 68 18t56 49.5t38 74t14 91.5q0 45 -16.5 78.5t-46 51.5t-69.5 18t-73 -17.5 t-57 -48.5t-37.5 -72.5t-13.5 -89.5q0 -49 16 -83t46.5 -52t74.5 -18zM376 -96l-15 -67h-314l15 67h314z" glyph-name="uni1E0F" horiz-adv-x="616" unicode="ḏ"/><glyph d="M47 0l153 660h453l-18 -75h-373l-49 -213h292l-17 -75h-292l-51 -222h389l-18 -75h-469zM611 823l-15 -67h-314l15 67h314zM476 1063l40 -159h-57l-65 159h82z" glyph-name="uni1E14" horiz-adv-x="625" unicode="Ḕ"/><glyph d="M276 -9q-69 0 -118.5 30t-75.5 81t-26 114q0 78 31 145t90.5 107.5t144.5 40.5q61 0 104.5 -25t66.5 -68.5t23 -98.5q0 -20 -3.5 -41.5t-10.5 -44.5h-407v70h372l-35 -28q3 12 4.5 24t1.5 23q0 36 -14.5 63t-41.5 42t-65 15q-49 0 -83.5 -19.5t-56 -52.5t-31 -73.5 t-9.5 -81.5q0 -45 18.5 -79.5t51.5 -54t78 -19.5q51 1 84 22t54 55l63 -42q-22 -32 -53 -55.5t-70.5 -36t-86.5 -12.5zM511 663l-15 -67h-314l15 67h314zM376 903l40 -159h-57l-65 159h82z" glyph-name="uni1E15" horiz-adv-x="572" unicode="ḕ"/><glyph d="M47 0l153 660h453l-18 -75h-373l-49 -213h292l-17 -75h-292l-51 -222h389l-18 -75h-469zM611 823l-15 -67h-314l15 67h314zM526 1063h93l-121 -159h-68z" glyph-name="uni1E16" horiz-adv-x="625" unicode="Ḗ"/><glyph d="M276 -9q-69 0 -118.5 30t-75.5 81t-26 114q0 78 31 145t90.5 107.5t144.5 40.5q61 0 104.5 -25t66.5 -68.5t23 -98.5q0 -20 -3.5 -41.5t-10.5 -44.5h-407v70h372l-35 -28q3 12 4.5 24t1.5 23q0 36 -14.5 63t-41.5 42t-65 15q-49 0 -83.5 -19.5t-56 -52.5t-31 -73.5 t-9.5 -81.5q0 -45 18.5 -79.5t51.5 -54t78 -19.5q51 1 84 22t54 55l63 -42q-22 -32 -53 -55.5t-70.5 -36t-86.5 -12.5zM511 663l-15 -67h-314l15 67h314zM426 903h93l-121 -159h-68z" glyph-name="uni1E17" horiz-adv-x="572" unicode="ḗ"/><glyph d="M47 0l153 660h453l-18 -75h-373l-49 -213h292l-17 -75h-292l-51 -222h389l-18 -75h-469zM269 6l46 23q44 -19 67.5 -48t23.5 -71q0 -41 -18.5 -69t-48 -42t-63.5 -14q-35 0 -62.5 14t-39.5 30l32 50q14 -16 33 -23.5t40 -7.5q29 0 47 18.5t18 46.5q0 32 -19 53t-56 40z M611 885q-10 -67 -56 -107.5t-114 -40.5q-59 0 -94.5 33.5t-35.5 82.5q0 8 1 16t3 16h60q-1 -4 -1.5 -9t-0.5 -9q0 -33 20.5 -51.5t54.5 -18.5q37 0 64.5 22t34.5 66h64z" glyph-name="uni1E1C" horiz-adv-x="625" unicode="Ḝ"/><glyph d="M276 -9q-69 0 -118.5 30t-75.5 81t-26 114q0 78 31 145t90.5 107.5t144.5 40.5q61 0 104.5 -25t66.5 -68.5t23 -98.5q0 -20 -3.5 -41.5t-10.5 -44.5h-407v70h372l-35 -28q3 12 4.5 24t1.5 23q0 36 -14.5 63t-41.5 42t-65 15q-49 0 -83.5 -19.5t-56 -52.5t-31 -73.5 t-9.5 -81.5q0 -45 18.5 -79.5t51.5 -54t78 -19.5q51 1 84 22t54 55l63 -42q-22 -32 -53 -55.5t-70.5 -36t-86.5 -12.5zM224 6l46 23q44 -19 67.5 -48t23.5 -71q0 -41 -18.5 -69t-48 -42t-63.5 -14q-35 0 -62.5 14t-39.5 30l32 50q14 -16 33 -23.5t40 -7.5q29 0 47 18.5 t18 46.5q0 32 -19 53t-56 40zM515 725q-10 -67 -56 -107.5t-114 -40.5q-59 0 -94.5 33.5t-35.5 82.5q0 8 1 16t3 16h60q-1 -4 -1.5 -9t-0.5 -9q0 -33 20.5 -51.5t54.5 -18.5q37 0 64.5 22t34.5 66h64z" glyph-name="uni1E1D" horiz-adv-x="572" unicode="ḝ"/><glyph d="M343 -8q-70 0 -129 33.5t-94.5 97t-35.5 152.5q0 77 22.5 147.5t66 126.5t107.5 88.5t148 32.5q60 0 111.5 -17t89.5 -55.5t56 -104.5l-81 -28q-18 71 -65.5 101t-115.5 30q-62 0 -109.5 -26.5t-80 -71.5t-49 -100.5t-16.5 -113.5q0 -68 23.5 -116.5t66.5 -74t101 -25.5 q56 0 97 19.5t67 54.5t37 81l7 30h-206l17 75h277l-80 -328h-63l27 132l9 -11q-19 -41 -48 -70t-68 -44t-89 -15zM638 823l-15 -67h-314l15 67h314z" glyph-name="uni1E20" horiz-adv-x="707" unicode="Ḡ"/><glyph d="M213 -215q-43 0 -80.5 11.5t-66 32.5t-47 50.5t-25.5 66.5l80 28q11 -56 43.5 -87.5t101.5 -31.5q38 0 72 13.5t60 47t39 94.5l25 113l13 12q-15 -55 -63 -89.5t-111 -34.5q-58 0 -104 29t-72 78.5t-26 108.5q0 63 19 114.5t53 89.5t80.5 58.5t100.5 20.5 q51 0 89.5 -19.5t61.5 -55t25 -83.5l-15 -8l36 156h80l-117 -499q-18 -77 -54.5 -124.5t-86.5 -69.5t-111 -22zM275 80q47 0 85 28t60.5 76.5t22.5 110.5q0 45 -16 77.5t-46 50.5t-71 18q-52 0 -92 -26.5t-63 -74t-23 -111.5q0 -65 38 -107t105 -42zM517 663l-15 -67h-314 l15 67h314z" glyph-name="uni1E21" horiz-adv-x="613" unicode="ḡ"/><glyph d="M709 660l-153 -660h-80l153 660h80zM280 660l-153 -660h-80l153 660h80zM599 372l-17 -75h-424l17 75h424zM270 -216q-24 0 -39 14.5t-15 37.5q0 31 18.5 49.5t44.5 18.5q24 0 39 -14.5t15 -37.5q0 -31 -18.5 -49.5t-44.5 -18.5z" glyph-name="uni1E24" horiz-adv-x="719" unicode="Ḥ"/><glyph d="M31 0l169 730h80l-76 -330l-16 -7q14 39 42.5 65t66 39t78.5 13q56 0 96.5 -25t57.5 -71.5t2 -112.5l-70 -301h-80l70 302q15 65 -12.5 101.5t-86.5 36.5q-46 0 -81.5 -20.5t-60 -59.5t-38.5 -97l-61 -263h-80zM215 -216q-24 0 -39 14.5t-15 37.5q0 31 18.5 49.5 t44.5 18.5q24 0 39 -14.5t15 -37.5q0 -31 -18.5 -49.5t-44.5 -18.5z" glyph-name="uni1E25" horiz-adv-x="600" unicode="ḥ"/><glyph d="M709 660l-153 -660h-80l153 660h80zM280 660l-153 -660h-80l153 660h80zM599 372l-17 -75h-424l17 75h424zM439 -77q-10 -67 -56 -107.5t-114 -40.5q-59 0 -94.5 33.5t-35.5 82.5q0 8 1 16t3 16h60q-1 -4 -1.5 -9t-0.5 -9q0 -33 20.5 -51.5t54.5 -18.5q37 0 64.5 22 t34.5 66h64z" glyph-name="uni1E2A" horiz-adv-x="719" unicode="Ḫ"/><glyph d="M31 0l169 730h80l-76 -330l-16 -7q14 39 42.5 65t66 39t78.5 13q56 0 96.5 -25t57.5 -71.5t2 -112.5l-70 -301h-80l70 302q15 65 -12.5 101.5t-86.5 36.5q-46 0 -81.5 -20.5t-60 -59.5t-38.5 -97l-61 -263h-80zM384 -77q-10 -67 -56 -107.5t-114 -40.5q-59 0 -94.5 33.5 t-35.5 82.5q0 8 1 16t3 16h60q-1 -4 -1.5 -9t-0.5 -9q0 -33 20.5 -51.5t54.5 -18.5q37 0 64.5 22t34.5 66h64z" glyph-name="uni1E2B" horiz-adv-x="600" unicode="ḫ"/><glyph d="M280 660l-153 -660h-80l153 660h80zM362 742q-22 0 -36 14t-14 35q0 30 18 47.5t44 17.5q22 0 36 -14t14 -35q0 -30 -18 -47.5t-44 -17.5zM168 742q-22 0 -36 14t-14 35q0 30 18 47.5t44 17.5q22 0 36 -14t14 -35q0 -30 -18 -47.5t-44 -17.5zM349 1071h93l-121 -159h-68z" glyph-name="uni1E2E" horiz-adv-x="290" unicode="Ḯ"/><glyph d="M227 500l-116 -500h-80l116 500h80zM309 582q-22 0 -36 14t-14 35q0 30 18 47.5t44 17.5q22 0 36 -14t14 -35q0 -30 -18 -47.5t-44 -17.5zM115 582q-22 0 -36 14t-14 35q0 30 18 47.5t44 17.5q22 0 36 -14t14 -35q0 -30 -18 -47.5t-44 -17.5zM296 911h93l-121 -159h-68z" glyph-name="uni1E2F" horiz-adv-x="258" unicode="ḯ"/><glyph d="M144 75h371l-18 -75h-450l153 660h80zM255 -216q-24 0 -39 14.5t-15 37.5q0 31 18.5 49.5t44.5 18.5q24 0 39 -14.5t15 -37.5q0 -31 -18.5 -49.5t-44.5 -18.5z" glyph-name="uni1E36" horiz-adv-x="586" unicode="Ḷ"/><glyph d="M168 -7q-69 0 -96 41.5t-11 108.5l136 587h80l-137 -590q-10 -41 6 -59t55 -18q15 0 26 1t21 3l-20 -64q-16 -6 -29 -8t-31 -2zM106 -216q-24 0 -39 14.5t-15 37.5q0 31 18.5 49.5t44.5 18.5q24 0 39 -14.5t15 -37.5q0 -31 -18.5 -49.5t-44.5 -18.5z" glyph-name="uni1E37" horiz-adv-x="303" unicode="ḷ"/><glyph d="M144 75h371l-18 -75h-450l153 660h80zM429 -96l-15 -67h-314l15 67h314z" glyph-name="uni1E3A" horiz-adv-x="586" unicode="Ḻ"/><glyph d="M-29 -163l15 67h224l-15 -67h-224zM168 -7q-69 0 -96 41.5t-11 108.5l136 587h80l-137 -590q-10 -41 6 -59t55 -18q15 0 26 1t21 3l-20 -64q-16 -6 -29 -8t-31 -2z" glyph-name="uni1E3B" horiz-adv-x="303" unicode="ḻ"/><glyph d="M47 0l153 660h115l49 -410l14 -153h1l81 151l238 412h129l-153 -660h-75l96 415l45 174h-1l-347 -589h-68l-72 589h-1l-32 -174l-96 -415h-76zM333 -216q-24 0 -39 14.5t-15 37.5q0 31 18.5 49.5t44.5 18.5q24 0 39 -14.5t15 -37.5q0 -31 -18.5 -49.5t-44.5 -18.5z" glyph-name="uni1E42" horiz-adv-x="837" unicode="Ṃ"/><glyph d="M31 0l116 500h70l-19 -112l-10 5q20 59 72 88t113 29q54 0 92.5 -25t54.5 -72t0 -114l-70 -299h-80l70 300q16 66 -9.5 103t-80.5 37q-46 0 -81.5 -20.5t-59 -59.5t-37.5 -97l-61 -263h-80zM710 0l69 300q15 66 -10 103t-80 37q-46 0 -81 -20.5t-59 -59.5t-38 -97 l-10 106q29 71 86.5 106t124.5 35q54 0 92.5 -25t54.5 -72t0 -114l-69 -299h-80zM372 -216q-24 0 -39 14.5t-15 37.5q0 31 18.5 49.5t44.5 18.5q24 0 39 -14.5t15 -37.5q0 -31 -18.5 -49.5t-44.5 -18.5z" glyph-name="uni1E43" horiz-adv-x="934" unicode="ṃ"/><glyph d="M47 0l153 660h96l164 -440l43 -132h1l21 106l108 466h76l-153 -660h-95l-167 442l-41 130h-1l-21 -106l-108 -466h-76zM479 756q-24 0 -39 14.5t-15 37.5q0 31 18.5 49.5t44.5 18.5q24 0 39 -14.5t15 -37.5q0 -31 -18.5 -49.5t-44.5 -18.5z" glyph-name="uni1E44" horiz-adv-x="719" unicode="Ṅ"/><glyph d="M31 0l116 500h70l-19 -112l-10 5q20 59 73 88t114 29q58 0 98 -25t56.5 -71.5t1.5 -112.5l-70 -301h-80l70 302q15 65 -12.5 101.5t-86.5 36.5q-46 0 -81.5 -20.5t-60 -59.5t-38.5 -97l-61 -263h-80zM392 596q-24 0 -39 14.5t-15 37.5q0 31 18.5 49.5t44.5 18.5 q24 0 39 -14.5t15 -37.5q0 -31 -18.5 -49.5t-44.5 -18.5z" glyph-name="uni1E45" horiz-adv-x="600" unicode="ṅ"/><glyph d="M47 0l153 660h96l164 -440l43 -132h1l21 106l108 466h76l-153 -660h-95l-167 442l-41 130h-1l-21 -106l-108 -466h-76zM284 -216q-24 0 -39 14.5t-15 37.5q0 31 18.5 49.5t44.5 18.5q24 0 39 -14.5t15 -37.5q0 -31 -18.5 -49.5t-44.5 -18.5z" glyph-name="uni1E46" horiz-adv-x="719" unicode="Ṇ"/><glyph d="M31 0l116 500h70l-19 -112l-10 5q20 59 73 88t114 29q58 0 98 -25t56.5 -71.5t1.5 -112.5l-70 -301h-80l70 302q15 65 -12.5 101.5t-86.5 36.5q-46 0 -81.5 -20.5t-60 -59.5t-38.5 -97l-61 -263h-80zM222 -216q-24 0 -39 14.5t-15 37.5q0 31 18.5 49.5t44.5 18.5 q24 0 39 -14.5t15 -37.5q0 -31 -18.5 -49.5t-44.5 -18.5z" glyph-name="uni1E47" horiz-adv-x="600" unicode="ṇ"/><glyph d="M47 0l153 660h96l164 -440l43 -132h1l21 106l108 466h76l-153 -660h-95l-167 442l-41 130h-1l-21 -106l-108 -466h-76zM458 -96l-15 -67h-314l15 67h314z" glyph-name="uni1E48" horiz-adv-x="719" unicode="Ṉ"/><glyph d="M31 0l116 500h70l-19 -112l-10 5q20 59 73 88t114 29q58 0 98 -25t56.5 -71.5t1.5 -112.5l-70 -301h-80l70 302q15 65 -12.5 101.5t-86.5 36.5q-46 0 -81.5 -20.5t-60 -59.5t-38.5 -97l-61 -263h-80zM396 -96l-15 -67h-314l15 67h314z" glyph-name="uni1E49" horiz-adv-x="600" unicode="ṉ"/><glyph d="M359 -10q-74 0 -136.5 33.5t-100 98.5t-37.5 158q0 77 22 147t64.5 124.5t106 86.5t145.5 32q74 0 135.5 -34t98.5 -98.5t37 -157.5q0 -76 -21.5 -146t-64 -125t-105 -87t-144.5 -32zM368 66q60 0 105 26t75.5 70.5t46 99.5t15.5 113q0 69 -25 118t-69 75t-103 26 q-60 0 -105.5 -26t-76.5 -70t-46.5 -99t-15.5 -114q0 -69 25 -118t69.5 -75t104.5 -26zM653 877q-11 -65 -45.5 -99.5t-78.5 -34.5q-26 0 -44 10.5t-31 24t-25 24t-27 10.5q-18 0 -32.5 -19t-22.5 -51h-63q11 65 45.5 99.5t78.5 34.5q26 0 44 -10.5t31 -24t25 -24t27 -10.5 q18 0 32.5 19t22.5 51h63zM542 1100h93l-121 -159h-68z" glyph-name="uni1E4C" horiz-adv-x="742" unicode="Ṍ"/><glyph d="M282 -9q-72 0 -122.5 30.5t-77 82t-26.5 112.5q0 86 33 152t91 103.5t134 37.5q73 0 123 -30.5t76 -81t26 -112.5q0 -85 -32.5 -151.5t-90.5 -104.5t-134 -38zM285 60q36 0 67.5 15.5t55.5 45t37 70.5t13 91q0 44 -15.5 79.5t-48 57t-83.5 21.5q-36 0 -68 -15.5 t-55.5 -44.5t-37 -70t-13.5 -91q0 -43 16 -79.5t49 -58t83 -21.5zM539 717q-11 -65 -45.5 -99.5t-78.5 -34.5q-26 0 -44 10.5t-31 24t-25 24t-27 10.5q-18 0 -32.5 -19t-22.5 -51h-63q11 65 45.5 99.5t78.5 34.5q26 0 44 -10.5t31 -24t25 -24t27 -10.5q18 0 32.5 19t22.5 51 h63zM428 940h93l-121 -159h-68z" glyph-name="uni1E4D" horiz-adv-x="595" unicode="ṍ"/><glyph d="M359 -10q-74 0 -136.5 33.5t-100 98.5t-37.5 158q0 77 22 147t64.5 124.5t106 86.5t145.5 32q74 0 135.5 -34t98.5 -98.5t37 -157.5q0 -76 -21.5 -146t-64 -125t-105 -87t-144.5 -32zM368 66q60 0 105 26t75.5 70.5t46 99.5t15.5 113q0 69 -25 118t-69 75t-103 26 q-60 0 -105.5 -26t-76.5 -70t-46.5 -99t-15.5 -114q0 -69 25 -118t69.5 -75t104.5 -26zM653 877q-11 -65 -45.5 -99.5t-78.5 -34.5q-26 0 -44 10.5t-31 24t-25 24t-27 10.5q-18 0 -32.5 -19t-22.5 -51h-63q11 65 45.5 99.5t78.5 34.5q26 0 44 -10.5t31 -24t25 -24t27 -10.5 q18 0 32.5 19t22.5 51h63zM599 940q-22 0 -36 14t-14 35q0 30 18 47.5t44 17.5q22 0 36 -14t14 -35q0 -30 -18 -47.5t-44 -17.5zM405 940q-22 0 -36 14t-14 35q0 30 18 47.5t44 17.5q22 0 36 -14t14 -35q0 -30 -18 -47.5t-44 -17.5z" glyph-name="uni1E4E" horiz-adv-x="742" unicode="Ṏ"/><glyph d="M282 -9q-72 0 -122.5 30.5t-77 82t-26.5 112.5q0 86 33 152t91 103.5t134 37.5q73 0 123 -30.5t76 -81t26 -112.5q0 -85 -32.5 -151.5t-90.5 -104.5t-134 -38zM285 60q36 0 67.5 15.5t55.5 45t37 70.5t13 91q0 44 -15.5 79.5t-48 57t-83.5 21.5q-36 0 -68 -15.5 t-55.5 -44.5t-37 -70t-13.5 -91q0 -43 16 -79.5t49 -58t83 -21.5zM539 717q-11 -65 -45.5 -99.5t-78.5 -34.5q-26 0 -44 10.5t-31 24t-25 24t-27 10.5q-18 0 -32.5 -19t-22.5 -51h-63q11 65 45.5 99.5t78.5 34.5q26 0 44 -10.5t31 -24t25 -24t27 -10.5q18 0 32.5 19t22.5 51 h63zM485 780q-22 0 -36 14t-14 35q0 30 18 47.5t44 17.5q22 0 36 -14t14 -35q0 -30 -18 -47.5t-44 -17.5zM291 780q-22 0 -36 14t-14 35q0 30 18 47.5t44 17.5q22 0 36 -14t14 -35q0 -30 -18 -47.5t-44 -17.5z" glyph-name="uni1E4F" horiz-adv-x="595" unicode="ṏ"/><glyph d="M359 -10q-74 0 -136.5 33.5t-100 98.5t-37.5 158q0 77 22 147t64.5 124.5t106 86.5t145.5 32q74 0 135.5 -34t98.5 -98.5t37 -157.5q0 -76 -21.5 -146t-64 -125t-105 -87t-144.5 -32zM368 66q60 0 105 26t75.5 70.5t46 99.5t15.5 113q0 69 -25 118t-69 75t-103 26 q-60 0 -105.5 -26t-76.5 -70t-46.5 -99t-15.5 -114q0 -69 25 -118t69.5 -75t104.5 -26zM628 823l-15 -67h-314l15 67h314zM493 1063l40 -159h-57l-65 159h82z" glyph-name="uni1E50" horiz-adv-x="742" unicode="Ṑ"/><glyph d="M282 -9q-72 0 -122.5 30.5t-77 82t-26.5 112.5q0 86 33 152t91 103.5t134 37.5q73 0 123 -30.5t76 -81t26 -112.5q0 -85 -32.5 -151.5t-90.5 -104.5t-134 -38zM285 60q36 0 67.5 15.5t55.5 45t37 70.5t13 91q0 44 -15.5 79.5t-48 57t-83.5 21.5q-36 0 -68 -15.5 t-55.5 -44.5t-37 -70t-13.5 -91q0 -43 16 -79.5t49 -58t83 -21.5zM514 663l-15 -67h-314l15 67h314zM379 903l40 -159h-57l-65 159h82z" glyph-name="uni1E51" horiz-adv-x="595" unicode="ṑ"/><glyph d="M359 -10q-74 0 -136.5 33.5t-100 98.5t-37.5 158q0 77 22 147t64.5 124.5t106 86.5t145.5 32q74 0 135.5 -34t98.5 -98.5t37 -157.5q0 -76 -21.5 -146t-64 -125t-105 -87t-144.5 -32zM368 66q60 0 105 26t75.5 70.5t46 99.5t15.5 113q0 69 -25 118t-69 75t-103 26 q-60 0 -105.5 -26t-76.5 -70t-46.5 -99t-15.5 -114q0 -69 25 -118t69.5 -75t104.5 -26zM628 823l-15 -67h-314l15 67h314zM543 1063h93l-121 -159h-68z" glyph-name="uni1E52" horiz-adv-x="742" unicode="Ṓ"/><glyph d="M282 -9q-72 0 -122.5 30.5t-77 82t-26.5 112.5q0 86 33 152t91 103.5t134 37.5q73 0 123 -30.5t76 -81t26 -112.5q0 -85 -32.5 -151.5t-90.5 -104.5t-134 -38zM285 60q36 0 67.5 15.5t55.5 45t37 70.5t13 91q0 44 -15.5 79.5t-48 57t-83.5 21.5q-36 0 -68 -15.5 t-55.5 -44.5t-37 -70t-13.5 -91q0 -43 16 -79.5t49 -58t83 -21.5zM514 663l-15 -67h-314l15 67h314zM429 903h93l-121 -159h-68z" glyph-name="uni1E53" horiz-adv-x="595" unicode="ṓ"/><glyph d="M47 0l153 660h216q89 0 141.5 -47.5t52.5 -131.5q0 -56 -25.5 -100t-67 -71.5t-89.5 -36.5l-50 -7h-205l17 75h180q53 0 88 19.5t52 52t17 71.5q0 50 -34 75.5t-93 25.5h-137l-136 -585h-80zM469 0l-113 281l81 10l119 -291h-87zM273 -216q-24 0 -39 14.5t-15 37.5 q0 31 18.5 49.5t44.5 18.5q24 0 39 -14.5t15 -37.5q0 -31 -18.5 -49.5t-44.5 -18.5z" glyph-name="uni1E5A" horiz-adv-x="637" unicode="Ṛ"/><glyph d="M31 0l116 500h65l-11 -115l-12 7q16 37 44 63.5t63.5 40.5t70.5 14q16 0 28.5 -2t22.5 -7l-24 -76q-10 5 -22.5 7.5t-29.5 2.5q-38 0 -71.5 -17.5t-58.5 -53.5t-38 -93l-63 -271h-80zM39 -216q-24 0 -39 14.5t-15 37.5q0 31 18.5 49.5t44.5 18.5q24 0 39 -14.5t15 -37.5 q0 -31 -18.5 -49.5t-44.5 -18.5z" glyph-name="uni1E5B" horiz-adv-x="388" unicode="ṛ"/><glyph d="M47 0l153 660h216q89 0 141.5 -47.5t52.5 -131.5q0 -56 -25.5 -100t-67 -71.5t-89.5 -36.5l-50 -7h-205l17 75h180q53 0 88 19.5t52 52t17 71.5q0 50 -34 75.5t-93 25.5h-137l-136 -585h-80zM469 0l-113 281l81 10l119 -291h-87zM447 -96l-15 -67h-314l15 67h314z" glyph-name="uni1E5E" horiz-adv-x="637" unicode="Ṟ"/><glyph d="M-53 -163l15 67h208l-15 -67h-208zM31 0l116 500h65l-11 -115l-12 7q16 37 44 63.5t63.5 40.5t70.5 14q16 0 28.5 -2t22.5 -7l-24 -76q-10 5 -22.5 7.5t-29.5 2.5q-38 0 -71.5 -17.5t-58.5 -53.5t-38 -93l-63 -271h-80z" glyph-name="uni1E5F" horiz-adv-x="388" unicode="ṟ"/><glyph d="M337 -8q-74 0 -133.5 22.5t-101 65.5t-63.5 107l80 40q17 -58 50 -93.5t78 -51t97 -15.5q49 0 82 16.5t49.5 43t16.5 56.5q0 37 -23.5 58t-68.5 34l-107 30q-51 15 -86.5 39t-54 57t-18.5 72q0 55 29.5 100t83 71.5t126.5 26.5q97 0 162 -40t93 -122l-80 -39 q-13 52 -41 79t-64 37t-75 10q-50 0 -84 -15t-50.5 -40t-16.5 -55q0 -34 26 -61.5t70 -40.5l119 -34q73 -21 108 -59.5t35 -94.5q0 -62 -32.5 -108t-86.5 -71t-119 -25zM429 756q-24 0 -39 14.5t-15 37.5q0 31 18.5 49.5t44.5 18.5q24 0 39 -14.5t15 -37.5 q0 -31 -18.5 -49.5t-44.5 -18.5z" glyph-name="uni1E60" horiz-adv-x="639" unicode="Ṡ"/><glyph d="M252 -11q-58 0 -104.5 18t-79 51t-49.5 78l76 33q19 -55 59 -82.5t102 -27.5q53 0 80.5 23.5t27.5 57.5q0 26 -15 41t-47 24l-89 25q-62 17 -93 51.5t-31 79.5q0 42 23 75.5t66 53.5t102 20q71 0 125 -32t77 -93l-73 -35q-9 28 -28 48.5t-45.5 31.5t-60.5 11 q-55 0 -81.5 -20t-26.5 -53q0 -28 19.5 -44.5t48.5 -24.5l98 -28q51 -14 80.5 -46t29.5 -74q0 -50 -25 -86.5t-68 -56t-98 -19.5zM327 596q-24 0 -39 14.5t-15 37.5q0 31 18.5 49.5t44.5 18.5q24 0 39 -14.5t15 -37.5q0 -31 -18.5 -49.5t-44.5 -18.5z" glyph-name="uni1E61" horiz-adv-x="512" unicode="ṡ"/><glyph d="M337 -8q-74 0 -133.5 22.5t-101 65.5t-63.5 107l80 40q17 -58 50 -93.5t78 -51t97 -15.5q49 0 82 16.5t49.5 43t16.5 56.5q0 37 -23.5 58t-68.5 34l-107 30q-51 15 -86.5 39t-54 57t-18.5 72q0 55 29.5 100t83 71.5t126.5 26.5q97 0 162 -40t93 -122l-80 -39 q-13 52 -41 79t-64 37t-75 10q-50 0 -84 -15t-50.5 -40t-16.5 -55q0 -34 26 -61.5t70 -40.5l119 -34q73 -21 108 -59.5t35 -94.5q0 -62 -32.5 -108t-86.5 -71t-119 -25zM248 -216q-24 0 -39 14.5t-15 37.5q0 31 18.5 49.5t44.5 18.5q24 0 39 -14.5t15 -37.5 q0 -31 -18.5 -49.5t-44.5 -18.5z" glyph-name="uni1E62" horiz-adv-x="639" unicode="Ṣ"/><glyph d="M252 -11q-58 0 -104.5 18t-79 51t-49.5 78l76 33q19 -55 59 -82.5t102 -27.5q53 0 80.5 23.5t27.5 57.5q0 26 -15 41t-47 24l-89 25q-62 17 -93 51.5t-31 79.5q0 42 23 75.5t66 53.5t102 20q71 0 125 -32t77 -93l-73 -35q-9 28 -28 48.5t-45.5 31.5t-60.5 11 q-55 0 -81.5 -20t-26.5 -53q0 -28 19.5 -44.5t48.5 -24.5l98 -28q51 -14 80.5 -46t29.5 -74q0 -50 -25 -86.5t-68 -56t-98 -19.5zM183 -216q-24 0 -39 14.5t-15 37.5q0 31 18.5 49.5t44.5 18.5q24 0 39 -14.5t15 -37.5q0 -31 -18.5 -49.5t-44.5 -18.5z" glyph-name="uni1E63" horiz-adv-x="512" unicode="ṣ"/><glyph d="M337 -8q-74 0 -133.5 22.5t-101 65.5t-63.5 107l80 40q17 -58 50 -93.5t78 -51t97 -15.5q49 0 82 16.5t49.5 43t16.5 56.5q0 37 -23.5 58t-68.5 34l-107 30q-51 15 -86.5 39t-54 57t-18.5 72q0 55 29.5 100t83 71.5t126.5 26.5q97 0 162 -40t93 -122l-80 -39 q-13 52 -41 79t-64 37t-75 10q-50 0 -84 -15t-50.5 -40t-16.5 -55q0 -34 26 -61.5t70 -40.5l119 -34q73 -21 108 -59.5t35 -94.5q0 -62 -32.5 -108t-86.5 -71t-119 -25zM462 902h93l-121 -159h-68zM477 967q-24 0 -39 14.5t-15 37.5q0 31 18.5 49.5t44.5 18.5q24 0 39 -14.5 t15 -37.5q0 -31 -18.5 -49.5t-44.5 -18.5z" glyph-name="uni1E64" horiz-adv-x="639" unicode="Ṥ"/><glyph d="M252 -11q-58 0 -104.5 18t-79 51t-49.5 78l76 33q19 -55 59 -82.5t102 -27.5q53 0 80.5 23.5t27.5 57.5q0 26 -15 41t-47 24l-89 25q-62 17 -93 51.5t-31 79.5q0 42 23 75.5t66 53.5t102 20q71 0 125 -32t77 -93l-73 -35q-9 28 -28 48.5t-45.5 31.5t-60.5 11 q-55 0 -81.5 -20t-26.5 -53q0 -28 19.5 -44.5t48.5 -24.5l98 -28q51 -14 80.5 -46t29.5 -74q0 -50 -25 -86.5t-68 -56t-98 -19.5zM383 750h96l-143 -167h-75zM359 804q-24 0 -39 14.5t-15 37.5q0 31 18.5 49.5t44.5 18.5q24 0 39 -14.5t15 -37.5q0 -31 -18.5 -49.5 t-44.5 -18.5z" glyph-name="uni1E65" horiz-adv-x="512" unicode="ṥ"/><glyph d="M337 -8q-74 0 -133.5 22.5t-101 65.5t-63.5 107l80 40q17 -58 50 -93.5t78 -51t97 -15.5q49 0 82 16.5t49.5 43t16.5 56.5q0 37 -23.5 58t-68.5 34l-107 30q-51 15 -86.5 39t-54 57t-18.5 72q0 55 29.5 100t83 71.5t126.5 26.5q97 0 162 -40t93 -122l-80 -39 q-13 52 -41 79t-64 37t-75 10q-50 0 -84 -15t-50.5 -40t-16.5 -55q0 -34 26 -61.5t70 -40.5l119 -34q73 -21 108 -59.5t35 -94.5q0 -62 -32.5 -108t-86.5 -71t-119 -25zM372 743l-73 159h68l57 -106l103 106h80l-147 -159h-88zM476 963q-24 0 -39 14.5t-15 37.5 q0 31 18.5 49.5t44.5 18.5q24 0 39 -14.5t15 -37.5q0 -31 -18.5 -49.5t-44.5 -18.5z" glyph-name="uni1E66" horiz-adv-x="639" unicode="Ṧ"/><glyph d="M252 -11q-58 0 -104.5 18t-79 51t-49.5 78l76 33q19 -55 59 -82.5t102 -27.5q53 0 80.5 23.5t27.5 57.5q0 26 -15 41t-47 24l-89 25q-62 17 -93 51.5t-31 79.5q0 42 23 75.5t66 53.5t102 20q71 0 125 -32t77 -93l-73 -35q-9 28 -28 48.5t-45.5 31.5t-60.5 11 q-55 0 -81.5 -20t-26.5 -53q0 -28 19.5 -44.5t48.5 -24.5l98 -28q51 -14 80.5 -46t29.5 -74q0 -50 -25 -86.5t-68 -56t-98 -19.5zM266 583l-76 167h69l60 -114l111 114h78l-152 -167h-90zM355 788q-24 0 -39 14.5t-15 37.5q0 31 18.5 49.5t44.5 18.5q24 0 39 -14.5t15 -37.5 q0 -31 -18.5 -49.5t-44.5 -18.5z" glyph-name="uni1E67" horiz-adv-x="512" unicode="ṧ"/><glyph d="M337 -8q-74 0 -133.5 22.5t-101 65.5t-63.5 107l80 40q17 -58 50 -93.5t78 -51t97 -15.5q49 0 82 16.5t49.5 43t16.5 56.5q0 37 -23.5 58t-68.5 34l-107 30q-51 15 -86.5 39t-54 57t-18.5 72q0 55 29.5 100t83 71.5t126.5 26.5q97 0 162 -40t93 -122l-80 -39 q-13 52 -41 79t-64 37t-75 10q-50 0 -84 -15t-50.5 -40t-16.5 -55q0 -34 26 -61.5t70 -40.5l119 -34q73 -21 108 -59.5t35 -94.5q0 -62 -32.5 -108t-86.5 -71t-119 -25zM429 756q-24 0 -39 14.5t-15 37.5q0 31 18.5 49.5t44.5 18.5q24 0 39 -14.5t15 -37.5 q0 -31 -18.5 -49.5t-44.5 -18.5zM248 -216q-24 0 -39 14.5t-15 37.5q0 31 18.5 49.5t44.5 18.5q24 0 39 -14.5t15 -37.5q0 -31 -18.5 -49.5t-44.5 -18.5z" glyph-name="uni1E68" horiz-adv-x="639" unicode="Ṩ"/><glyph d="M252 -11q-58 0 -104.5 18t-79 51t-49.5 78l76 33q19 -55 59 -82.5t102 -27.5q53 0 80.5 23.5t27.5 57.5q0 26 -15 41t-47 24l-89 25q-62 17 -93 51.5t-31 79.5q0 42 23 75.5t66 53.5t102 20q71 0 125 -32t77 -93l-73 -35q-9 28 -28 48.5t-45.5 31.5t-60.5 11 q-55 0 -81.5 -20t-26.5 -53q0 -28 19.5 -44.5t48.5 -24.5l98 -28q51 -14 80.5 -46t29.5 -74q0 -50 -25 -86.5t-68 -56t-98 -19.5zM327 596q-24 0 -39 14.5t-15 37.5q0 31 18.5 49.5t44.5 18.5q24 0 39 -14.5t15 -37.5q0 -31 -18.5 -49.5t-44.5 -18.5zM183 -216 q-24 0 -39 14.5t-15 37.5q0 31 18.5 49.5t44.5 18.5q24 0 39 -14.5t15 -37.5q0 -31 -18.5 -49.5t-44.5 -18.5z" glyph-name="uni1E69" horiz-adv-x="512" unicode="ṩ"/><glyph d="M656 660l-18 -75h-223l-135 -585h-80l135 585h-227l18 75h530zM202 -216q-24 0 -39 14.5t-15 37.5q0 31 18.5 49.5t44.5 18.5q24 0 39 -14.5t15 -37.5q0 -31 -18.5 -49.5t-44.5 -18.5z" glyph-name="uni1E6C" horiz-adv-x="592" unicode="Ṭ"/><glyph d="M235 -8q-48 0 -82 19t-48 55t-3 86l105 458l87 25l-114 -487q-10 -46 12.5 -65.5t56.5 -19.5q25 0 44 7t33 18l16 -66q-25 -17 -51 -23.5t-56 -6.5zM65 431l16 69h336l-16 -69h-336zM171 -216q-24 0 -39 14.5t-15 37.5q0 31 18.5 49.5t44.5 18.5q24 0 39 -14.5t15 -37.5 q0 -31 -18.5 -49.5t-44.5 -18.5z" glyph-name="uni1E6D" horiz-adv-x="402" unicode="ṭ"/><glyph d="M656 660l-18 -75h-223l-135 -585h-80l135 585h-227l18 75h530zM385 -96l-15 -67h-314l15 67h314z" glyph-name="uni1E6E" horiz-adv-x="592" unicode="Ṯ"/><glyph d="M235 -8q-48 0 -82 19t-48 55t-3 86l105 458l87 25l-114 -487q-10 -46 12.5 -65.5t56.5 -19.5q25 0 44 7t33 18l16 -66q-25 -17 -51 -23.5t-56 -6.5zM65 431l16 69h336l-16 -69h-336zM345 -96l-15 -67h-314l15 67h314z" glyph-name="uni1E6F" horiz-adv-x="402" unicode="ṯ"/><glyph d="M325 -10q-87 0 -145.5 35t-80 101.5t-0.5 159.5l88 374h80l-90 -393q-15 -67 1 -112t55.5 -67.5t96.5 -22.5q80 0 126 50t65 134l95 411h80l-100 -434q-25 -106 -93 -171t-178 -65zM646 857q-11 -65 -45.5 -99.5t-78.5 -34.5q-26 0 -44 10.5t-31 24t-25 24t-27 10.5 q-18 0 -32.5 -19t-22.5 -51h-63q11 65 45.5 99.5t78.5 34.5q26 0 44 -10.5t31 -24t25 -24t27 -10.5q18 0 32.5 19t22.5 51h63zM535 1080h93l-121 -159h-68z" glyph-name="uni1E78" horiz-adv-x="693" unicode="Ṹ"/><glyph d="M228 -8q-54 0 -95.5 24.5t-60 71t-3.5 111.5l70 301h80l-69 -299q-16 -67 12.5 -103t86.5 -36q46 0 81 20t59 59t37 96l61 263h80l-116 -500h-70l19 112l10 -5q-20 -58 -70 -86.5t-112 -28.5zM559 707q-11 -65 -45.5 -99.5t-78.5 -34.5q-26 0 -44 10.5t-31 24t-25 24 t-27 10.5q-18 0 -32.5 -19t-22.5 -51h-63q11 65 45.5 99.5t78.5 34.5q26 0 44 -10.5t31 -24t25 -24t27 -10.5q18 0 32.5 19t22.5 51h63zM448 930h93l-121 -159h-68z" glyph-name="uni1E79" horiz-adv-x="598" unicode="ṹ"/><glyph d="M325 -10q-87 0 -145.5 35t-80 101.5t-0.5 159.5l88 374h80l-90 -393q-15 -67 1 -112t55.5 -67.5t96.5 -22.5q80 0 126 50t65 134l95 411h80l-100 -434q-25 -106 -93 -171t-178 -65zM621 803l-15 -67h-314l15 67h314zM593 883q-22 0 -36 14t-14 35q0 30 18 47.5t44 17.5 q22 0 36 -14t14 -35q0 -30 -18 -47.5t-44 -17.5zM399 883q-22 0 -36 14t-14 35q0 30 18 47.5t44 17.5q22 0 36 -14t14 -35q0 -30 -18 -47.5t-44 -17.5z" glyph-name="uni1E7A" horiz-adv-x="693" unicode="Ṻ"/><glyph d="M228 -8q-54 0 -95.5 24.5t-60 71t-3.5 111.5l70 301h80l-69 -299q-16 -67 12.5 -103t86.5 -36q46 0 81 20t59 59t37 96l61 263h80l-116 -500h-70l19 112l10 -5q-20 -58 -70 -86.5t-112 -28.5zM534 653l-15 -67h-314l15 67h314zM506 733q-22 0 -36 14t-14 35q0 30 18 47.5 t44 17.5q22 0 36 -14t14 -35q0 -30 -18 -47.5t-44 -17.5zM312 733q-22 0 -36 14t-14 35q0 30 18 47.5t44 17.5q22 0 36 -14t14 -35q0 -30 -18 -47.5t-44 -17.5z" glyph-name="uni1E7B" horiz-adv-x="598" unicode="ṻ"/><glyph d="M166 0l-38 660h77l27 -577l275 577h98l18 -582l292 582h86l-343 -660h-101l-18 428l-1 149h-1l-66 -149l-208 -428h-97zM573 902l40 -159h-57l-65 159h82z" glyph-name="Wgrave" horiz-adv-x="939" unicode="Ẁ"/><glyph d="M130 0l-54 500h77l38 -400l211 400h80l51 -406l216 406h85l-276 -500h-80l-55 397l-212 -397h-81zM444 750l45 -167h-61l-64 167h80z" glyph-name="wgrave" horiz-adv-x="803" unicode="ẁ"/><glyph d="M166 0l-38 660h77l27 -577l275 577h98l18 -582l292 582h86l-343 -660h-101l-18 428l-1 149h-1l-66 -149l-208 -428h-97zM623 902h93l-121 -159h-68z" glyph-name="Wacute" horiz-adv-x="939" unicode="Ẃ"/><glyph d="M130 0l-54 500h77l38 -400l211 400h80l51 -406l216 406h85l-276 -500h-80l-55 397l-212 -397h-81zM521 750h96l-143 -167h-75z" glyph-name="wacute" horiz-adv-x="803" unicode="ẃ"/><glyph d="M166 0l-38 660h77l27 -577l275 577h98l18 -582l292 582h86l-343 -660h-101l-18 428l-1 149h-1l-66 -149l-208 -428h-97zM680 742q-22 0 -36 14t-14 35q0 30 18 47.5t44 17.5q22 0 36 -14t14 -35q0 -30 -18 -47.5t-44 -17.5zM486 742q-22 0 -36 14t-14 35q0 30 18 47.5 t44 17.5q22 0 36 -14t14 -35q0 -30 -18 -47.5t-44 -17.5z" glyph-name="Wdieresis" horiz-adv-x="939" unicode="Ẅ"/><glyph d="M130 0l-54 500h77l38 -400l211 400h80l51 -406l216 406h85l-276 -500h-80l-55 397l-212 -397h-81zM555 582q-22 0 -36 14t-14 35q0 30 18 47.5t44 17.5q22 0 36 -14t14 -35q0 -30 -18 -47.5t-44 -17.5zM361 582q-22 0 -36 14t-14 35q0 30 18 47.5t44 17.5q22 0 36 -14 t14 -35q0 -30 -18 -47.5t-44 -17.5z" glyph-name="wdieresis" horiz-adv-x="803" unicode="ẅ"/><glyph d="M183 0l60 258l-133 402h86l72 -229l27 -98l75 104l176 223h96l-320 -409l-59 -251h-80zM391 736q-24 0 -39 14.5t-15 37.5q0 31 18.5 49.5t44.5 18.5q24 0 39 -14.5t15 -37.5q0 -31 -18.5 -49.5t-44.5 -18.5z" glyph-name="uni1E8E" horiz-adv-x="562" unicode="Ẏ"/><glyph d="M12 -215q-38 0 -65.5 9t-45.5 25l32 67q34 -31 76 -31q32 0 56.5 18t48.5 56l47 75l-88 496h79l46 -286l20 -125l70 117l177 294h91l-378 -598q-26 -41 -53.5 -67t-55.5 -38t-57 -12zM334 586q-24 0 -39 14.5t-15 37.5q0 31 18.5 49.5t44.5 18.5q24 0 39 -14.5t15 -37.5 q0 -31 -18.5 -49.5t-44.5 -18.5z" glyph-name="uni1E8F" horiz-adv-x="504" unicode="ẏ"/><glyph d="M-3 0l17 73l490 512h-374l18 75h475l-17 -72l-492 -513h401l-18 -75h-500zM248 -216q-24 0 -39 14.5t-15 37.5q0 31 18.5 49.5t44.5 18.5q24 0 39 -14.5t15 -37.5q0 -31 -18.5 -49.5t-44.5 -18.5z" glyph-name="uni1E92" horiz-adv-x="591" unicode="Ẓ"/><glyph d="M1 0l15 65l329 318l55 50l-88 -2h-216l16 69h397l-16 -69l-303 -291l-78 -71h108h210l-16 -69h-413zM198 -216q-24 0 -39 14.5t-15 37.5q0 31 18.5 49.5t44.5 18.5q24 0 39 -14.5t15 -37.5q0 -31 -18.5 -49.5t-44.5 -18.5z" glyph-name="uni1E93" horiz-adv-x="513" unicode="ẓ"/><glyph d="M235 -8q-48 0 -82 19t-48 55t-3 86l105 458l87 25l-114 -487q-10 -46 12.5 -65.5t56.5 -19.5q25 0 44 7t33 18l16 -66q-25 -17 -51 -23.5t-56 -6.5zM65 431l16 69h336l-16 -69h-336zM374 722q-22 0 -36 14t-14 35q0 30 18 47.5t44 17.5q22 0 36 -14t14 -35 q0 -30 -18 -47.5t-44 -17.5zM180 722q-22 0 -36 14t-14 35q0 30 18 47.5t44 17.5q22 0 36 -14t14 -35q0 -30 -18 -47.5t-44 -17.5z" glyph-name="uni1E97" horiz-adv-x="402" unicode="ẗ"/><glyph d="M399 -5q-49 0 -92 18t-68 44l41 66q19 -25 51.5 -40.5t75.5 -15.5q33 0 60.5 15t44.5 43.5t17 68.5q0 55 -29 82t-88 27h-87l17 72l232 210h-203q-47 0 -77.5 -16.5t-47.5 -46.5t-27 -72l-104 -450h-80l108 469q13 56 43 99t80 67.5t122 24.5h308l-18 -75l-247 -218h17 q47 0 83.5 -20t57.5 -57.5t21 -90.5q0 -62 -27.5 -108t-75 -71t-108.5 -25z" glyph-name="uni1E9E" horiz-adv-x="646" unicode="ẞ"/><glyph d="M-35 0l402 660h99l96 -660h-79l-69 474l-14 100v0l-58 -96l-287 -478h-90zM132 189l17 75h346l-17 -75h-346zM255 -216q-24 0 -39 14.5t-15 37.5q0 31 18.5 49.5t44.5 18.5q24 0 39 -14.5t15 -37.5q0 -31 -18.5 -49.5t-44.5 -18.5z" glyph-name="uni1EA0" horiz-adv-x="643" unicode="Ạ"/><glyph d="M251 -8q-58 0 -102 28t-69 77.5t-25 114.5q0 62 19 116t53 95t81 64t102 23q44 0 79 -15t58 -42.5t32 -65.5l26 113h80l-116 -500h-70l17 93q-24 -46 -68.5 -73.5t-96.5 -27.5zM272 60q35 0 66.5 18t56 49.5t38.5 74t14 91.5q0 45 -16.5 78.5t-46 51.5t-69.5 18 t-73 -17.5t-57 -48.5t-37.5 -72.5t-13.5 -89.5q0 -49 16 -83t46.5 -52t75.5 -18zM215 -216q-24 0 -39 14.5t-15 37.5q0 31 18.5 49.5t44.5 18.5q24 0 39 -14.5t15 -37.5q0 -31 -18.5 -49.5t-44.5 -18.5z" glyph-name="uni1EA1" horiz-adv-x="616" unicode="ạ"/><glyph d="M-35 0l402 660h99l96 -660h-79l-69 474l-14 100v0l-58 -96l-287 -478h-90zM132 189l17 75h346l-17 -75h-346zM413 710l-13 41q28 5 42.5 20.5t14.5 36.5q0 20 -12 27.5t-26 7.5q-13 0 -25.5 -6.5t-21.5 -20.5l-38 44q17 22 43 34.5t54 12.5q39 0 65.5 -23t26.5 -64 q0 -25 -12 -48t-36 -39.5t-62 -22.5z" glyph-name="uni1EA2" horiz-adv-x="643" unicode="Ả"/><glyph d="M251 -8q-58 0 -102 28t-69 77.5t-25 114.5q0 62 19 116t53 95t81 64t102 23q44 0 79 -15t58 -42.5t32 -65.5l26 113h80l-116 -500h-70l17 93q-24 -46 -68.5 -73.5t-96.5 -27.5zM272 60q35 0 66.5 18t56 49.5t38.5 74t14 91.5q0 45 -16.5 78.5t-46 51.5t-69.5 18 t-73 -17.5t-57 -48.5t-37.5 -72.5t-13.5 -89.5q0 -49 16 -83t46.5 -52t75.5 -18zM329 554l-13 45q32 5 51 21t19 35q0 20 -12 28t-26 8q-13 0 -26.5 -7t-25.5 -19l-33 43q18 21 43.5 33t54.5 12q41 0 66 -23t25 -64q0 -25 -13 -49t-40.5 -40.5t-69.5 -22.5z" glyph-name="uni1EA3" horiz-adv-x="616" unicode="ả"/><glyph d="M264 736l152 167h90l76 -167h-69l-60 114l-111 -114h-78zM655 996h84l-109 -143h-61zM-35 0l402 660h99l96 -660h-79l-69 474l-14 100v0l-58 -96l-287 -478h-90zM132 189l17 75h346l-17 -75h-346z" glyph-name="uni1EA4" horiz-adv-x="643" unicode="Ấ"/><glyph d="M185 576l152 167h90l76 -167h-69l-60 114l-111 -114h-78zM576 836h84l-109 -143h-61zM251 -8q-58 0 -102 28t-69 77.5t-25 114.5q0 62 19 116t53 95t81 64t102 23q44 0 79 -15t58 -42.5t32 -65.5l26 113h80l-116 -500h-70l17 93q-24 -46 -68.5 -73.5t-96.5 -27.5zM272 60 q35 0 66.5 18t56 49.5t38.5 74t14 91.5q0 45 -16.5 78.5t-46 51.5t-69.5 18t-73 -17.5t-57 -48.5t-37.5 -72.5t-13.5 -89.5q0 -49 16 -83t46.5 -52t75.5 -18z" glyph-name="uni1EA5" horiz-adv-x="616" unicode="ấ"/><glyph d="M264 736l152 167h90l76 -167h-69l-60 114l-111 -114h-78zM610 996l36 -143h-51l-59 143h74zM-35 0l402 660h99l96 -660h-79l-69 474l-14 100v0l-58 -96l-287 -478h-90zM132 189l17 75h346l-17 -75h-346z" glyph-name="uni1EA6" horiz-adv-x="643" unicode="Ầ"/><glyph d="M185 576l152 167h90l76 -167h-69l-60 114l-111 -114h-78zM531 836l36 -143h-51l-59 143h74zM251 -8q-58 0 -102 28t-69 77.5t-25 114.5q0 62 19 116t53 95t81 64t102 23q44 0 79 -15t58 -42.5t32 -65.5l26 113h80l-116 -500h-70l17 93q-24 -46 -68.5 -73.5t-96.5 -27.5z M272 60q35 0 66.5 18t56 49.5t38.5 74t14 91.5q0 45 -16.5 78.5t-46 51.5t-69.5 18t-73 -17.5t-57 -48.5t-37.5 -72.5t-13.5 -89.5q0 -49 16 -83t46.5 -52t75.5 -18z" glyph-name="uni1EA7" horiz-adv-x="616" unicode="ầ"/><glyph d="M264 736l152 167h90l76 -167h-69l-60 114l-111 -114h-78zM601 828l-13 41q28 5 42.5 20.5t14.5 36.5q0 20 -12 27.5t-26 7.5q-13 0 -25.5 -6.5t-21.5 -20.5l-38 44q17 22 43 34.5t54 12.5q39 0 65.5 -23t26.5 -64q0 -25 -12 -48t-36 -39.5t-62 -22.5zM-35 0l402 660h99 l96 -660h-79l-69 474l-14 100v0l-58 -96l-287 -478h-90zM132 189l17 75h346l-17 -75h-346z" glyph-name="uni1EA8" horiz-adv-x="643" unicode="Ẩ"/><glyph d="M185 576l152 167h90l76 -167h-69l-60 114l-111 -114h-78zM522 668l-13 41q28 5 42.5 20.5t14.5 36.5q0 20 -12 27.5t-26 7.5q-13 0 -25.5 -6.5t-21.5 -20.5l-38 44q17 22 43 34.5t54 12.5q39 0 65.5 -23t26.5 -64q0 -25 -12 -48t-36 -39.5t-62 -22.5zM251 -8 q-58 0 -102 28t-69 77.5t-25 114.5q0 62 19 116t53 95t81 64t102 23q44 0 79 -15t58 -42.5t32 -65.5l26 113h80l-116 -500h-70l17 93q-24 -46 -68.5 -73.5t-96.5 -27.5zM272 60q35 0 66.5 18t56 49.5t38.5 74t14 91.5q0 45 -16.5 78.5t-46 51.5t-69.5 18t-73 -17.5 t-57 -48.5t-37.5 -72.5t-13.5 -89.5q0 -49 16 -83t46.5 -52t75.5 -18z" glyph-name="uni1EA9" horiz-adv-x="616" unicode="ẩ"/><glyph d="M264 736l152 167h90l76 -167h-69l-60 114l-111 -114h-78zM651 1055q-9 -61 -41 -93t-76 -32q-25 0 -42 9.5t-30 22t-25.5 22t-29.5 9.5q-18 0 -30 -16.5t-17 -44.5h-63q8 61 40 93t76 32q25 0 42 -9.5t30 -22t26 -22t29 -9.5q18 0 30 16.5t18 44.5h63zM-35 0l402 660h99 l96 -660h-79l-69 474l-14 100v0l-58 -96l-287 -478h-90zM132 189l17 75h346l-17 -75h-346z" glyph-name="uni1EAA" horiz-adv-x="643" unicode="Ẫ"/><glyph d="M185 576l152 167h90l76 -167h-69l-60 114l-111 -114h-78zM572 895q-9 -61 -41 -93t-76 -32q-25 0 -42 9.5t-30 22t-25.5 22t-29.5 9.5q-18 0 -30 -16.5t-17 -44.5h-63q8 61 40 93t76 32q25 0 42 -9.5t30 -22t26 -22t29 -9.5q18 0 30 16.5t18 44.5h63zM251 -8 q-58 0 -102 28t-69 77.5t-25 114.5q0 62 19 116t53 95t81 64t102 23q44 0 79 -15t58 -42.5t32 -65.5l26 113h80l-116 -500h-70l17 93q-24 -46 -68.5 -73.5t-96.5 -27.5zM272 60q35 0 66.5 18t56 49.5t38.5 74t14 91.5q0 45 -16.5 78.5t-46 51.5t-69.5 18t-73 -17.5 t-57 -48.5t-37.5 -72.5t-13.5 -89.5q0 -49 16 -83t46.5 -52t75.5 -18z" glyph-name="uni1EAB" horiz-adv-x="616" unicode="ẫ"/><glyph d="M-35 0l402 660h99l96 -660h-79l-69 474l-14 100v0l-58 -96l-287 -478h-90zM132 189l17 75h346l-17 -75h-346zM255 -216q-24 0 -39 14.5t-15 37.5q0 31 18.5 49.5t44.5 18.5q24 0 39 -14.5t15 -37.5q0 -31 -18.5 -49.5t-44.5 -18.5zM506 902l73 -159h-68l-57 106 l-103 -106h-80l147 159h88z" glyph-name="uni1EAC" horiz-adv-x="643" unicode="Ậ"/><glyph d="M251 -8q-58 0 -102 28t-69 77.5t-25 114.5q0 62 19 116t53 95t81 64t102 23q44 0 79 -15t58 -42.5t32 -65.5l26 113h80l-116 -500h-70l17 93q-24 -46 -68.5 -73.5t-96.5 -27.5zM272 60q35 0 66.5 18t56 49.5t38.5 74t14 91.5q0 45 -16.5 78.5t-46 51.5t-69.5 18 t-73 -17.5t-57 -48.5t-37.5 -72.5t-13.5 -89.5q0 -49 16 -83t46.5 -52t75.5 -18zM215 -216q-24 0 -39 14.5t-15 37.5q0 31 18.5 49.5t44.5 18.5q24 0 39 -14.5t15 -37.5q0 -31 -18.5 -49.5t-44.5 -18.5zM185 576l152 167h90l76 -167h-69l-60 114l-111 -114h-78z" glyph-name="uni1EAD" horiz-adv-x="616" unicode="ậ"/><glyph d="M599 885q-10 -67 -56 -107.5t-114 -40.5q-59 0 -94.5 33.5t-35.5 82.5q0 17 4 32h60q-1 -4 -1.5 -9t-0.5 -9q0 -33 20.5 -51.5t54.5 -18.5q37 0 64.5 22t34.5 66h64zM399 903l82 130h83l-103 -130h-62zM-35 0l402 660h99l96 -660h-79l-69 474l-14 100v0l-58 -96 l-287 -478h-90zM132 189l17 75h346l-17 -75h-346z" glyph-name="uni1EAE" horiz-adv-x="643" unicode="Ắ"/><glyph d="M532 725q-10 -67 -56 -107.5t-114 -40.5q-59 0 -94.5 33.5t-35.5 82.5q0 17 4 32h60q-1 -4 -1.5 -9t-0.5 -9q0 -33 20.5 -51.5t54.5 -18.5q37 0 64.5 22t34.5 66h64zM332 743l82 130h83l-103 -130h-62zM251 -8q-58 0 -102 28t-69 77.5t-25 114.5q0 62 19 116t53 95t81 64 t102 23q44 0 79 -15t58 -42.5t32 -65.5l26 113h80l-116 -500h-70l17 93q-24 -46 -68.5 -73.5t-96.5 -27.5zM272 60q35 0 66.5 18t56 49.5t38.5 74t14 91.5q0 45 -16.5 78.5t-46 51.5t-69.5 18t-73 -17.5t-57 -48.5t-37.5 -72.5t-13.5 -89.5q0 -49 16 -83t46.5 -52t75.5 -18z" glyph-name="uni1EAF" horiz-adv-x="616" unicode="ắ"/><glyph d="M599 885q-10 -67 -56 -107.5t-114 -40.5q-59 0 -94.5 33.5t-35.5 82.5q0 17 4 32h60q-1 -4 -1.5 -9t-0.5 -9q0 -33 20.5 -51.5t54.5 -18.5q37 0 64.5 22t34.5 66h64zM439 903l-62 130h81l40 -130h-59zM-35 0l402 660h99l96 -660h-79l-69 474l-14 100v0l-58 -96l-287 -478 h-90zM132 189l17 75h346l-17 -75h-346z" glyph-name="uni1EB0" horiz-adv-x="643" unicode="Ằ"/><glyph d="M532 725q-10 -67 -56 -107.5t-114 -40.5q-59 0 -94.5 33.5t-35.5 82.5q0 17 4 32h60q-1 -4 -1.5 -9t-0.5 -9q0 -33 20.5 -51.5t54.5 -18.5q37 0 64.5 22t34.5 66h64zM372 743l-62 130h81l40 -130h-59zM251 -8q-58 0 -102 28t-69 77.5t-25 114.5q0 62 19 116t53 95t81 64 t102 23q44 0 79 -15t58 -42.5t32 -65.5l26 113h80l-116 -500h-70l17 93q-24 -46 -68.5 -73.5t-96.5 -27.5zM272 60q35 0 66.5 18t56 49.5t38.5 74t14 91.5q0 45 -16.5 78.5t-46 51.5t-69.5 18t-73 -17.5t-57 -48.5t-37.5 -72.5t-13.5 -89.5q0 -49 16 -83t46.5 -52t75.5 -18z" glyph-name="uni1EB1" horiz-adv-x="616" unicode="ằ"/><glyph d="M599 885q-10 -67 -56 -107.5t-114 -40.5q-59 0 -94.5 33.5t-35.5 82.5q0 17 4 32h60q-1 -4 -1.5 -9t-0.5 -9q0 -33 20.5 -51.5t54.5 -18.5q37 0 64.5 22t34.5 66h64zM437 885l-13 41q28 5 42.5 20.5t14.5 36.5q0 20 -12 27.5t-26 7.5q-13 0 -25.5 -6.5t-21.5 -20.5 l-38 44q17 22 43 34.5t54 12.5q39 0 65.5 -23t26.5 -64q0 -25 -12 -48t-36 -39.5t-62 -22.5zM-35 0l402 660h99l96 -660h-79l-69 474l-14 100v0l-58 -96l-287 -478h-90zM132 189l17 75h346l-17 -75h-346z" glyph-name="uni1EB2" horiz-adv-x="643" unicode="Ẳ"/><glyph d="M532 725q-10 -67 -56 -107.5t-114 -40.5q-59 0 -94.5 33.5t-35.5 82.5q0 17 4 32h60q-1 -4 -1.5 -9t-0.5 -9q0 -33 20.5 -51.5t54.5 -18.5q37 0 64.5 22t34.5 66h64zM370 725l-13 41q28 5 42.5 20.5t14.5 36.5q0 20 -12 27.5t-26 7.5q-13 0 -25.5 -6.5t-21.5 -20.5 l-38 44q17 22 43 34.5t54 12.5q39 0 65.5 -23t26.5 -64q0 -25 -12 -48t-36 -39.5t-62 -22.5zM251 -8q-58 0 -102 28t-69 77.5t-25 114.5q0 62 19 116t53 95t81 64t102 23q44 0 79 -15t58 -42.5t32 -65.5l26 113h80l-116 -500h-70l17 93q-24 -46 -68.5 -73.5t-96.5 -27.5z M272 60q35 0 66.5 18t56 49.5t38.5 74t14 91.5q0 45 -16.5 78.5t-46 51.5t-69.5 18t-73 -17.5t-57 -48.5t-37.5 -72.5t-13.5 -89.5q0 -49 16 -83t46.5 -52t75.5 -18z" glyph-name="uni1EB3" horiz-adv-x="616" unicode="ẳ"/><glyph d="M600 885q-10 -67 -56 -107.5t-114 -40.5q-59 0 -94.5 33.5t-35.5 82.5q0 17 4 32h60q-1 -4 -1.5 -9t-0.5 -9q0 -33 20.5 -51.5t54.5 -18.5q37 0 64.5 22t34.5 66h64zM637 1046q-9 -61 -41 -93t-76 -32q-25 0 -42 9.5t-30 22t-25.5 22t-29.5 9.5q-18 0 -30 -16.5 t-17 -44.5h-63q8 61 40 93t76 32q25 0 42 -9.5t30 -22t26 -22t29 -9.5q18 0 30 16.5t18 44.5h63zM-35 0l402 660h99l96 -660h-79l-69 474l-14 100v0l-58 -96l-287 -478h-90zM132 189l17 75h346l-17 -75h-346z" glyph-name="uni1EB4" horiz-adv-x="643" unicode="Ẵ"/><glyph d="M533 725q-10 -67 -56 -107.5t-114 -40.5q-59 0 -94.5 33.5t-35.5 82.5q0 17 4 32h60q-1 -4 -1.5 -9t-0.5 -9q0 -33 20.5 -51.5t54.5 -18.5q37 0 64.5 22t34.5 66h64zM570 886q-9 -61 -41 -93t-76 -32q-25 0 -42 9.5t-30 22t-25.5 22t-29.5 9.5q-18 0 -30 -16.5t-17 -44.5 h-63q8 61 40 93t76 32q25 0 42 -9.5t30 -22t26 -22t29 -9.5q18 0 30 16.5t18 44.5h63zM251 -8q-58 0 -102 28t-69 77.5t-25 114.5q0 62 19 116t53 95t81 64t102 23q44 0 79 -15t58 -42.5t32 -65.5l26 113h80l-116 -500h-70l17 93q-24 -46 -68.5 -73.5t-96.5 -27.5zM272 60 q35 0 66.5 18t56 49.5t38.5 74t14 91.5q0 45 -16.5 78.5t-46 51.5t-69.5 18t-73 -17.5t-57 -48.5t-37.5 -72.5t-13.5 -89.5q0 -49 16 -83t46.5 -52t75.5 -18z" glyph-name="uni1EB5" horiz-adv-x="616" unicode="ẵ"/><glyph d="M-35 0l402 660h99l96 -660h-79l-69 474l-14 100v0l-58 -96l-287 -478h-90zM132 189l17 75h346l-17 -75h-346zM255 -216q-24 0 -39 14.5t-15 37.5q0 31 18.5 49.5t44.5 18.5q24 0 39 -14.5t15 -37.5q0 -31 -18.5 -49.5t-44.5 -18.5zM599 885q-10 -67 -56 -107.5 t-114 -40.5q-59 0 -94.5 33.5t-35.5 82.5q0 8 1 16t3 16h60q-1 -4 -1.5 -9t-0.5 -9q0 -33 20.5 -51.5t54.5 -18.5q37 0 64.5 22t34.5 66h64z" glyph-name="uni1EB6" horiz-adv-x="643" unicode="Ặ"/><glyph d="M251 -8q-58 0 -102 28t-69 77.5t-25 114.5q0 62 19 116t53 95t81 64t102 23q44 0 79 -15t58 -42.5t32 -65.5l26 113h80l-116 -500h-70l17 93q-24 -46 -68.5 -73.5t-96.5 -27.5zM272 60q35 0 66.5 18t56 49.5t38.5 74t14 91.5q0 45 -16.5 78.5t-46 51.5t-69.5 18 t-73 -17.5t-57 -48.5t-37.5 -72.5t-13.5 -89.5q0 -49 16 -83t46.5 -52t75.5 -18zM215 -216q-24 0 -39 14.5t-15 37.5q0 31 18.5 49.5t44.5 18.5q24 0 39 -14.5t15 -37.5q0 -31 -18.5 -49.5t-44.5 -18.5zM525 725q-10 -67 -56 -107.5t-114 -40.5q-59 0 -94.5 33.5t-35.5 82.5 q0 8 1 16t3 16h60q-1 -4 -1.5 -9t-0.5 -9q0 -33 20.5 -51.5t54.5 -18.5q37 0 64.5 22t34.5 66h64z" glyph-name="uni1EB7" horiz-adv-x="616" unicode="ặ"/><glyph d="M47 0l153 660h453l-18 -75h-373l-49 -213h292l-17 -75h-292l-51 -222h389l-18 -75h-469zM273 -216q-24 0 -39 14.5t-15 37.5q0 31 18.5 49.5t44.5 18.5q24 0 39 -14.5t15 -37.5q0 -31 -18.5 -49.5t-44.5 -18.5z" glyph-name="uni1EB8" horiz-adv-x="625" unicode="Ẹ"/><glyph d="M276 -9q-69 0 -118.5 30t-75.5 81t-26 114q0 78 31 145t90.5 107.5t144.5 40.5q61 0 104.5 -25t66.5 -68.5t23 -98.5q0 -20 -3.5 -41.5t-10.5 -44.5h-407v70h372l-35 -28q3 12 4.5 24t1.5 23q0 36 -14.5 63t-41.5 42t-65 15q-49 0 -83.5 -19.5t-56 -52.5t-31 -73.5 t-9.5 -81.5q0 -45 18.5 -79.5t51.5 -54t78 -19.5q51 1 84 22t54 55l63 -42q-22 -32 -53 -55.5t-70.5 -36t-86.5 -12.5zM228 -216q-24 0 -39 14.5t-15 37.5q0 31 18.5 49.5t44.5 18.5q24 0 39 -14.5t15 -37.5q0 -31 -18.5 -49.5t-44.5 -18.5z" glyph-name="uni1EB9" horiz-adv-x="572" unicode="ẹ"/><glyph d="M47 0l153 660h453l-18 -75h-373l-49 -213h292l-17 -75h-292l-51 -222h389l-18 -75h-469zM425 710l-13 41q28 5 42.5 20.5t14.5 36.5q0 20 -12 27.5t-26 7.5q-13 0 -25.5 -6.5t-21.5 -20.5l-38 44q17 22 43 34.5t54 12.5q39 0 65.5 -23t26.5 -64q0 -25 -12 -48t-36 -39.5 t-62 -22.5z" glyph-name="uni1EBA" horiz-adv-x="625" unicode="Ẻ"/><glyph d="M276 -9q-69 0 -118.5 30t-75.5 81t-26 114q0 78 31 145t90.5 107.5t144.5 40.5q61 0 104.5 -25t66.5 -68.5t23 -98.5q0 -20 -3.5 -41.5t-10.5 -44.5h-407v70h372l-35 -28q3 12 4.5 24t1.5 23q0 36 -14.5 63t-41.5 42t-65 15q-49 0 -83.5 -19.5t-56 -52.5t-31 -73.5 t-9.5 -81.5q0 -45 18.5 -79.5t51.5 -54t78 -19.5q51 1 84 22t54 55l63 -42q-22 -32 -53 -55.5t-70.5 -36t-86.5 -12.5zM319 554l-13 45q32 5 51 21t19 35q0 20 -12 28t-26 8q-13 0 -26.5 -7t-25.5 -19l-33 43q18 21 43.5 33t54.5 12q41 0 66 -23t25 -64q0 -25 -13 -49 t-40.5 -40.5t-69.5 -22.5z" glyph-name="uni1EBB" horiz-adv-x="572" unicode="ẻ"/><glyph d="M47 0l153 660h453l-18 -75h-373l-49 -213h292l-17 -75h-292l-51 -222h389l-18 -75h-469zM636 877q-11 -65 -45.5 -99.5t-78.5 -34.5q-26 0 -44 10.5t-31 24t-25 24t-27 10.5q-18 0 -32.5 -19t-22.5 -51h-63q11 65 45.5 99.5t78.5 34.5q26 0 44 -10.5t31 -24t25 -24 t27 -10.5q18 0 32.5 19t22.5 51h63z" glyph-name="uni1EBC" horiz-adv-x="625" unicode="Ẽ"/><glyph d="M276 -9q-69 0 -118.5 30t-75.5 81t-26 114q0 78 31 145t90.5 107.5t144.5 40.5q61 0 104.5 -25t66.5 -68.5t23 -98.5q0 -20 -3.5 -41.5t-10.5 -44.5h-407v70h372l-35 -28q3 12 4.5 24t1.5 23q0 36 -14.5 63t-41.5 42t-65 15q-49 0 -83.5 -19.5t-56 -52.5t-31 -73.5 t-9.5 -81.5q0 -45 18.5 -79.5t51.5 -54t78 -19.5q51 1 84 22t54 55l63 -42q-22 -32 -53 -55.5t-70.5 -36t-86.5 -12.5zM536 717q-11 -65 -45.5 -99.5t-78.5 -34.5q-26 0 -44 10.5t-31 24t-25 24t-27 10.5q-18 0 -32.5 -19t-22.5 -51h-63q11 65 45.5 99.5t78.5 34.5 q26 0 44 -10.5t31 -24t25 -24t27 -10.5q18 0 32.5 19t22.5 51h63z" glyph-name="uni1EBD" horiz-adv-x="572" unicode="ẽ"/><glyph d="M276 736l152 167h90l76 -167h-69l-60 114l-111 -114h-78zM667 996h84l-109 -143h-61zM47 0l153 660h453l-18 -75h-373l-49 -213h292l-17 -75h-292l-51 -222h389l-18 -75h-469z" glyph-name="uni1EBE" horiz-adv-x="625" unicode="Ế"/><glyph d="M566 836h84l-109 -143h-61zM175 576l152 167h90l76 -167h-69l-60 114l-111 -114h-78zM276 -9q-69 0 -118.5 30t-75.5 81t-26 114q0 78 31 145t90.5 107.5t144.5 40.5q61 0 104.5 -25t66.5 -68.5t23 -98.5q0 -20 -3.5 -41.5t-10.5 -44.5h-407v70h372l-35 -28q3 12 4.5 24 t1.5 23q0 36 -14.5 63t-41.5 42t-65 15q-49 0 -83.5 -19.5t-56 -52.5t-31 -73.5t-9.5 -81.5q0 -45 18.5 -79.5t51.5 -54t78 -19.5q51 1 84 22t54 55l63 -42q-22 -32 -53 -55.5t-70.5 -36t-86.5 -12.5z" glyph-name="uni1EBF" horiz-adv-x="572" unicode="ế"/><glyph d="M276 736l152 167h90l76 -167h-69l-60 114l-111 -114h-78zM622 996l36 -143h-51l-59 143h74zM47 0l153 660h453l-18 -75h-373l-49 -213h292l-17 -75h-292l-51 -222h389l-18 -75h-469z" glyph-name="uni1EC0" horiz-adv-x="625" unicode="Ề"/><glyph d="M521 836l36 -143h-51l-59 143h74zM175 576l152 167h90l76 -167h-69l-60 114l-111 -114h-78zM276 -9q-69 0 -118.5 30t-75.5 81t-26 114q0 78 31 145t90.5 107.5t144.5 40.5q61 0 104.5 -25t66.5 -68.5t23 -98.5q0 -20 -3.5 -41.5t-10.5 -44.5h-407v70h372l-35 -28 q3 12 4.5 24t1.5 23q0 36 -14.5 63t-41.5 42t-65 15q-49 0 -83.5 -19.5t-56 -52.5t-31 -73.5t-9.5 -81.5q0 -45 18.5 -79.5t51.5 -54t78 -19.5q51 1 84 22t54 55l63 -42q-22 -32 -53 -55.5t-70.5 -36t-86.5 -12.5z" glyph-name="uni1EC1" horiz-adv-x="572" unicode="ề"/><glyph d="M276 736l152 167h90l76 -167h-69l-60 114l-111 -114h-78zM613 828l-13 41q28 5 42.5 20.5t14.5 36.5q0 20 -12 27.5t-26 7.5q-13 0 -25.5 -6.5t-21.5 -20.5l-38 44q17 22 43 34.5t54 12.5q39 0 65.5 -23t26.5 -64q0 -25 -12 -48t-36 -39.5t-62 -22.5zM47 0l153 660h453 l-18 -75h-373l-49 -213h292l-17 -75h-292l-51 -222h389l-18 -75h-469z" glyph-name="uni1EC2" horiz-adv-x="625" unicode="Ể"/><glyph d="M512 668l-13 41q28 5 42.5 20.5t14.5 36.5q0 20 -12 27.5t-26 7.5q-13 0 -25.5 -6.5t-21.5 -20.5l-38 44q17 22 43 34.5t54 12.5q39 0 65.5 -23t26.5 -64q0 -25 -12 -48t-36 -39.5t-62 -22.5zM175 576l152 167h90l76 -167h-69l-60 114l-111 -114h-78zM276 -9 q-69 0 -118.5 30t-75.5 81t-26 114q0 78 31 145t90.5 107.5t144.5 40.5q61 0 104.5 -25t66.5 -68.5t23 -98.5q0 -20 -3.5 -41.5t-10.5 -44.5h-407v70h372l-35 -28q3 12 4.5 24t1.5 23q0 36 -14.5 63t-41.5 42t-65 15q-49 0 -83.5 -19.5t-56 -52.5t-31 -73.5t-9.5 -81.5 q0 -45 18.5 -79.5t51.5 -54t78 -19.5q51 1 84 22t54 55l63 -42q-22 -32 -53 -55.5t-70.5 -36t-86.5 -12.5z" glyph-name="uni1EC3" horiz-adv-x="572" unicode="ể"/><glyph d="M276 736l152 167h90l76 -167h-69l-60 114l-111 -114h-78zM663 1055q-9 -61 -41 -93t-76 -32q-25 0 -42 9.5t-30 22t-25.5 22t-29.5 9.5q-18 0 -30 -16.5t-17 -44.5h-63q8 61 40 93t76 32q25 0 42 -9.5t30 -22t26 -22t29 -9.5q18 0 30 16.5t18 44.5h63zM47 0l153 660h453 l-18 -75h-373l-49 -213h292l-17 -75h-292l-51 -222h389l-18 -75h-469z" glyph-name="uni1EC4" horiz-adv-x="625" unicode="Ễ"/><glyph d="M175 576l152 167h90l76 -167h-69l-60 114l-111 -114h-78zM562 895q-9 -61 -41 -93t-76 -32q-25 0 -42 9.5t-30 22t-25.5 22t-29.5 9.5q-18 0 -30 -16.5t-17 -44.5h-63q8 61 40 93t76 32q25 0 42 -9.5t30 -22t26 -22t29 -9.5q18 0 30 16.5t18 44.5h63zM276 -9 q-69 0 -118.5 30t-75.5 81t-26 114q0 78 31 145t90.5 107.5t144.5 40.5q61 0 104.5 -25t66.5 -68.5t23 -98.5q0 -20 -3.5 -41.5t-10.5 -44.5h-407v70h372l-35 -28q3 12 4.5 24t1.5 23q0 36 -14.5 63t-41.5 42t-65 15q-49 0 -83.5 -19.5t-56 -52.5t-31 -73.5t-9.5 -81.5 q0 -45 18.5 -79.5t51.5 -54t78 -19.5q51 1 84 22t54 55l63 -42q-22 -32 -53 -55.5t-70.5 -36t-86.5 -12.5z" glyph-name="uni1EC5" horiz-adv-x="572" unicode="ễ"/><glyph d="M47 0l153 660h453l-18 -75h-373l-49 -213h292l-17 -75h-292l-51 -222h389l-18 -75h-469zM273 -216q-24 0 -39 14.5t-15 37.5q0 31 18.5 49.5t44.5 18.5q24 0 39 -14.5t15 -37.5q0 -31 -18.5 -49.5t-44.5 -18.5zM518 902l73 -159h-68l-57 106l-103 -106h-80l147 159h88z" glyph-name="uni1EC6" horiz-adv-x="625" unicode="Ệ"/><glyph d="M276 -9q-69 0 -118.5 30t-75.5 81t-26 114q0 78 31 145t90.5 107.5t144.5 40.5q61 0 104.5 -25t66.5 -68.5t23 -98.5q0 -20 -3.5 -41.5t-10.5 -44.5h-407v70h372l-35 -28q3 12 4.5 24t1.5 23q0 36 -14.5 63t-41.5 42t-65 15q-49 0 -83.5 -19.5t-56 -52.5t-31 -73.5 t-9.5 -81.5q0 -45 18.5 -79.5t51.5 -54t78 -19.5q51 1 84 22t54 55l63 -42q-22 -32 -53 -55.5t-70.5 -36t-86.5 -12.5zM228 -216q-24 0 -39 14.5t-15 37.5q0 31 18.5 49.5t44.5 18.5q24 0 39 -14.5t15 -37.5q0 -31 -18.5 -49.5t-44.5 -18.5zM175 576l152 167h90l76 -167h-69 l-60 114l-111 -114h-78z" glyph-name="uni1EC7" horiz-adv-x="572" unicode="ệ"/><glyph d="M280 660l-153 -660h-80l153 660h80zM245 710l-13 41q28 5 42.5 20.5t14.5 36.5q0 20 -12 27.5t-26 7.5q-13 0 -25.5 -6.5t-21.5 -20.5l-38 44q17 22 43 34.5t54 12.5q39 0 65.5 -23t26.5 -64q0 -25 -12 -48t-36 -39.5t-62 -22.5z" glyph-name="uni1EC8" horiz-adv-x="290" unicode="Ỉ"/><glyph d="M227 500l-116 -500h-80l116 500h80zM186 554l-13 45q32 5 51 21t19 35q0 20 -12 28t-26 8q-13 0 -26.5 -7t-25.5 -19l-33 43q18 21 43.5 33t54.5 12q41 0 66 -23t25 -64q0 -25 -13 -49t-40.5 -40.5t-69.5 -22.5z" glyph-name="uni1EC9" horiz-adv-x="258" unicode="ỉ"/><glyph d="M280 660l-153 -660h-80l153 660h80zM49 -216q-24 0 -39 14.5t-15 37.5q0 31 18.5 49.5t44.5 18.5q24 0 39 -14.5t15 -37.5q0 -31 -18.5 -49.5t-44.5 -18.5z" glyph-name="uni1ECA" horiz-adv-x="290" unicode="Ị"/><glyph d="M218 596q-24 0 -39 14.5t-15 37.5q0 31 18.5 49.5t44.5 18.5q24 0 39 -14.5t15 -37.5q0 -31 -18.5 -49.5t-44.5 -18.5zM227 500l-116 -500h-80l116 500h80zM33 -216q-24 0 -39 14.5t-15 37.5q0 31 18.5 49.5t44.5 18.5q24 0 39 -14.5t15 -37.5q0 -31 -18.5 -49.5 t-44.5 -18.5z" glyph-name="uni1ECB" horiz-adv-x="258" unicode="ị"/><glyph d="M359 -10q-74 0 -136.5 33.5t-100 98.5t-37.5 158q0 77 22 147t64.5 124.5t106 86.5t145.5 32q74 0 135.5 -34t98.5 -98.5t37 -157.5q0 -76 -21.5 -146t-64 -125t-105 -87t-144.5 -32zM368 66q60 0 105 26t75.5 70.5t46 99.5t15.5 113q0 69 -25 118t-69 75t-103 26 q-60 0 -105.5 -26t-76.5 -70t-46.5 -99t-15.5 -114q0 -69 25 -118t69.5 -75t104.5 -26zM305 -216q-24 0 -39 14.5t-15 37.5q0 31 18.5 49.5t44.5 18.5q24 0 39 -14.5t15 -37.5q0 -31 -18.5 -49.5t-44.5 -18.5z" glyph-name="uni1ECC" horiz-adv-x="742" unicode="Ọ"/><glyph d="M282 -9q-72 0 -122.5 30.5t-77 82t-26.5 112.5q0 86 33 152t91 103.5t134 37.5q73 0 123 -30.5t76 -81t26 -112.5q0 -85 -32.5 -151.5t-90.5 -104.5t-134 -38zM285 60q36 0 67.5 15.5t55.5 45t37 70.5t13 91q0 44 -15.5 79.5t-48 57t-83.5 21.5q-36 0 -68 -15.5 t-55.5 -44.5t-37 -70t-13.5 -91q0 -43 16 -79.5t49 -58t83 -21.5zM226 -216q-24 0 -39 14.5t-15 37.5q0 31 18.5 49.5t44.5 18.5q24 0 39 -14.5t15 -37.5q0 -31 -18.5 -49.5t-44.5 -18.5z" glyph-name="uni1ECD" horiz-adv-x="595" unicode="ọ"/><glyph d="M359 -10q-74 0 -136.5 33.5t-100 98.5t-37.5 158q0 77 22 147t64.5 124.5t106 86.5t145.5 32q74 0 135.5 -34t98.5 -98.5t37 -157.5q0 -76 -21.5 -146t-64 -125t-105 -87t-144.5 -32zM368 66q60 0 105 26t75.5 70.5t46 99.5t15.5 113q0 69 -25 118t-69 75t-103 26 q-60 0 -105.5 -26t-76.5 -70t-46.5 -99t-15.5 -114q0 -69 25 -118t69.5 -75t104.5 -26zM442 710l-13 41q28 5 42.5 20.5t14.5 36.5q0 20 -12 27.5t-26 7.5q-13 0 -25.5 -6.5t-21.5 -20.5l-38 44q17 22 43 34.5t54 12.5q39 0 65.5 -23t26.5 -64q0 -25 -12 -48t-36 -39.5 t-62 -22.5z" glyph-name="uni1ECE" horiz-adv-x="742" unicode="Ỏ"/><glyph d="M282 -9q-72 0 -122.5 30.5t-77 82t-26.5 112.5q0 86 33 152t91 103.5t134 37.5q73 0 123 -30.5t76 -81t26 -112.5q0 -85 -32.5 -151.5t-90.5 -104.5t-134 -38zM285 60q36 0 67.5 15.5t55.5 45t37 70.5t13 91q0 44 -15.5 79.5t-48 57t-83.5 21.5q-36 0 -68 -15.5 t-55.5 -44.5t-37 -70t-13.5 -91q0 -43 16 -79.5t49 -58t83 -21.5zM322 554l-13 45q32 5 51 21t19 35q0 20 -12 28t-26 8q-13 0 -26.5 -7t-25.5 -19l-33 43q18 21 43.5 33t54.5 12q41 0 66 -23t25 -64q0 -25 -13 -49t-40.5 -40.5t-69.5 -22.5z" glyph-name="uni1ECF" horiz-adv-x="595" unicode="ỏ"/><glyph d="M293 736l152 167h90l76 -167h-69l-60 114l-111 -114h-78zM684 996h84l-109 -143h-61zM359 -10q-74 0 -136.5 33.5t-100 98.5t-37.5 158q0 77 22 147t64.5 124.5t106 86.5t145.5 32q74 0 135.5 -34t98.5 -98.5t37 -157.5q0 -76 -21.5 -146t-64 -125t-105 -87t-144.5 -32z M368 66q60 0 105 26t75.5 70.5t46 99.5t15.5 113q0 69 -25 118t-69 75t-103 26q-60 0 -105.5 -26t-76.5 -70t-46.5 -99t-15.5 -114q0 -69 25 -118t69.5 -75t104.5 -26z" glyph-name="uni1ED0" horiz-adv-x="742" unicode="Ố"/><glyph d="M569 836h84l-109 -143h-61zM178 576l152 167h90l76 -167h-69l-60 114l-111 -114h-78zM282 -9q-72 0 -122.5 30.5t-77 82t-26.5 112.5q0 86 33 152t91 103.5t134 37.5q73 0 123 -30.5t76 -81t26 -112.5q0 -85 -32.5 -151.5t-90.5 -104.5t-134 -38zM285 60q36 0 67.5 15.5 t55.5 45t37 70.5t13 91q0 44 -15.5 79.5t-48 57t-83.5 21.5q-36 0 -68 -15.5t-55.5 -44.5t-37 -70t-13.5 -91q0 -43 16 -79.5t49 -58t83 -21.5z" glyph-name="uni1ED1" horiz-adv-x="595" unicode="ố"/><glyph d="M293 736l152 167h90l76 -167h-69l-60 114l-111 -114h-78zM639 996l36 -143h-51l-59 143h74zM359 -10q-74 0 -136.5 33.5t-100 98.5t-37.5 158q0 77 22 147t64.5 124.5t106 86.5t145.5 32q74 0 135.5 -34t98.5 -98.5t37 -157.5q0 -76 -21.5 -146t-64 -125t-105 -87 t-144.5 -32zM368 66q60 0 105 26t75.5 70.5t46 99.5t15.5 113q0 69 -25 118t-69 75t-103 26q-60 0 -105.5 -26t-76.5 -70t-46.5 -99t-15.5 -114q0 -69 25 -118t69.5 -75t104.5 -26z" glyph-name="uni1ED2" horiz-adv-x="742" unicode="Ồ"/><glyph d="M524 836l36 -143h-51l-59 143h74zM178 576l152 167h90l76 -167h-69l-60 114l-111 -114h-78zM282 -9q-72 0 -122.5 30.5t-77 82t-26.5 112.5q0 86 33 152t91 103.5t134 37.5q73 0 123 -30.5t76 -81t26 -112.5q0 -85 -32.5 -151.5t-90.5 -104.5t-134 -38zM285 60 q36 0 67.5 15.5t55.5 45t37 70.5t13 91q0 44 -15.5 79.5t-48 57t-83.5 21.5q-36 0 -68 -15.5t-55.5 -44.5t-37 -70t-13.5 -91q0 -43 16 -79.5t49 -58t83 -21.5z" glyph-name="uni1ED3" horiz-adv-x="595" unicode="ồ"/><glyph d="M293 736l152 167h90l76 -167h-69l-60 114l-111 -114h-78zM630 828l-13 41q28 5 42.5 20.5t14.5 36.5q0 20 -12 27.5t-26 7.5q-13 0 -25.5 -6.5t-21.5 -20.5l-38 44q17 22 43 34.5t54 12.5q39 0 65.5 -23t26.5 -64q0 -25 -12 -48t-36 -39.5t-62 -22.5zM359 -10 q-74 0 -136.5 33.5t-100 98.5t-37.5 158q0 77 22 147t64.5 124.5t106 86.5t145.5 32q74 0 135.5 -34t98.5 -98.5t37 -157.5q0 -76 -21.5 -146t-64 -125t-105 -87t-144.5 -32zM368 66q60 0 105 26t75.5 70.5t46 99.5t15.5 113q0 69 -25 118t-69 75t-103 26q-60 0 -105.5 -26 t-76.5 -70t-46.5 -99t-15.5 -114q0 -69 25 -118t69.5 -75t104.5 -26z" glyph-name="uni1ED4" horiz-adv-x="742" unicode="Ổ"/><glyph d="M515 668l-13 41q28 5 42.5 20.5t14.5 36.5q0 20 -12 27.5t-26 7.5q-13 0 -25.5 -6.5t-21.5 -20.5l-38 44q17 22 43 34.5t54 12.5q39 0 65.5 -23t26.5 -64q0 -25 -12 -48t-36 -39.5t-62 -22.5zM178 576l152 167h90l76 -167h-69l-60 114l-111 -114h-78zM282 -9 q-72 0 -122.5 30.5t-77 82t-26.5 112.5q0 86 33 152t91 103.5t134 37.5q73 0 123 -30.5t76 -81t26 -112.5q0 -85 -32.5 -151.5t-90.5 -104.5t-134 -38zM285 60q36 0 67.5 15.5t55.5 45t37 70.5t13 91q0 44 -15.5 79.5t-48 57t-83.5 21.5q-36 0 -68 -15.5t-55.5 -44.5 t-37 -70t-13.5 -91q0 -43 16 -79.5t49 -58t83 -21.5z" glyph-name="uni1ED5" horiz-adv-x="595" unicode="ổ"/><glyph d="M293 736l152 167h90l76 -167h-69l-60 114l-111 -114h-78zM680 1055q-9 -61 -41 -93t-76 -32q-25 0 -42 9.5t-30 22t-25.5 22t-29.5 9.5q-18 0 -30 -16.5t-17 -44.5h-63q8 61 40 93t76 32q25 0 42 -9.5t30 -22t26 -22t29 -9.5q18 0 30 16.5t18 44.5h63zM359 -10 q-74 0 -136.5 33.5t-100 98.5t-37.5 158q0 77 22 147t64.5 124.5t106 86.5t145.5 32q74 0 135.5 -34t98.5 -98.5t37 -157.5q0 -76 -21.5 -146t-64 -125t-105 -87t-144.5 -32zM368 66q60 0 105 26t75.5 70.5t46 99.5t15.5 113q0 69 -25 118t-69 75t-103 26q-60 0 -105.5 -26 t-76.5 -70t-46.5 -99t-15.5 -114q0 -69 25 -118t69.5 -75t104.5 -26z" glyph-name="uni1ED6" horiz-adv-x="742" unicode="Ỗ"/><glyph d="M178 576l152 167h90l76 -167h-69l-60 114l-111 -114h-78zM565 895q-9 -61 -41 -93t-76 -32q-25 0 -42 9.5t-30 22t-25.5 22t-29.5 9.5q-18 0 -30 -16.5t-17 -44.5h-63q8 61 40 93t76 32q25 0 42 -9.5t30 -22t26 -22t29 -9.5q18 0 30 16.5t18 44.5h63zM282 -9 q-72 0 -122.5 30.5t-77 82t-26.5 112.5q0 86 33 152t91 103.5t134 37.5q73 0 123 -30.5t76 -81t26 -112.5q0 -85 -32.5 -151.5t-90.5 -104.5t-134 -38zM285 60q36 0 67.5 15.5t55.5 45t37 70.5t13 91q0 44 -15.5 79.5t-48 57t-83.5 21.5q-36 0 -68 -15.5t-55.5 -44.5 t-37 -70t-13.5 -91q0 -43 16 -79.5t49 -58t83 -21.5z" glyph-name="uni1ED7" horiz-adv-x="595" unicode="ỗ"/><glyph d="M359 -10q-74 0 -136.5 33.5t-100 98.5t-37.5 158q0 77 22 147t64.5 124.5t106 86.5t145.5 32q74 0 135.5 -34t98.5 -98.5t37 -157.5q0 -76 -21.5 -146t-64 -125t-105 -87t-144.5 -32zM368 66q60 0 105 26t75.5 70.5t46 99.5t15.5 113q0 69 -25 118t-69 75t-103 26 q-60 0 -105.5 -26t-76.5 -70t-46.5 -99t-15.5 -114q0 -69 25 -118t69.5 -75t104.5 -26zM305 -216q-24 0 -39 14.5t-15 37.5q0 31 18.5 49.5t44.5 18.5q24 0 39 -14.5t15 -37.5q0 -31 -18.5 -49.5t-44.5 -18.5zM535 902l73 -159h-68l-57 106l-103 -106h-80l147 159h88z" glyph-name="uni1ED8" horiz-adv-x="742" unicode="Ộ"/><glyph d="M282 -9q-72 0 -122.5 30.5t-77 82t-26.5 112.5q0 86 33 152t91 103.5t134 37.5q73 0 123 -30.5t76 -81t26 -112.5q0 -85 -32.5 -151.5t-90.5 -104.5t-134 -38zM285 60q36 0 67.5 15.5t55.5 45t37 70.5t13 91q0 44 -15.5 79.5t-48 57t-83.5 21.5q-36 0 -68 -15.5 t-55.5 -44.5t-37 -70t-13.5 -91q0 -43 16 -79.5t49 -58t83 -21.5zM226 -216q-24 0 -39 14.5t-15 37.5q0 31 18.5 49.5t44.5 18.5q24 0 39 -14.5t15 -37.5q0 -31 -18.5 -49.5t-44.5 -18.5zM178 576l152 167h90l76 -167h-69l-60 114l-111 -114h-78z" glyph-name="uni1ED9" horiz-adv-x="595" unicode="ộ"/><glyph d="M559 611l-69 51q47 -8 80 -3t54 20t32.5 38t15.5 51h82q-9 -57 -38 -97t-70 -56.5t-87 -3.5zM359 -10q-74 0 -136.5 33.5t-100 98.5t-37.5 158q0 77 22 147t64.5 124.5t106 86.5t145.5 32q74 0 135.5 -34t98.5 -98.5t37 -157.5q0 -76 -21.5 -146t-64 -125t-105 -87 t-144.5 -32zM368 66q60 0 105 26t75.5 70.5t46 99.5t15.5 113q0 69 -25 118t-69 75t-103 26q-60 0 -105.5 -26t-76.5 -70t-46.5 -99t-15.5 -114q0 -69 25 -118t69.5 -75t104.5 -26zM502 902h93l-121 -159h-68z" glyph-name="uni1EDA" horiz-adv-x="742" unicode="Ớ"/><glyph d="M404 453l-24 48q47 -9 76 3t45.5 41.5t24.5 72.5h69q-8 -68 -37 -109t-69.5 -54.5t-84.5 -1.5zM282 -9q-72 0 -122.5 30.5t-77 82t-26.5 112.5q0 86 33 152t91 103.5t134 37.5q73 0 123 -30.5t76 -81t26 -112.5q0 -85 -32.5 -151.5t-90.5 -104.5t-134 -38zM285 60 q36 0 67.5 15.5t55.5 45t37 70.5t13 91q0 44 -15.5 79.5t-48 57t-83.5 21.5q-36 0 -68 -15.5t-55.5 -44.5t-37 -70t-13.5 -91q0 -43 16 -79.5t49 -58t83 -21.5zM381 750h96l-143 -167h-75z" glyph-name="uni1EDB" horiz-adv-x="595" unicode="ớ"/><glyph d="M559 611l-69 51q47 -8 80 -3t54 20t32.5 38t15.5 51h82q-9 -57 -38 -97t-70 -56.5t-87 -3.5zM359 -10q-74 0 -136.5 33.5t-100 98.5t-37.5 158q0 77 22 147t64.5 124.5t106 86.5t145.5 32q74 0 135.5 -34t98.5 -98.5t37 -157.5q0 -76 -21.5 -146t-64 -125t-105 -87 t-144.5 -32zM368 66q60 0 105 26t75.5 70.5t46 99.5t15.5 113q0 69 -25 118t-69 75t-103 26q-60 0 -105.5 -26t-76.5 -70t-46.5 -99t-15.5 -114q0 -69 25 -118t69.5 -75t104.5 -26zM452 902l40 -159h-57l-65 159h82z" glyph-name="uni1EDC" horiz-adv-x="742" unicode="Ờ"/><glyph d="M404 453l-24 48q47 -9 76 3t45.5 41.5t24.5 72.5h69q-8 -68 -37 -109t-69.5 -54.5t-84.5 -1.5zM282 -9q-72 0 -122.5 30.5t-77 82t-26.5 112.5q0 86 33 152t91 103.5t134 37.5q73 0 123 -30.5t76 -81t26 -112.5q0 -85 -32.5 -151.5t-90.5 -104.5t-134 -38zM285 60 q36 0 67.5 15.5t55.5 45t37 70.5t13 91q0 44 -15.5 79.5t-48 57t-83.5 21.5q-36 0 -68 -15.5t-55.5 -44.5t-37 -70t-13.5 -91q0 -43 16 -79.5t49 -58t83 -21.5zM304 750l45 -167h-61l-64 167h80z" glyph-name="uni1EDD" horiz-adv-x="595" unicode="ờ"/><glyph d="M559 611l-69 51q47 -8 80 -3t54 20t32.5 38t15.5 51h82q-9 -57 -38 -97t-70 -56.5t-87 -3.5zM359 -10q-74 0 -136.5 33.5t-100 98.5t-37.5 158q0 77 22 147t64.5 124.5t106 86.5t145.5 32q74 0 135.5 -34t98.5 -98.5t37 -157.5q0 -76 -21.5 -146t-64 -125t-105 -87 t-144.5 -32zM368 66q60 0 105 26t75.5 70.5t46 99.5t15.5 113q0 69 -25 118t-69 75t-103 26q-60 0 -105.5 -26t-76.5 -70t-46.5 -99t-15.5 -114q0 -69 25 -118t69.5 -75t104.5 -26zM442 710l-13 41q28 5 42.5 20.5t14.5 36.5q0 20 -12 27.5t-26 7.5q-13 0 -25.5 -6.5 t-21.5 -20.5l-38 44q17 22 43 34.5t54 12.5q39 0 65.5 -23t26.5 -64q0 -25 -12 -48t-36 -39.5t-62 -22.5z" glyph-name="uni1EDE" horiz-adv-x="742" unicode="Ở"/><glyph d="M404 453l-24 48q47 -9 76 3t45.5 41.5t24.5 72.5h69q-8 -68 -37 -109t-69.5 -54.5t-84.5 -1.5zM282 -9q-72 0 -122.5 30.5t-77 82t-26.5 112.5q0 86 33 152t91 103.5t134 37.5q73 0 123 -30.5t76 -81t26 -112.5q0 -85 -32.5 -151.5t-90.5 -104.5t-134 -38zM285 60 q36 0 67.5 15.5t55.5 45t37 70.5t13 91q0 44 -15.5 79.5t-48 57t-83.5 21.5q-36 0 -68 -15.5t-55.5 -44.5t-37 -70t-13.5 -91q0 -43 16 -79.5t49 -58t83 -21.5zM292 554l-13 45q32 5 51 21t19 35q0 20 -12 28t-26 8q-13 0 -26.5 -7t-25.5 -19l-33 43q18 21 43.5 33t54.5 12 q41 0 66 -23t25 -64q0 -25 -13 -49t-40.5 -40.5t-69.5 -22.5z" glyph-name="uni1EDF" horiz-adv-x="595" unicode="ở"/><glyph d="M559 611l-69 51q47 -8 80 -3t54 20t32.5 38t15.5 51h82q-9 -57 -38 -97t-70 -56.5t-87 -3.5zM359 -10q-74 0 -136.5 33.5t-100 98.5t-37.5 158q0 77 22 147t64.5 124.5t106 86.5t145.5 32q74 0 135.5 -34t98.5 -98.5t37 -157.5q0 -76 -21.5 -146t-64 -125t-105 -87 t-144.5 -32zM368 66q60 0 105 26t75.5 70.5t46 99.5t15.5 113q0 69 -25 118t-69 75t-103 26q-60 0 -105.5 -26t-76.5 -70t-46.5 -99t-15.5 -114q0 -69 25 -118t69.5 -75t104.5 -26zM653 877q-11 -65 -45.5 -99.5t-78.5 -34.5q-26 0 -44 10.5t-31 24t-25 24t-27 10.5 q-18 0 -32.5 -19t-22.5 -51h-63q11 65 45.5 99.5t78.5 34.5q26 0 44 -10.5t31 -24t25 -24t27 -10.5q18 0 32.5 19t22.5 51h63z" glyph-name="uni1EE0" horiz-adv-x="742" unicode="Ỡ"/></font>
</defs>
</svg>
